<?xml version="1.0" encoding="UTF-8" standalone="no"?>
<!DOCTYPE svg PUBLIC "-//W3C//DTD SVG 1.1//EN" "http://www.w3.org/Graphics/SVG/1.1/DTD/svg11.dtd">
<svg width="100%" height="100%" viewBox="0 0 309 318" version="1.1" xmlns="http://www.w3.org/2000/svg" xmlns:xlink="http://www.w3.org/1999/xlink" xml:space="preserve" xmlns:serif="http://www.serif.com/" style="fill-rule:evenodd;clip-rule:evenodd;">
    <g transform="matrix(1,0,0,1,-470.946,-224.958)">
        <path d="M763.872,364.253L764.374,364.817L767.088,367.053L764.644,372.19L763.968,375.513L765.591,376.999L765.997,378.524L764.554,381.877L762.444,385.232L757.927,389.219L758.413,394.884L760.487,401.103L762.318,405.245L761.795,407.834L763.752,410.035L766.709,411.557L769.189,412.134L771.632,413.203L772.985,415.7L772.958,418.607L771.254,420.86L771.254,421.74L772.516,423.717L772.182,425.745L771.245,428.325L770.713,432.003L771.587,434.035L777.259,438.288L775.654,440.288L774.987,441.492L774.707,442.76L774.545,444.058L774.175,445.396L772.291,448.819L771.822,450.192L771.515,458.815L770.776,461.575L769.432,464.115L767.827,466.268L762.823,471.368L761.678,473.81L761.939,476.792L763.373,478.985L764.951,480.079L766.159,481.699L766.502,485.408L767.403,488.98L769.369,491.288L773.607,494.817L774.734,497.242L775.591,500.8L775.735,504.49L774.707,507.295L773.012,509.984L772.3,512.703L772.493,513.705L768.706,513.531L764.955,511.966L762.773,510.674L760.866,510.313L759.04,510.392L755.262,511.463L743.743,517.246L740.37,518.027L737.417,516.047L734.293,514.89L730.109,514.341L724.681,515.656L721.173,517.6L720.091,518.59L716.678,523.068L716.164,524.115L716.124,525.183L716.002,526.298L714.663,529.461L709.776,536.464L708.243,539.067L707.918,539.219L707.391,539.366L706.998,539.132L706.106,538.974L705.457,538.765L699.785,539.471L690.457,540.63L687.368,540.324L677.188,539.608L673.167,538.283L672.017,538.081L671.178,538.171L670.164,538.434L669.104,537.987L667.657,535.819L666.44,534.861L665.421,534.306L664.772,533.488L663.514,532.403L659.425,530.391L658.288,530.348L657.382,530.629L656.557,531.531L655.268,532.215L647.215,534.969L645.588,535.437L644.452,533.563L643.866,533.181L642.725,532.969L642.301,533.852L641.336,533.704L640.931,534.219L640.484,534.637L639.957,535.437L639.646,535.257L639.402,535.048L639.091,534.288L638.942,533.866L638.821,533.315L638.753,532.857L638.753,532.424L638.861,532.093L639.051,531.812L640.038,530.889L640.241,530.629L640.444,530.225L640.877,528.801L640.813,526.806L641.03,525.277L640.868,524.071L640.336,523.624L640.079,522.743L640.227,522.476L640.417,522.216L640.687,522.017L641.363,521.627L641.679,521.302L641.95,520.692L641.936,519.905L641.774,518.879L641.3,516.892L641.003,516.011L640.687,515.411L638.861,514.305L638.009,513.079L638.023,512.244L638.212,511.767L638.374,511.181L638.55,510.154L638.347,509.539L638.077,509.159L637.008,508.468L635.881,507.469L635.57,507.296L635.245,507.288L634.948,507.426L634.691,507.643L634.285,507.788L633.609,507.52L632.405,506.695L629.966,503.69L628.965,503.306L630.764,500.039L631.481,499.322L636.711,495.205L639.145,491.876L639.429,490.196L638.807,488.595L637.955,487.176L637.455,485.626L637.306,484.576L637.238,480.846L637.36,479.857L637.847,478.883L640.498,474.658L643.491,471.285L644.249,469.527L642.599,468.813L639.686,468.602L639.213,468.697L638.685,469.112L637.996,470.488L637.617,471.092L636.968,470.764L636.521,470.371L635.746,469.367L635.124,469.236L629.357,469.927L627.748,469.294L622.847,465.853L622.211,465.193L621.833,464.403L621.328,463.685L620.273,462.73L619.326,462.275L617.54,461.95L613.532,461.899L612.843,461.728L612.41,461.436L611.742,459.22L611.296,458.297L609.984,457.371L606.639,456.984L605.679,456.729L597.883,451.905L594.511,449.918L594.011,449.874L593.469,449.918L593.348,450.258L593.321,450.67L593.131,451.134L592.739,451.612L591.68,452.102L590.571,452.817L589.353,454.021L585.332,453.131L583.83,452.259L579.741,449.064L577.983,446.719L577.478,446.309L577.045,446.09L576.693,446.149L576.436,446.339L576.233,446.638L575.936,447.332L575.584,447.603L575.057,447.771L574.015,447.807L573.474,447.69L573.055,447.493L572.063,446.543L569.426,444.734L568.682,444.029L568.195,443.466L568.114,442.753L568.114,442.296L568.087,441.938L567.866,440.972L562.437,433.61L560.814,431.842L559.07,430.974L558.704,430.615L558.393,430.117L557.812,428.23L555.508,425.946L555.237,425.58L554.453,423.897L553.709,421.663L553.763,421.297L553.925,420.827L554.575,419.778L555.711,416.203L557.712,414.095L557.848,413.809L557.983,413.353L557.767,413.14L557.266,412.406L556.969,411.612L556.698,411.156L556.373,410.848L555.521,410.767L555.048,410.363L554.575,409.573L554.331,407.393L554.29,406.345L554.372,405.606L554.493,405.238L555.075,403.814L555.318,403.02L555.413,402.622L555.657,401.898L556.752,400.002L556.86,399.461L556.82,399.019L556.685,398.548L556.536,397.922L556.36,396.854L556.495,396.309L556.685,395.779L556.725,395.304L556.549,394.696L556.576,394.268L556.698,393.937L557.74,391.976L558.091,391.158L558.691,389.249L558.799,388.504L558.785,387.928L558.637,387.604L558.244,387.047L558.082,386.781L557.893,386.294L557.947,385.959L558.091,385.708L559.042,385.11L559.556,384.276L560.354,382.106L561.355,380.315L561.464,379.865L561.558,379.278L561.45,378.162L561.491,377.172L561.707,376.578L562.086,375.754L561.978,375.517L561.734,375.473L561.112,375.816L560.774,375.927L560.422,375.983L560.07,375.909L559.719,375.909L559.394,375.99L559.097,376.156L558.677,376.034L558.172,375.606L556.874,373.414L556.4,372.775L555.751,372.242L555.264,372.035L554.818,372.02L554.52,372.176L554.304,372.46L554.182,372.841L553.979,374.131L553.844,374.508L553.641,374.815L553.425,375.088L553.177,375.347L552.924,375.539L552.257,375.864L551.053,376.094L549.944,375.783L549.687,375.554L549.39,375.207L549.227,374.771L549.079,374.042L549.106,373.507L549.214,373.085L549.633,372.531L549.931,372.242L550.201,371.887L550.526,371.37L550.445,371.055L550.215,370.844L549.823,370.748L548.97,370.789L548.118,370.955L547.681,370.963L547.154,370.763L547.099,370.478L547.181,370.186L549.498,366.612L549.687,365.687L549.863,364.244L550.025,360.822L550.228,359.396L550.472,358.573L550.85,358.503L552.541,358.607L553.303,358.399L554.196,357.843L554.642,357.187L555.17,356.094L556.035,353.336L556.252,352.008L556.238,350.813L556.035,350.379L555.778,350.056L554.953,349.381L554.683,349.032L554.453,348.524L554.277,347.54L554.115,346.902L553.925,346.445L553.465,345.781L553.204,345.357L552.951,344.704L552.924,344.221L553.006,343.801L553.384,343.233L554.223,342.386L554.547,341.94L554.52,341.524L554.358,341.011L554.02,340.632L553.736,340.179L553.492,339.607L553.285,338.547L553.357,338.012L553.533,337.584L556.373,335.205L556.752,333.616L556.685,332.675L554.994,327.158L554.52,326.13L554.074,325.527L553.069,325.251L552.014,324.715L551.608,324.581L551.229,324.625L548.236,325.542L547.329,325.587L546.044,325.423L546.139,323.783L545.963,323.336L545.693,322.755L545.125,322.106L544.8,321.898L544.448,321.816L538.317,322.591L536.135,322.516L534.823,323.057L533.33,322.744L530.95,321.331L529.773,320.862L528.213,320.683L527.33,320.362L521.671,316.536L521.811,315.902L522.853,314.327L523.321,312.655L522.257,312.028L519.525,311.901L518.304,310.915L515.653,306.874L514.3,307.173L512.064,308.458L511.185,308.764L509.661,308.488L509.219,307.621L509.084,306.239L508.475,304.408L507.47,303.667L504.58,303.548L503.385,302.927L504.106,302.176L504.607,300.796L504.598,300.474L504.566,299.476L503.682,298.888L499.814,299.966L495.536,298.26L493.529,297.99L491.906,297.377L489.309,294.671L487.303,294.03L485.463,294.457L482.619,296.452L480.996,296.905L479.12,296.568L477.677,295.685L474.476,291.904L473.045,289.215L473.008,289.145L474.946,288.915L476.981,289.366L479.832,289.366L481.867,290.268L483.496,290.494L483.632,288.464L483.903,286.884L485.26,286.207L488.11,286.207L490.553,287.561L492.861,288.915L495.168,288.689L496.932,287.336L497.537,285.008L497.159,283.974L496.929,281.528L496.658,280.515L496.185,279.705L495.522,278.969L495.292,277.877L495.833,276.446L499.692,272.879L501.41,271.751L506.162,269.955L509.156,269.775L510.184,270.143L512.947,272.425L514.033,274.912L515.797,273.782L517.697,273.103L519.597,273.103L522.312,273.329L522.04,271.294L520.283,269.891L521.067,269.399L521.825,269.106L524.212,269.71L526.248,267.22L529.638,265.556L531.112,265.15L532.762,265.862L534.526,264.05L536.019,262.917L537.376,262.691L538.191,260.425L538.327,258.385L540.634,256.798L541.901,254.451L542.347,254.481L543.15,254.183L544.665,253.347L545.936,253.162L546.68,252.883L547.059,252.872L547.546,253.056L548.916,254.575L549.282,254.692L549.863,254.466L550.242,254.24L551.96,252.849L552.649,252.578L553.087,252.532L553.587,252.649L554.101,252.951L554.683,253.787L555.467,255.423L556.089,256.383L556.725,256.688L562.207,258.063L565.377,259.957L565.931,260.262L568.56,262.321L568.885,262.75L569.358,263.239L569.547,263.525L570.075,263.984L572.563,265.398L572.834,265.699L573.596,266.94L573.866,267.218L574.421,267.414L575.233,267.527L578.348,267.301L579.687,266.797L581.026,266.605L590.273,268.993L590.746,269L591.941,269.579L594.295,271.984L597.951,272.999L600.115,273.111L600.872,273.607L601.062,275.639L601.021,276.642L601.089,276.98L601.211,277.37L601.4,277.633L601.634,277.835L602.067,278.098L602.5,278.192L603.122,278.215L606.963,277.37L608.185,277.46L608.794,277.625L609.403,277.896L610.647,278.958L611.242,279.224L611.932,279.303L613.316,279.164L613.979,278.98L614.79,278.624L615.385,278.519L617.73,278.496L618.406,278.301L618.866,278.053L619.15,277.828L619.502,277.858L619.826,278.106L620.029,278.778L619.907,279.164L619.677,279.472L619.109,279.892L618.879,280.162L618.704,280.433L618.866,280.928L619.353,281.378L621.436,282.26L623.672,281.873L625.877,279.645L626.269,279.029L627.193,277.918L627.694,277.468L630.25,275.838L631.4,274.719L632.189,274.144L632.473,273.851L632.689,273.547L632.851,273.243L632.96,272.972L633.041,272.728L633.108,272.398L633.298,271.616L633.446,271.252L633.758,270.91L634.163,270.564L634.921,270.184L635.421,269.827L635.651,269.376L635.935,269.079L636.314,268.801L637.022,268.557L637.63,268.639L638.253,268.948L639.375,270.399L639.943,271.545L640.173,271.864L641.246,272.356L643.694,272.353L644.019,270.861L644.127,269.869L644.222,269.451L644.492,268.715L645.344,266.827L645.809,266.064L646.81,265.12L648.216,264.409L650.502,264.187L652.333,264.563L654.28,265.455L655.854,266.451L657.45,266.861L658.992,266.316L663.581,262.607L664.501,262.291L665.502,261.376L666.643,259.814L667.833,256.451L669.47,252.928L669.943,250.176L670.606,248.536L671.827,247.378L673.451,246.514L676.552,246.382L678.524,244.54L680.153,241.586L685.446,237.037L688.568,236.582L691.554,236.81L694.132,235.672L693.725,233.852L691.532,229.738L691.689,227.02L693.182,227.247L695.354,230.664L699.425,232.258L699.561,235.445L702.084,240.055L702.547,242.04L703.904,244.086L710.011,243.631L715.204,244.012L717.069,244.767L719.24,245.222L721.005,242.722L723.176,242.267L726.298,243.858L729.962,243.631L731.998,244.086L732.134,247.947L731.726,250.672L730.369,253.849L727.248,258.838L719.915,263.796L719.807,264.872L719.834,266.632L723.486,267.181L726.791,268.023L732.541,268.578L733.762,267.673L734.305,265.635L736.612,264.503L739.055,261.331L744.951,257.683L744.966,257.674L745.555,260.412L745.69,261.647L745.745,264.288L746.015,265.718L746.547,266.643L747.882,267.775L748.224,268.587L749.36,269.639L747.088,274.126L746.448,275.083L745.528,275.579L744.662,276.874L744.04,278.65L743.797,280.582L744.112,282.942L744.635,284.997L744.816,287.096L742.201,295.303L741.957,296.516L740.785,299.131L738.107,301.94L732.967,306.041L727.656,308.82L723.436,311.96L723.436,312.86L723.959,314.312L725.023,319.433L725.222,321.238L724.861,323.966L723.959,325.713L721.642,327.728L722.643,329.753L724.158,330.944L725.988,331.518L727.927,331.659L729.676,332.433L732.526,335.803L734.906,337.079L744.176,343.92L745.528,345.506L748.513,351.399L749.423,352.278L751.083,353.054L753.589,356.487L758.81,358.558L763.872,364.253M678.23,379.913L677.973,379.396L678.121,378.332L680.164,373.536L680.083,372.442L678.243,372.176L676.945,371.588L676.201,370.833L675.141,370.423L673.234,368.988L667.495,362.289L667.251,361.874L667.211,361.755L667.143,360.963L667.143,360.266L667.278,359.533L667.427,358.221L667.414,357.888L667.319,357.51L667.184,357.258L665.773,355.983L665.412,355.464L665.177,354.911L664.92,354.633L664.461,354.667L662.418,356.62L662.188,356.969L661.985,357.384L661.837,357.784L661.458,357.877L661.214,357.877L659.533,356.761L657.504,358.458L657.031,359.325L656.922,359.689L656.719,359.981L656.233,360.178L655.362,360.363L652.076,360.133L650.651,359.496L650.367,359.281L650.151,359.007L650.029,358.688L650.083,357.362L649.988,356.987L649.731,356.391L649.785,356.116L649.921,355.89L650.002,355.69L649.785,355.582L648.812,355.556L648.527,355.708L648.23,356.009L648.014,356.806L647.729,357.451L647.364,358.132L646.404,359.007L645.629,359.463L643.086,359.84L642.842,360.022L642.017,362.37L641.909,362.777L641.841,363.2L641.841,363.622L641.936,363.977L642.071,364.288L642.342,364.747L642.436,364.973L642.504,365.258L642.504,365.547L641.693,365.643L637.969,364.007L637.319,363.703L637.089,363.811L636.873,364.044L636.575,364.769L636.395,365.106L636.278,365.465L636.224,365.872L636.449,366.472L636.535,367.227L636.481,368.54L636.088,370.63L635.881,374.586L637.252,377.065L637.238,377.461L637.265,377.911L634.894,380.688L634.623,380.917L634.015,381.246L633.758,381.493L633.568,381.803L633.433,382.187L633.23,383.058L633.108,383.977L633.108,384.431L633.23,385.221L633.338,385.579L633.785,386.416L633.771,386.564L633.392,386.874L633.162,387.124L632.96,387.412L632.811,387.733L632.77,388.072L632.784,388.297L632.676,388.511L632.581,388.651L631.756,389.669L631.621,389.949L631.58,390.163L631.593,390.31L631.621,390.384L631.675,390.447L631.864,390.627L633.352,391.77L633.879,392.05L634.204,392.175L637.238,392.787L637.482,392.75L637.833,392.603L638.117,392.116L638.374,391.814L638.645,391.601L642.261,389.905L642.748,389.897L643.37,390.067L644.492,390.76L645.236,391.615L645.588,391.659L646.115,391.553L648.514,390.624L648.987,390.325L649.096,390.222L649.258,390.185L649.407,390.34L649.691,390.871L650.178,392.013L650.561,392.183L650.867,392.268L652.955,391.49L653.753,391.284L654.064,391.497L654.524,392.065L655.475,392.986L655.998,393.834L656.368,394.254L657.964,395.016L660.723,395.035L660.885,394.033L660.885,393.664L660.831,393.237L660.642,392.5L660.588,392.109L660.579,391.704L660.66,391.291L660.849,390.989L661.106,390.756L661.417,390.583L662.756,390.071L663.554,389.949L663.987,390.071L664.42,390.384L664.88,391.265L665.096,391.818L665.421,392.271L665.845,392.529L666.764,392.632L667.481,392.603L667.738,392.511L668.009,392.352L668.252,392.102L668.469,391.814L668.929,391.645L669.659,391.637L672.95,392.957L674.6,393.922L676.796,394.652L677.242,394.696L678.243,394.563L678.757,394.924L679.19,395.764L679.528,397.937L679.65,399.826L679.65,400.208L679.731,400.389L679.812,400.602L680.642,400.558L681.778,398.092L682.143,397.742L682.332,397.635L684.321,396.965L684.483,396.884L684.659,396.751L684.78,396.615L684.961,396.339L685.123,396.007L685.24,395.469L685.258,394.74L685.051,393.484L685.051,392.64L685.407,391.682L685.732,391.21L686.056,390.856L687.652,389.536L687.855,389.09L688.018,388.537L687.977,387.611L688.018,387.158L688.126,386.704L688.41,386.416L688.978,385.937L689.1,385.649L689.1,385.162L688.369,384.295L687.815,383.804L684.334,382.232L682.698,380.127L681.561,379.522L678.23,379.913Z" style="fill:rgb(52,152,219);fill-rule:nonzero;stroke:rgb(236,240,241);stroke-width:1px;"/>
    </g>
</svg>
