<?xml version="1.0" encoding="utf-8"?>
<!-- Generator: Adobe Illustrator 24.0.0, SVG Export Plug-In . SVG Version: 6.00 Build 0)  -->
<svg version="1.1" id="svg_map" xmlns="http://www.w3.org/2000/svg" xmlns:xlink="http://www.w3.org/1999/xlink" x="0px" y="0px"
	 viewBox="0 0 800 600" style="enable-background:new 0 0 800 600;" xml:space="preserve">
<style type="text/css">
	.st0{fill:none;stroke:#ffffff;stroke-width:6;stroke-linecap:round;stroke-linejoin:round;}
</style>
<g id="Albania">
	<path class="st0" d="M455.6,172.3l-3.4,2.1l-0.1,3l0,1l1.1,4.6l0.2,2.6l0.1,1.2l-0.9,1.6l-3.1,3.1l-1.3,1.8l-1.1,2.4l-0.4,1.9
		l1.1,13.1l0.7,3.8l2.9,8.4l0,1.2l0,0.4l-0.7,1.9l-1.1,1.2l-1.8,1.1l-1.9,0.8l-6.6,1.4l0.5,2.6l-0.4,4.9l0.9,2.7l1.5,0.7l1,1.1
		l1.5,2.8l0.3,0.5l0.4,1.4l0.3,2.9l0.3,1l1,0.8l2.2,0.4l1,0.7l1.6,2.3l0.7,1.8l0.2,0.4l0,2.4l-0.9,3l-1.3,2.4l-1.8,2.2l-1.9,1.2
		l-1.9-0.6l-0.5,3.5l0,0.4l0.7,5.4l2.3,9.7l1.7,4.5l5,7.1l2.1,4.2l0.7,4L456,310l0.9,2.4l2.8,1.3l1.1,0.5l1.8,0.2l1.7-0.1l0.3,0.1
		l1.2,0.2l1.5,1.1l1.4,2.9l2.6,11.7l2.6,10.3l1.9,4.1l1.8,1.5l1.4,1.2l3.4,0.8l2.4-0.9l4.5-3.8l2.6-0.7l0.1,0l7.1,1l6.7,2l2.3,2.2
		l1.1,3.4l0.1,4.7l0.2,8.4l-0.8,3.8l-2.3,2.8l1.3,1.1l0.5,1.3l0.3,1.4l0.6,1.3l3.8,3.7l3.6,4.4l1.4,2.5l0.9,3.1l0.2,3.5l-0.5,3.3
		l-1.4,6.2l-0.2,2l-0.1,1.5l-0.2,1.4l-0.7,1.8l-0.9,1l-1.2,0.7l-1.2,1l-0.9,1.8l-1.7,0.5l-1.4,1l-0.8,1.6l0.1,2.2l-0.4,1l-0.4,0.9
		l-1.3,1.8l-3.4,2.3l-3-0.7L496,423l-3.6,0.1l-1.8,1.2l-0.7,1.5l-0.5,1.7l-1.1,1.8L487,430l-2.8,0.7l-1.2,1.2l-0.2,1.7l0.6,4.8
		l0.1,1.8l-0.5,2.2l-0.6,1.5l-1.5,2.8l-2.1,5.2l-0.4,1l-1.1,0.9l-1.5,0.8l-1.5,1l-1.1,1.7l-0.6,4l0.3,3.5l0,3.6l-1.5,4.2l-0.7,0.6
		l-2,0.6l-0.6,1l-0.1,1.1l0.4,1.9l0,0.9l0.6,3.3l-0.2,0.8l-2,5.7l-0.6,1.2l-1,0.7l-3.3,1.6l-5.1,2.4l-3.4,0.3l-7.1-1.1l-2.5,0.6
		l-2.1,1.2l-4.5-0.5l-2.6,1.2l-1.8,2.1l-1.5,2.8l-1.1,3.1l-0.6,3.2l-2.2,0.5l-6.7,0.2l-1.6,0.5l0.7,1.4l2,10.7l0.7,1.1l3.2,3.2
		l6.2,10.3l0.5,3l-1.1,3.5l-2.3,2.4L427,544l-2.4-1.4l-5-1.9l-0.2-0.1l-1.3-0.2l-1.1,0.5l-0.9,1.3l0.3,0.7l0.8,0.7l0.4,1.4l-0.2,0.9
		l-0.8,2.1l-0.2,0.5l0.3,0.6l1,1.2l0.2,0.5l0.5,1.5l0.7,0.8l0.4,0.9l-0.4,1.9l-1.9,2.3l-2.5,1.5l-2,2l-0.4,3.8l-1.2-0.7l-1.2-0.4
		h-1.1l-1.1,0.4l-1.1,1.2l-0.2,1.3l0.1,1.3l-0.5,0.9L404,570l-2.7-1.3l-3.8-3.5l-6.2-3.3l-5.4-1.7l-4.5-1.5l-2.2,1.4l-0.4,0.2
		l-0.1,1h-0.9l-0.7-2.6l0.5-2.9l2.1-5.3l-2.3-1l-0.7-0.6l2-4.5l2.5-8.8l0.3-2.1l-0.9-3.6l-1.4-1l-2.1-0.2l-3-1.1l-0.2-0.4l0-0.7
		l-0.2-0.8l-0.5-0.6l-1.8-1.1l-1.3-0.5l-2.3-0.1l-1-0.7v-1.1l2-2.5l1.3-1.3l1.4-1l-2.3-2.3l-6.3-12.2l-0.9-2.2l-0.9-1.9l-1.1-0.8
		l-4.3-0.1l-2.1-0.4l-1.5-0.8l1.1-1.1l-3.7-2.5l-0.6,1.2l-0.2,0.5l-0.2,0.9l-0.4-1.6l-0.6-0.8l-0.8-0.5l-0.9-0.8l-0.2-0.7l-1-2.1
		l-1.1-1.7l-0.5,0.4l-1.3-1.4l-8.9-2.9l-7.5-4.5l-4.3-3.9l-7.6-2.6l-4.5-3.4l-12.8-14.4l-1.5-2.4l-0.7-1.5l-1.8-7.9l-1-2.2l-4.7-4.7
		l-1.7-2.3l-0.2-0.7v-0.2l-0.8-0.3V431l3.6-1.9l2.2-0.2l2.1,1.5l4.8,5.9l1.3,2l1.8,4.2l0.7,2.6l0.3,2.4l1.3,0.8l2.8-0.7l2.8-1.4
		l1.3-1.2l0.9-16l-0.4-2.6l-3.5-2l-4.6-4.7l-3.7-5.3l-0.7-3.8l0.9,1.1l0.4,1.3l0.4,1.5l1.1-0.3h1l2.6,3l1.7-0.9l0.9-3.3l0.3-4.3
		l-1.7-3.4l-3.6-1.8l-3.2,0.9l-0.7,4.9l-1-2.7l-9.4-13.9l-0.7-1.6l0.7-2.1l1.8-1.7l2.2-1.6l1.7-1.8l1.2-2.8l0.5-3l0.1-10.6l0.4-2.9
		l1.2-1.9l2.5-0.7l1.4-0.7l-0.4-1.5l-1-1.7l-0.5-1.1l0.6-1.4l1-1.4l0.9-1.1l0.4-0.3l-1.1-2l-2-2.7l-1.3-2.3l1.2-1l2-0.8l2.6-3.8
		l2.2-1.6l-1.9,2.1l1.1,4.2l-1.1,3.6v3.8h1l0.4-2.5l0,0.6l0.2,0.6l0.2,1.4l1.8-2.4l7.1-3.4l2.3-2.8l0.2-4.4l-1.4-3.5l-1.8-3.2
		l-0.8-3.5l-0.5,4.6l-1.7,4.1l-3.5,5.3l-0.1-0.8l-0.8-1.1l1.4-1.5l1.5-2.5l1-3.3l-0.3-3.7l-0.7-0.9l-2.2-0.9l-0.8-0.6l-1-2l0.1-1
		l0.6-0.8l1.5-13.6l-0.7-2.9l-0.8-1.2l-0.6-1.4l0.1-1.2l2.9-1.3l0.5-2v-2.4l0.2-2l5.5-8.9l1-3.4l-0.4-3.6l-1.4-3.1l-2-2.2l-2.2-0.8
		h-2.9l-2.5-0.5l-1.7-1.6l-0.6-3.4v-7.4l-0.5-1.6l-2-1.9l-0.4-2.1l1.8,2.4l3-0.2l2.2-2.5l-0.6-4.6l3.2-1.8l3.3-2.7l2.6-3.7l1.1-4.8
		l-0.3-3l-0.9-1.1l-1.5-0.4l-1.9-0.9l-1.9-1.9l-2.2-3.7l-1.5-1.9l11.7,1.6l3.8-1.2l1.2-0.4l2.6-6.2h0.9l0.1,2l0.5,1.1l0.9,0.2
		l1.3-0.6l-1.1-4.8l-0.7-1.3l-1.1,1.2l-0.6-1.5l-4-3.6l2.8-4.9l-0.2-5.6l-0.7-6l0-3.3l2.5,0.9l1.3-2.4l0.1-3.8l-1.1-3.4l-0.9,0
		l-16.1-6.7l-1.9-1.3l-2.5-1.1l-9.1,2.9l-0.1-1.9l0.1-4.7l-1.1-1.9l-1.3-1.2l-0.3-0.7l0.1-0.7l-0.1-1.2l0.2-0.9l0.5-0.9l0.3-1.3
		l-0.9-4.2l0.7-0.7l1.1-0.1l0.8-0.7l0.7-3.1l-1-1.3l0,0l-1.2-2.7l-0.5-3.5l0.2-3.6l0.7-3.1l2.5-5.4l-0.3-1.7l-0.3-0.4l-2-2.5
		l-7.7-5.7l-2.1-2.3l0,0l-1.3-2.9l0.4-1.9l4-4.3l12.9-20.2l0.1-0.9l-0.1-2.5l0.3-1.3l1.3-3l0.7-1l6.9-8l1.8-3l2.7-1.8l2.2-2.5
		l1.9-3.1l1.6-3.4v0l0.8-2.7l1.6-1.4l1.9-1.1l1.7-1.9l0.8-2.2l0.8-4.8l0.8-2.5l2.3-3.7l3.5-4.2l1.4-1.2l2.4-2.2l3.1-1.5l3.1,1.6
		l2.1,4l1.1,4.7l0.1,1.8l0.1,1.8l-0.2-0.2l-0.6,1l-1,2.2l-0.2,1.3l-0.3,2.8l0.1,1.2l0.5,1.7l2.3,5.7l4.4,3.4l2.3,1.2l2.5,0.3
		l1.3-0.4l0.9-0.3l5.1-3l1.2-1.2l0,0l3.3-2.3l6.6,0.2l3.4-1l4.8-6.5l2.9-2.1l3.5,2l2.8,3.1l6.7,3.7l2.3,2.9h0v0l0,0l3.8,9.2l0.7,1
		l1.8,1.8l0.7,1.4l0,1.5l-1.4,2.1l-0.2,1.2l0.6,1.1l2.1,1.8l0.8,1.1l0.3,1.4l-0.2,2.5L409,87l1.2,3l1.1,1.2l1.6,0.2l9.2-0.2l2.1,0.4
		l16.7,12.3l2.2,2.4l1.1,1.2l2.6,3.5l5.1,11.1l1.4,4.8l0.3,3.2l0,5.8l0.8,3.4l4.2,11.1l0.6,3.6l0.7,2.4v2.3l-1.4,3.3l-1.1,1.4
		l-1,0.7l-0.8,1l-0.6,2.2l0,1.3l0.7,2.2L455.6,172.3z"/>
</g>
</svg>
