<?xml version="1.0" encoding="utf-8"?>
<!-- Generator: Adobe Illustrator 24.0.0, SVG Export Plug-In . SVG Version: 6.00 Build 0)  -->
<svg version="1.1" id="svg_map" xmlns="http://www.w3.org/2000/svg" xmlns:xlink="http://www.w3.org/1999/xlink" x="0px" y="0px"
	 viewBox="0 0 800 600" style="enable-background:new 0 0 800 600;" xml:space="preserve">
<style type="text/css">
	.st0{fill:none;stroke:#ffffff;stroke-width:6;stroke-linecap:round;stroke-linejoin:round;}
</style>
<g id="Bosnia_and_Herzegovina">
	<path class="st0" d="M398,505.6L398,505.6l-13.8-8.5l2.5,0.1l3.9,1.8l2.4,0.7l-2.1-2.1l-3.2-1.9l7.7-1.6l4-3l-0.5-5.4l0,0l0,0l0,0
		l-4.4-10.3l-4.3-5.1l-1.5-1.8l-19.5-12.9l-1.3-0.8l-2.2-2.6l-1.7-3.8l-1.2-4l-0.9-2.1l-1.5-1.4l-2.9-1.9l-5.8-5.4l-5.5-8.4
		l-3.2-9.8l2.7-16.5l-2.3-5.1l-4.4-3l-13.8-2.1l-8.3-4.7l-3.2-2.9l-4.5-4.1l-6.9-8.1l-22.6-23.2l-15.9-12.7l-2-3.3l-1.2-4.2L260,322
		l-1.1-2.9l-5.9-5.5l-4.6-6.5l-7-7.2l-4-6l-1.6-2.3l-2.2-2.6l-2.5-1.9l-6.3-2.3l-1.2-2.3l-0.6-2.9l-1.8-3l-1.4-0.6l-3.7,0.3
		l-1.5-0.2l-1.4-0.8l-1.6-1.3l-2.7-2.8l-2.1-3.5l-3.2-7.8l-2.1-3.6l-6.2-6.7l-2.3-3.4l-2.7-8.6l-1.4-6.2l-0.1-3l0.4-2.2l1.4-3.2
		l0.5-1.7l0.4-3.3l0-0.1L191,216l-1.5-1.5l-3-1.9l-2.6-0.7l-1.6-0.1l-0.5,0.6l0.1-1.6l0.9-0.8l1.2-0.8l0.9-1.4l0-3.1l-1-3.8
		l-3.5-9.8l-0.8-3.9l-0.9-3.5l-1.7-2.2l-3-0.5l-5.2,2.3l-2.9-0.4l-2.9-3.2l1.1-3.2l2.4-3l0.6-2.6l1.2-0.6l0.2-0.2l-0.5-2.7l-0.7-2.5
		l-1.1-1.9l-1.8-0.9l-3.5-0.5l-1.8-0.6l-1.4-1l-1.9-2.8l-1.1-5l-1.5-2.2l-1.1-0.1l-1.2,0.7l-1.2,0.3l-1.1-1.1l-0.5-1.7l-0.4-2.1
		l-0.5-1.9l-1-1.1l-1.8-0.1l-1,1.3l-0.8,1.7l-1.1,1.3l-1.2,0.4l-2.6,0.2l-1.4,0.5l-2.1,0.3l-1.2-1.3l-0.9-2l-1.1-1.8l-3.4-2.3
		l-0.8-1l-3.6-6l-1.6-3.5l-0.2-3.4l2.1-2.8l2.9-0.9l2.5-1.2l0.7-3.6l-1.3-3.8l-2.3-3.6l-2-4l-0.5-5.1l0.5-1.5l0.7-2.1l3.5-6.2
		l0.5-3.6l-1.7-6.1l0.1-3.8l3.3-8.7l0.6-3.1l-0.5-12l0.1-1.6l1.6-4.4l1.5-1.4l3.2-2.9l7.7-1.3l13.7,0.4l3.3-0.6l1.6,0.1l1.7,0.9
		l1.3,1.8l-0.1,1.8l-0.5,1.5l-0.1,0.9l1.2,0.9l3.1,0.7l1.8,1.4l2.2,3.6l3,7.9l2.5,3.3l13.1,13.1l4,2.5l5.4,2.4l5.3,1.2l3.5-0.9
		l0.8-2.8l1.6-5.8l2.9-5.4l0.7-1.6l0.3-2.4l-0.3-1.3l0-1.1l1.1-1.9l1.3-0.9l3.7-1.2l1.5-1.1l1.9-3.1l4.7-10.4l6.7-4.6l8.3,0.3
		l28.4,8.5l3.6-0.5l1.8-1.6l0.2-1.5l-0.1-1.8l0.8-2.4l1.4-1.4l1.6-0.7l1.4-1l0.8-2.3l1.1-0.7l1.5-1.7l1.2-1.7l0.4-0.9L294,30
		l1.2,1.2l1.1,4.3l0.2,1.6l-0.1,1.7l0.8,1.1l2.9-0.3l-0.4-1.4l-0.6-1.4l2.1,0.8l1.7,2.2l1.5,1l1.4-2.6l0.5,1.6l0.2,1.2l-0.1,1.2
		l-0.6,1.7l0.9-0.7l2.3-1.5l0.9-0.7l2.8,6.1l6.1,4.6l3.7,1.7l8.9,4.1l1.5-0.9l6.8-0.5l0.6-0.9l2.7-6l5.5,3.7l2.7,1.1l4.7,3.1
		l1.3,1.1l2,1.1l2.6-0.3l4.7-1.5l0.3-0.7l0.4-1.3l0.6-0.8l1.1,0.7l0.8,1.3l0.2,1.2l-0.4,1.1l-1,1.3l1.8,0.6l1.7-0.3l3.4-1.8
		l-1.3,4.2l-0.7,1.3l1.1-0.4l7.2-1l3.1,0.3l1.6-0.2l2.9-1.9l5.3-5.6l3.1-1.6l4.7,0.3l4.2,2.4l3.8,3.8l8,10.4l2.6,2.4l2.9,1.2
		l1.4-0.2l4.2-1.8l3.9-0.8l1.2-0.7l2.4-2.2l8.7-10.5l2.1-1.1l2.2,0l2.3,1.2l7.9,7.1l3.2,1.5l2.8,0.6l1.7,0l1.4,0l3-0.6l2.5-1.6
		l1-2.1L476,61l0.3-2.5l1.6-2l3.5-0.7l3.4,1.4l6.5,4.7l2.1,0.9l10.1,0.9l2.7,1.3l2.5,2.1l3.2,3.5l2,2.2l2.2,1.4l1.3,0.8l3.7,1.4
		l3.4,0.1l-0.3-2.8l-0.7-2.5l0.1-1.4l0-0.4l2.1-0.9l1.2,0.1l2.3,0.6l1.2,0l1-0.4l2-1.2l0.9-0.2l1.1,0.5l0.6,0.9l1,2.6l0.8,1.6l1,1.3
		l1.2,0.5l1.3-0.7l0.4-1l0.3-1.2l0.4-1.2l0.8-0.8l1-0.1l0.8,0.5l0.7,0.9l5.3,10.9l1.7,2.1l1.7,0.7l4,0.4l1,0.4l0.6,0.6l0.4,0.8
		l0.4,1.2l0.1,0.4V90l0.1,0.6l0.3,0.6l0.7,1l0.2,0.7l-0.4,2l-3.1,2.4l-1,2l1.5,5.8l4.9,5.3l3.5,2.3l2.4,1.6l4.4,1.5l12.2-0.3
		l4.3-0.1l1.5-0.5l4.6-1.4l2.9-0.4l2.3-0.8l12.8-9.4l1.8-0.4l0.9,1.2l0.5,1.7l0.7,1h1.4l2.5-1.1l1.4-0.3l6.3,1.4l1.3-0.2l1.2-0.6
		h1.3l2.9,2.7l1.4,0.5l1.4-0.2l0.4-0.2l0-0.2l0.5,0.6l0.8,1l0.8,0.8l0.6,1.1l0.4,1.7l0.1,2l-0.5,0.6l-0.8,0.2l-0.6,0.9l-5,24.3
		l-1.5,3.7l-1.4,2.1l-2.9,2.4l-1.5,1.6l-1.1,1.9l-2,6l-6.7,11.5l-0.6,0.7l-1.5,0.9l-0.7,0.9l-0.3,1.3l0.1,3.2l-0.3,1.4l-0.8,1.6
		l-0.9,1.4l-1.1,1l-5,1.7l-0.4,3.2l2.3,8.9l-0.3,5.5l-1.7,2.9l-2,2.5l-1.2,4.2l0.3,3.8l1.1,4l3.2,6.9l2.6,3.1l2.9,1.3l6.1,1.3
		l2.9,1.5l1.3,0.4l2,0.1l4.6-1.1l1.6,0.3l2.4,2l2.5,3.6l1.8,4.3l0.3,4l0.9,2.6l2.7,2.8l6.2,4.6l1.5,1.5l1,0.6l0.8-0.2l1.6-1.6l0.9,0
		l1.2,1.6l0.3,3.6l0.9,1.3l2.2,2.1l2.6,3.8l0.8,1.2l4.6,2.7l2.3,2.9l1.3,1.1l0.5-0.6l0.9-1.2l1.3-0.5l1.8,1.6l1.1,3.7l-1.2,3.3
		l-2.4,2.7l-5.9,4.4l-3.4,1.2l-3.5,0.3l-8.1-0.8l-7.6,0.5l-2.1,0.6l-2.1,0.1l-1.8-1.2l-3.7-3.5l-3.6-2.6l-1.9-0.7l-2.1,0.1l-2.9,1
		l-1.2,1.1l-0.8,1.9l0,1.4l0.7,2.5l-0.3,1.4l-1.6,1.6l1.7,1.1l4.9,3.8l4.3,5.6l7.6,12.4l14.6,15.8l2.9,6.5l3.4,11l0.2,5.2l-3.7,3.6
		l-0.6,2.4l-0.3,2.8l0.2,2.7l0.7,2.1l1,1l0.4,0.9l-0.3,0.8l-1.1,0.7l-5.4-2.2l-1.7,0.1l-1.8,4.3l-1.2,1.7l-1.1-1.8l-1.2-3.3l-2-3.8
		l-2.4-3.2l-2.4-1.4l-1.5,0.5l-3.3,2.6l-1.7,1l-1.7,0.1l-3.6-0.6l-1.6,0.5l-2,3.3l-1.3,4.4l-1.7,3.3H618l-6.8-1.1l-3.6,0.4l-3.8,4.5
		l-2.8,1.1L598,385l-2.4-0.8l-1.9-2.4l-1.5-2.9l-2-2l-3.2,0.3l-2.1,1.6l-3.4,3.8l-2.6,1.3l-1.4,1l-0.8,1.6l0.1,1.7l1.4,1l2.2,0.6
		l1,0.7l1.9,3l-0.1,1.3l-0.6,1.6l0,1l3.1-0.8l1,0.8l4.9,6.5l4.2,11.8l4.3,8.2l-1,0.9l-3.7,0.2l-1.7,0.9l-0.3,0.4l-0.8,1.1l-0.9,1.7
		l-1.1,1.6l-1.5,1.3l-0.4-1l-0.1-0.2l-2.9-3.8l-1.3-2.2l-0.3-1.6l0.1-1.4l-0.1-1.3l-1-1.4l-3.8-2.7l-3.5-1l-8.5,0.8l-2.6,1.3
		l0.5,0.8l0.8,1.8l0.5,0.8l-3.8,1.2l-18.2,13.4l-2.2,3.2l3.4,1.7l-6.1,8.7l-2.3,4.9l-1.1,5.9l-0.1,0.4l0.1,5.1l2.6,14.9l-5.8-0.8
		l-8.5,0.1l-8,1.8l-4.3,4.1l-2.7,7.6l0.1,3.4l1.4,3.9l3.4,6.8l0.8,3.7l-1,1.9l-1.8,1.4l-1.4,2.2l0.1,3.4l1.3,4.7l1.9,4.7l5,8.1
		l2.9,3l2.4,3.2l1.5,5.3l-0.1,5.7l-1,2.4l-0.6,1.6l-3,3l-1.5,0.9l-2.9,1.7l1,1.9l0.3,1.7l-0.5,1.2l-1.5,0.2l-1.6-1l-1.7-0.1
		l-1.6,0.7l-1.5,1.4l-2.3-0.9l-5.1-0.6l-2.1-1.4l-0.1-0.1l-2.9-4.2l-1.6-1.2l-3.9,0.3l-7.8-2.7l-4.7-2.6l-24.9-16.8l-7.7-5l-3.3-2.8
		l-6.1-7l-3.5-2.7l-5-1.4l-1.6-1l-4.5-7l-0.3-2.2l0.2-4.7l-0.4-1.9l-1.7-2.2l-1.3,0l-1.1,1l-1.1,0.6l-3-0.5l-6-2.4l-3.1-0.6
		l-3.2,0.7l-1.9,2L398,505.6z"/>
</g>
</svg>
