<?xml version="1.0" encoding="utf-8"?>
<!-- Generator: Adobe Illustrator 24.0.0, SVG Export Plug-In . SVG Version: 6.00 Build 0)  -->
<svg version="1.1" id="svg_map" xmlns="http://www.w3.org/2000/svg" xmlns:xlink="http://www.w3.org/1999/xlink" x="0px" y="0px"
	 viewBox="0 0 800 600" style="enable-background:new 0 0 800 600;" xml:space="preserve">
<style type="text/css">
	.st0{fill:none;stroke:#ffffff;stroke-width:6;stroke-linecap:round;stroke-linejoin:round;}
</style>
<g id="Belgium">
	<path class="st0" d="M69.4,142.2l3.5-2.5l6.5-2.2l23.3-17.7l35.7-21.1l34.5-22.8l38.5-12.5l0.1,0l1.5,10.6l-0.7,6.8l-0.1,6.4
		l2.4,6.9l4.2,4.6l1.2,0.6l4,1.8l5.5,0.6l8.1-1.3l0.5-2.6l-0.4-3.5l0.3-3.2l1.9-1.9l2.5-0.6l2.8-0.2l6.8-1.5l4.2-0.2l4.4,0.7l21,7
		l3.2,2.1l0.9,3.6l-0.3,3l0.3,2.9l2.6,3l2.1,0.9l20.3-0.3l3.8-1.2l7.8-6.2l21.3-10.7l8.5-6.7l6.8-9.3l1-2.7l1.3-6.4l0.1-1.2l0.1,0.1
		l3.2,3.1l1.4,2.7l1.2,5l2.8,3.5l3.1,2.7l2.1,2.7l0.6,1.7l0.3,1.7l-0.5,1.9l-1.2,1.9l-0.3,0.6l2-1l1.4-1.5l2.5-5.3l-5.8-2.5
		l-1.3-1.1l-0.7-2.4l0.1-5.9l-0.5-2.9l-1.3-2.2l-2.5-3.1l3.4,0.1l1.5,0.1l6.2,3.4l3.3,1.1l8,0.5l3.3-1.7l0.9-4.7l-1-2.7l-3.8-4.6
		l-1.3-2.5l0.1-2.8l1.1-2.1l0.4-2l-2.1-2.3l9-5.3L406,36l5.1-0.8l2.2,0.4l1.4,2.3l-0.2,4.6l-1.5,3.4l-0.3,2.7l3.3,2.4l2.3,0.2
		l4.9-0.9l5.5,1.4l2.7-0.2l2.3-0.9l1.8-1.3l13.3-16.4l5.7-2.9l2.5,0.2l3.1,1.2l2.9,1.9l1.8,2.3l0.4,4.2l-1.1,4L463,48l1.2,4.8
		l-7.5-3.5l-1.9,0.3l-1,3.3l3.6,1.6l12,0.4l3.2,0.9l6.6,3.1l3.7-1l4.3-4.2l4-5.4l2.7-4.5l1.2-3.4l0.6-2.6l1-1.7l2.6-0.7l0.5,0.7
		l5.1,3.4l3.4,6.5l-0.6,4.6l-1.9,4.4l-0.6,6l1.1,2.7l5.9,6.6l0.9,2.4l1.8,6.1l0.8,1.8l3,1.6l6.6-0.6l3.2,0.3l3,3.8l0.1,9.8l3,0.8
		l1.1-0.3l5.4-1.3l20.3,0.9l3.6-1.3l7.2-5.1l3.4-1.6l3.7,0.4l4,2.6l3.2,4.2l1.2,5.3l0.5,6.2l1,0.9l2.9,2.5l9.7,2.9l2.3,1.6l1.7,1.9
		l1.9,1.3l2.9,0l7.2-1.5l2.2,0.2l2.8,1.7l3.6,5l2.3,1.9l5.3-1.3l2.9,0.2l1.5,3.5l0.4,1.3l-2.4,2.4l-0.5,3.1l3.9,4.2l-1.6,1.1
		l-1.7,0.7l-1.8,0.3l-1.9-0.2l0.4,2l0.3,0.8l0.5,1.1l-1.3,3.7l-0.9,1.9l-1.3,1.8l-2-1.7l-1.4,0.9l-0.9,2.6l-0.4,3.6l2.3,3.2
		l-2.7,6.7l-6.8,10.8l3.8-1l1.7,0l1.7,1l-2,3.3l-3,6.3l-2.2,3.3l-0.8,0.7l-2,0.7l-2,0.8l-12.4,13.9l0.4,6.1l2.8,4.1l2.9,2l1,0.7
		l3.7,1.8l2.7,0.8l-0.3,3.2l-1.8,6.2l3.1,1.8l1.9,0.4l1.8-0.4l0.8-1.3l1.8-2.8l1.5-1.2l1.7,0.7l3.5,3.9l1.8,1.2l14.9-0.4l2,0.6
		l1.9,0.6l12.5,0.4l3.5-0.6l-0.3,0.5l-0.1,0.5l0,0.5l0.2,0.5l2.9,1.5l0.1,2.6l-0.6,2.9l0.7,2.3l2.3,0.3l6.8-1.9l2.9,0.3l3.3,3.3
		l10.4,16l-2.3,1.5l2,3.9l3.5,1.9l11.8,0.3l0.4,1.6l-1.2,2.4l-2,2.4v1l-3.8,2.3l-5.4,4.5l-3.2,5l2.9,3.6l-1.3,2.1l0.2,1.2l1.4,0.6
		l2,0.2l-1.4,2.3l1.4,1.3l1.5,3.1l1.4,1.1l1.7,0.1l5.8-1.8l0.4-0.4l0.4-0.1l0.4,0.1l0.4,0.4l2.6,1.3l7.4,1.7l3.1,0.2l-1.9,1.9
		l-0.4,2.2l0.5,2.4l0.9,2.7l1.5,2.4l1.2,0.2l0.7,0.9l-0.1,4.5l-1.2,6.3l-1.2,3.6l0.2,3.2l6,10.4l0.2,1.7l0.2,2l-2.1,2.3l-4.6,0.8
		l-2.3-0.4l-2-0.8l-1.9-0.2l-2.3,1.3l-1.7,2.1l-1.1,2.6l-0.4,2.7l0.8,2.4l-3.2,2.9l-7.4,2.1l-3.6,1.7l-1.7,2.6l-3.9,2.8l-1.8,2.3
		l2.3,2.5l1,3l-0.1,3l-1,2.5l-1.3,0.8l-3.4,0.3l-1.5,0.9l-0.3,0.9l-0.6,3l-0.4,1.3l1.7,1.4l0.6,1.6l-0.5,1.8l-1.6,1.8l-2.6-1.1
		l-0.4-2.1l0.2-2.5l-0.7-2.5l-2.2-2.1l-1.3,0.2l-1.1,1.2l-1.5,0.9l-3.9,0.6L671,396l-0.8-0.4l-1.5-0.7l-1-2l-0.6-2.6l-1.1-1.2
		l-2.6,2.1l-3.7,0.4l-1.5,2.5l-0.7,3.7l-1.4,3.8l-2.6,2.7l-6.4,3.1l-2.8,2.6l-0.6,1.7l-0.3,4.3l-0.4,1.8l-1,1.5l-2.5,2.2l-1,1.7
		l0.2,3.1v2.5l-0.4,2.1l-1.2,1.3l-3.5,1.5l-1.1,1.4l-0.2,3.7l1.2,1.5l0.7,1.5l-1.9,3.7l-1.4,1.3l-2.5,0.6l-1.2,0.8l-1.3,1.8
		l-0.6,1.4l-0.4,1.4l-0.7,1.7l-5.9,10.3l-0.7,2.5l2,1l3.8,2.9l1.6,2.4l-4.5-0.5l0,1.5l-0.2,0.8l-0.3,0.6l-0.3,1l1.7,1.5l-2,1.4
		l-0.8,2.5l0.2,3.2l1,3.3l1.8,3l1.7,0.9l1.8,0.3l2.2,1.3l1.1,1.7l4,8l0.3,1.2l0.4,3.7l-0.1,0.6l1.1,0.9l2.4,0.7l1,0.6l1,0.2l1.1-0.4
		l1.1,0.1l1,1.6l0.1,0.6l0.2,1.4l-0.6,1.1l-0.8,0.9l-0.3,1.5l-0.1,1.7l-0.5,0.8l-0.2,0.9l0.6,1.9l1.2,0.9l3.4,0.4l1.2,1.1l1,3.8
		l-1,2.3l-1.7,1.6l-1.4,1.6l-2.2,6.1l-1.4,2.7l-1.9,1.8l2.9,1.6l-1.6,4.1l-3.9,4.2l-4.1,2l-2-0.5l-3.8-2.3l-1.8-0.3l-1.8,1l-2.2,2.9
		l-2.1,0.9l-3.7-0.6l-3.7-1.8l-3.9-0.9l-4.3,2.2l-2,2.8l-0.4,1.9l-0.6,1.1l-2.5,0.3l-1.5-0.4l-5.4-2.5l-3.2,1.4l-4.3,3.4l-4.4,2.6
		l-3.7-1l-1.1-2.3l0.2-2.4l0.5-2.5l0-2.8l-0.7-2.4l-8.3-15l-1.9-1.7l-1.3-1.2l-5.3-2l-2-1.2l-1.1-0.2l-0.6,0.7l-0.7,1.5l-0.9,1.3
		l-1.2,0.4l-2.9-0.6l-0.8-1l-0.4-2.4l0.5-3.8l1.4-0.9l0.8-1l-1.2-4l-3.3-4.1l-3.6-3.6l-3.7,0.1l-7.8,2.2l-4-1.2l-3.1-2.3l-2.6-2.5
		l-7.3-10.6l-2-2l-6.1-1.8l-3.4-2l-6.4-6.3l-3.1-1.7l-0.5,0l-3.2,0.2l-7.5,2.6l-3.8,0.6l-4.5-0.6l-1.5-2l0-10l-0.4-1.6l-1.7-2.8
		l-0.4-1.3l0.3-1.6l1.5-1.8l0.6-1.4l0.9-3.3l0.9-2.2l0.4-2.3l-0.3-3.5l-2.7-4.9l-8.1-3.3l-2.3-3.7l0.7-4.3l6.6-16.5l0.2-2.9
		l-0.3-2.2l0.2-2.4l3.2-7.1l1-0.2l1.8,2l0.4-4.7l0.9-5.5l0.2-4.7l-1.6-2.1l-5.4,1.1l-1.9-0.8l-0.8-4l-4.6,2.1l-18.3,18.6l-1,2.1
		l-0.5,2.6l0.4,1.6l0.6,1.3l0.2,1.8l-1.3,8.5l-1.2,4.2l-1.6,3l-1.9,1.2l-7.1,1.1l-23.9,11.9l-5.1,0.9l-1.3-0.4l-25.8-7.1l-10.6,1.5
		l-2.5,0.4l-2.3-0.7l-9.6-5.2l0.1,0l1.2,0.1l-0.2-3.9l-0.9-4.1l-0.8-0.3l0.7-3.1l0.9-2l1.2-1.5l3.1-2.9l4-2.8l4.1-2.1l0.1-1.8
		L358,416l-1-2.5l-2.9-11.5l-1.7-0.9l-1.8,0.3l-3.4,1.6l-2.4-1.2l0.4-4.8l3.3-10.7l0.9-4.9l0.8-2.2l1.8-2.6l4-3.2l1.7-1.9l0.4-2.8
		l-1-1.7l-2.1-1.9l-2.3-1.5l-1.5-0.6l-2.1,0.9l-0.1,1.7l0.2,1.8l-1.3,1.2l-3.2-1.5l-4.7-10.1l-3.5-3.2l-3.7-2.1l-5.7-6.3l-3.3-1.6
		l-3.6,0.4l-10.9,4.6l-3.9,0l-3.1-1.5l-2.9-2.1l-3.5-1.8l-7.1-0.9l-7.5,0.6l-2.3,0.9l-1.4,1.6l-3.1,5.3l-0.7,2.2l-0.5,0.8l-0.8,0.5
		l-0.3-0.3l-0.2,0.2L271,356l-6-5.7l-1.5-11l0-12.6l-1.5-10.4l-2.8-5.1l-3.4-3.3l-3.8-1.9l-3.9-0.8l-11.1-0.1l-2.1-1.6l1.7-3
		l0.3-2.2l-1.1-1.4l-2.5-0.8l-2.4,0.2l-1.8,1.2l-1.7,1.7l-2.3,1.8l-7.5,2.7l-4.2,0.5l-3-0.9l-7.5-3.9l-2.3-1.8l-2.7-3.5l-0.9-3.1
		l-0.3-8.6l-4.5-15.2l-1.4-7.8l2.4-4.5l-2-6.5l-1.4-2.5l-2.3-0.8l-2.4-0.3l-1.4-1.6l-2.1-5.2l-2.4-4.3l-2.9-5.1l-2.9-2.8l-4.5-1.4
		l-13.6,4.3l-9,2.8l-4,2.5l-3.1,3.4l-5.2,9l-2.3,1.8l-2.7-0.6l-0.8-0.4l-13.7-6.3l-3.2-2.7l-0.9-1.7l-2.3-5.5l-1-1.8l-6.4-6.1
		l-1.1-2l-0.5-1.8l-0.9-1.6l-2.3-1.2l-1.6-0.2l-3.2,0.4l-1.4-0.1l-2.5-0.5l-1.3-0.6l-0.9-1.5l-1.5-3.4l-0.8-0.9l-2.1-1.1l-0.6-0.9
		l0.2-1.3l1.3-3l0.2-1.8l-3.4-11.9l1-2.5l4-4l1-1.6l-0.6-5.4l-2.7-4.1l-6.1-6.8l-1.7-5.3l-1.7-12L69.4,142.2z"/>
</g>
</svg>
