<?xml version="1.0" encoding="utf-8"?>
<!-- Generator: Adobe Illustrator 24.0.0, SVG Export Plug-In . SVG Version: 6.00 Build 0)  -->
<svg version="1.1" id="svg_map" xmlns="http://www.w3.org/2000/svg" xmlns:xlink="http://www.w3.org/1999/xlink" x="0px" y="0px"
	 viewBox="0 0 1920 684" style="enable-background:new 0 0 1920 684;" xml:space="preserve">
<style type="text/css">
	.st0{fill:none;stroke:#ffffff;stroke-width:6;stroke-linecap:round;stroke-linejoin:round;}
</style>
<path id="AL" class="st0" d="M150.4,45.7l6.9,5.5l27.6,40l19.3,6.9l26.2,17.9l19.3,44.1l1.4,30.3l-6.9,35.8l4.1,28.9l-11,11
	l9.6,27.6l2.8,26.2l16.5,30.3l16.5,15.2l17.9,33.1l22-2.8l17.9,15.2V426l15.2,24.8l-11,35.8l-23.4,11l-16.5,42.7l-4.1,27.6l-8.3,6.9
	l-26.2,4.1l-23.4,17.9l13.8,30.3l-12.4,9.6l-4.1,20.7l-9.6,9.6l-37.2-12.4l-9.6-34.4l-23.4-37.2l-67.5-35.8L76,532.1l5.5-20.7
	l-1.4-19.3l-19.3-33.1l4.1-35.8L76,393l-4.1-37.2l1.4-28.9l-9.6-40l6.9-28.9L82.9,240l-2.8-30.3l-20.7-15.2l-22-2.8v-42.7l-4.1-8.3
	h23.4l-23.4-38.6l44.1-73l15.2,4.1l11,28.9L150.4,45.7L150.4,45.7z"/>
</svg>
