<?xml version="1.0" encoding="utf-8"?>
<!-- Generator: Adobe Illustrator 24.0.0, SVG Export Plug-In . SVG Version: 6.00 Build 0)  -->
<svg version="1.1" id="svg_map" xmlns="http://www.w3.org/2000/svg" xmlns:xlink="http://www.w3.org/1999/xlink" x="0px" y="0px"
	 viewBox="0 0 800 600" style="enable-background:new 0 0 800 600;" xml:space="preserve">
<style type="text/css">
	.st0{fill:none;stroke:#ffffff;stroke-width:6;stroke-linecap:round;stroke-linejoin:round;}
</style>
<g id="Austria">
	<path class="st0" d="M750.3,170.1l0.9,6.9l-0.5,1.8l-0.2,0.7l-1.6,1.7l-1.6,1.3l-0.7,1.4l-0.5,1.9l-2.5,3.7l-1,2l-0.4,2.1l-0.9,7.8
		l-0.3,0.9l-0.2,0.4l-0.2,0.7l-0.1,1.6l0.3,0.9l0.8,0.5l2,0.2l0.6,0.3l1,0.8l1,1.1l0.4,1.2l-0.2,0.6l-0.4,0.8l-0.2,0.7l0.4,0.3
		l0.3,0.3l0.3,0.7l0.3,0.8l0.1,0.7l0.3,0.9l0.7,0.5l0.9,0.4l1.1,1l0.6,0.2l0.4,0.5l0.1,0.6l-0.1,1.7l0,0.7l1.5,5.2l0.5,2.6l0,3.2
		l0.7,2.3l2.4,2.7l1.3,0.8l1.6,0.2l1,0.7l1.5,2.7l0.5,0.8l1.3,1.4l-1,1.2l-0.5,1.5l-0.6,2.7l0.4,0.2l1.2,1l-0.5,2.4l2.2,1.2l3.1,1.1
		l2.3,2l-6.1,5.1l1,1.2l0,0.9l-0.5,0.9l-0.3,1.2L764,267l-0.9,0.6l-0.3,0.4l0.1,0.6l0.5,0.3l0.5,0.2l0.2,0.3l-0.4,2.6l-0.6,1.9
		l-1,1.5l-1.6,1.3l-3.4,0.8L756,278l0,1.6l0.6,0.6l2,0.9l0.8,0.6l0.9,2.7l0.6,0.9l-1.5,1.6l0.1,2.5l0.7,2.9l0.2,4.7l0.5,1.5l0.8,1.1
		l1.1,0.7l-2,0.9l-7.1,1l-7.7,1.9l-3.7-0.7l-1.4-3.8l-1.3,1.1l-1.9,3l-1.1,1.1l-0.9,0.2l-5.5-0.9l-1-0.6l-1.1-1.1l-0.7-1.5l-0.4-1.5
		l-0.5-1.3l-1.2-0.9l-7.8-3l-4.1-0.5l-3.6,1.6l-0.6,1.4l0.2,1.9l-0.5,1.2l-0.8,0.8l-3.9,2.1l-1.2,1l-0.6,0.4l-0.5-0.1l-0.5-0.5
		l-0.6-0.7l-0.7,0.7l-1.5,2.4l-0.9,1.1l1.8,1l5.4,2.2l2.7-0.6l6.4,2.6l3.2-0.6l2.1,1l1.7,2.3l0.8,2.9l-0.5,2.8l1.6,0.9l1.3,1.4
		l0.8,1.8l-0.1,2.2l-1,1.8l-2.8,1.2l-1.1,1.2l0.4,5.8l-1.3,1.1l-3.6,2.9l-10.4,4.8l-1.2-1.9l-1.3-0.9l-1.2,0.3l-1,1.8l0.2,5.5
		l-0.2,0.4l-0.5,0.3l-0.4,0.4l-0.1,0.8l0.3,0.5l0.4,0.2l0.4,0.2l0.3,0.3l2.9,6.2l0.4,2.4l-0.6,1.9l-1.4,1.3l-3,1.6v0l0.3,2.5
		l-1.5,3.1l0.3,2.4l0.6,0.5l0.8-0.1l0.8,0.1l0.7,0.9l0,1.3l-0.8,2.4l0,0.8l1.3,0.9l3.3-1.6l1.6,0.2l1.2,1.7l-0.5,1.7l-2.2,2.9
		l-2,1.3l-0.6,2.1l0.7,1.9l2,0.7l1.1,0.6l0.3,0.7l-0.4,0.8l-1.1,0.7l-4.3,1.8l-1.2,1.1l2.8,0.3l1.4,0.5l1.4,1.3l0.4,1.5l-1.8,0.4
		l-2.5,0l-1.6,0.3v0l-0.4,0.4l-0.5,0.1l-0.5-0.1l-0.5-0.4l-1.7-1.3l-2.1-0.3l-4,0.5l-3.6-0.7l-1.3,0.2l-0.9,1.6l-0.4,2.2l-0.8,0.6
		l-1,0.2l-1,0.8l-0.3,0.9l0.1,0.8l0,0.9l-0.7,1l-0.7,0.5l-2,0.9l-2.5,1.8l-1.1,1.2l-3.5,4.8l-1.2,1.2l-1.6,0.7l-4,2.4l-2,1.2
		l-0.3,0.1l-4,1l-0.6,0.3l-0.9,1l0.1,0.3l0.4,0.3l0.1,1l-0.7,4.4l0,0.4l-0.1,2.1l0.1,2.5l1.1,3.5l2.1,1.3l1.1,2.2l0.2,3.3l0,0
		l-1.8-2.3l-1.1-0.7l-3.9-0.7l-6.6-3.3l-2.7-0.5l-2.7,0.2l-3.7,1.5l-2.9,1.2l-2.6,0.1l-7.4-1.1l-1.6-1L623,444l0,1.8l-0.6,1.2
		l-0.5,0.4l-0.5,0.4l-1.3,0.4l-1.5-0.4l-2.1,0l-2.1,0.5l-1.5,1.1l-1,2l-0.1,0.3l-0.3,1.3l-0.4,0.8l-0.3,0.6l-1.8,1.4l-2.9,0.5
		l-2.2-1.4l-0.5-0.4l-1.7-1.5l-2.9-1.1l-5.4,0.3l-12.4,0.7l-3.1-0.3l-6.5-0.7l-1.9-0.2l-2.3-0.2l-5.6,1.8l-3.6,5.2l-1.9-2.7
		l-1.4-0.3l-1.4,0.9l-2.1,1.3l-0.4,0l-1.7,0.2l-1.4-0.2l-1.2,0.5l-1.6,2.4l-1.1,2.4l-0.8,2.3l-0.7,2.2l-1,2.3l-0.8,1.8l-0.5,0.5
		l-2.1,1l-2.5,0.4l-0.9-0.6l-1.6,0.7l-0.6,0.7l-0.5,1l-1.1,1.4l-0.7,1.7l-0.7-0.1l-0.6-0.1l-0.4,0.1l-1.9,2l-1,0.7l-1,0.3l-2.1,0.2
		l-0.9,0.4l-1.4,2.1l-0.8,2.7l-0.5,1.2l-0.4,1.1l-1.7,0.7l-1.3-1.3l-1.1-2.4l-1.3-1.8l-3.3,0.8l-1.6-0.3L507,484l-1.7-0.8l-0.5-0.7
		l-0.3-0.8l-0.5-0.7l-1-0.2l-3.3,0.7l-11.6-0.3l-9-0.3l-0.2-0.1l-1-0.3l-5.5-4.7l-1.4-0.7l-1.6-0.5l-1.7,0l-1.7,0.3l-1.6,0.3
		l-1.6-0.2l-8.9-4.2l-2.9-0.5l-6.3,1l-1.3,0l-6.4-1.6l-1.5-0.1l-1.5,0.3l-1.5-0.2l-11.7-3.8l-4.1-0.2l-0.7-0.5l-1.4-1.6l-0.7-0.3
		l-5.9,0.4l-4.2-0.7l-9.9,2.1l-3.9-0.2l-2-0.8l-6.2-3.8l-8-1.8l-22.7-1.6l-5.5-3.6l-2.4-0.8l-0.8-0.3l-0.8,0.1l-1.6,0.6l-0.9,0
		l-0.9-0.4l-1.8-1.3l-0.8-0.3l-0.2-0.1l-4.8-0.5l-5.6,0.7l-1.4-0.1l-1.6-0.8l-3-2l-2.9-0.5l-2.3-0.4l-3.9-1.6l-3.4-3l-1.8-4.5
		l-0.9-3.1l-1.6-1l-2-0.3l-2-0.8l-0.9-0.7l-0.6-0.6l-0.2-1l0-1.8l0.3-1.6l0.4-1l0.3-1l0-1.7l-0.9-3.1l-1.5-1.1l-4.1-0.1l-1.3-0.5
		l-0.6-0.7l-0.5-0.9l-1.1-1.1l-1.1-0.5l-2.3-0.4l-1-0.4l1.4-1.4l0-1.3l-0.7-1.3l-0.6-1.6l-0.6-3.3l-0.4-1.6l-0.6-1.4l1-2.5l5.9-3.3
		l2.1-2.8l0-1.9l0-1.8l-2.3-0.8l-4.6,0.9l-1.6,0.3L272,396l-6.9,0.3l-4.3,1.5l-4.1,2.2l-3.3,2.7l-4.4,0.7l-1.1,0.7l-1.9,1.6
		l-1.1,0.3l-1.8-0.7l-3.1-2.3l-1.8-0.2l-0.7,0.1l-0.7-0.1l-0.1,0h-0.1l-5-1L229,402l-2.8,0.8h0l0,0h0l-0.9,0.5l-0.9,0.2l-0.9-0.2
		l-0.8-0.5l-0.5-0.7l-0.6-0.5l-0.6-0.4l-1.7-0.4l-1,0.2l-0.9,0.7l-0.7,1.1l0,0l-3.3,3.2l-3-0.2l-3-1.5l-3.5-0.8l-6.8,1.1l-6.7,2.2
		l-1.7,1l-6.3,6.3l-0.8,1.7l-1,5l-1.8,4.4l-0.1,0.5l0.1,1.5l-0.2,0.7l-0.4,0.5l-1.1,0.5l-0.4,0.4l-2.2,3.7l-1.4,1.4l-1.4,0.2
		l-1.6-0.6l-3.4-0.3l-1.7,0.2l-3.2,1.1l-1,0.1l-1-0.4l-1.7-1.4l-0.9-0.5l-1,0l-1.8,0.5l-1,0l-2.8-1.6l-1.1-0.4l-2,0.6l-1,0l-0.6-1.2
		l0.5-0.7l2.2-1.8l0.5-1l-0.9-1.4l-7.4-4.5l-1.5-0.4l-1.7,0.2l-9.9,2.7l-4-0.4l-3.1-2.6l-0.2-3l1.2-4.8l-0.5-2.4l-0.9-1l-3.3-2.6
		l-2-3.3l-1-1.1v0h0l-0.5-0.3l-0.5-0.1l-0.5,0.1l-2.8,1.6l-2.4,2.8l-1.7,3.3l-0.1,2.7l-2.4,0.1l-1.9-0.5l-1.6,0.3l-1.5,2.5l-0.5,1.8
		l-0.1,1.2l-0.3,1.1l-1,1.4l-4.2,2.2l-2.5,0.7l-0.7,0l-1.3-0.1l-4.2-1.3l-2.2-1.3l-3.8-3.6L66.7,414l-2.4-1.9l-1.2-1.8l-0.2-1.3
		l0.3-1.5l0.2-3.3l0.4-1.4V402l-0.4-0.4l-0.6,0l-0.4-0.4l0.2-1.6l-18.3-5.8l-1.6-0.2l-5.1,0.6l-1.8-0.5l2.7-3.4l0.7-3.7l-1-3.6
		l-2.3-3.2L33,378l0-1.2l1-2.1l0.1-1l-0.8-2l-0.9-1.2l-0.4-1.3l0.7-2l-1.6-1.5l-0.9-1.3l3.1-5.3l3.3-4l0.4-1l0.5-2.5l0.5-1.3
		l3.8-4.8l0.9-2.2l0.1-6.1l-2.8-2.5l-3.6-1.7l-2.9-4.3l-0.2-0.9l-0.5-2.5l0.2,0.1l0.4,0.1l5.7,1.6l6.2-0.1l2.6-1.3l1.4-2.2l1.2-2.6
		l2.1-2.5l1.4-0.8l1.5-0.2l1.4,0.5l1.1,1.2l0.3,1.7l-0.2,1.8l0.4,1.5l2,1l0.8-0.1l1.2-0.8l0.5-0.1l2.9,1.1l2.9,0.2l1.5-0.3l1.2-0.9
		l0.3,2.4l1,1.3l1.2,1.2l0.9,1.9v0.4l0,0.4l0.2,0.8l1.1,0.6l0.9-0.4l0.9-0.8l1.1-0.5l4.8,7l0.9,1.7l-0.5,1.5l-2.2,1.7l1.1,1.2
		l0.3,1.5l0.1,1.5l0.5,1.4l0.9,0.9l0.7,0l0.7-0.6l1.3-0.6l0.5,0.1l1,0.6l0.5,0l0.4-0.3l1.2-1.3l4.3-0.8l1.8,1l-0.1,2.6l-1.8,5.3
		l0.2,0.9l0.1,0.9l-0.2,1l-0.5,0.5l-1.3,0.4l-0.4,0.3l-0.9,1.6l-0.4,0.9l0.4,0.3l1.5-0.2l6.2-0.8l2.1-0.8l4.3-2.7l1.9-1.7l1.7-2.4
		l2.2-4.3l0.6-0.9l1-0.7l2-0.7l0.8-0.6l1.6-2.2l1.4-2.9l0.9-3.2l0-3.1l-0.4-1.8l-0.5-1.3l-0.8-0.9l-1.4-0.7l1-5.7l0.1-1.3l-0.6-1.6
		l-0.8-1.6l-0.1-1.2l1.5-0.6l1.6-0.3l0.7-0.3l0.3,0.3l0.4,1.3l-0.1,0.6l-0.5,0.7l-0.4,0.9l0.2,1.2l0.5,0.7l0.8,0.6l1.5,0.7l4.1,0.6
		l1.1-0.2l1.2-1l2-2.8l1.3-0.9l2.3,0l12.8,4.9l0.4,0.5l0.3,0.7l0.5,0.7l0.8,0.3l2.9-0.3l3.9-1.8l1.4-0.4l1.3,0.1l1,0.6l2.2,1.7
		l-0.8,1l-3.1,2.1l0.7,1.1l5,2.3l4.8,5.2l0.3,0.7l0,1l-0.2,1l-0.3,0.7l-0.2,0l1,1.9l1.4,0.8l10.1,0.1l1.9-0.6l6.3-4.4l2.4-0.7
		l2.1,0.9l-0.2,3.9l2.3,0.3l2.1-1l1.4-1.5l1.3-1.7l1.9-1.7l1.8-0.6l4.2-0.1l1.6-0.7l0.8-1.4l-0.4-1.1l-1.1-0.7l-1.2-0.3l4.6-5.3
		l2.2-0.5l2.4,0.3l2.2,0.7l4.6-0.8l2.1-0.8l1.8-2l0.5-1.3l0.8-3.3l0.7-1.5l2.7-2.4l0.3-0.4l1.8,0.1l4.2,0.8l7.9,0l5.5,1.1l1-0.3
		l1-2.4l1.1-0.7l8.1-1.7l22.3,1l0.8-0.2l2.8-3.6l0.4-0.9l0.1-1.3l-0.2-3.8l-0.3-0.8l-0.5-0.3l-0.8-0.8l-0.7-0.9l-0.3-0.8l-0.2-1.2
		l1.5-0.6l2.3-2l0.8-0.5l1.4-0.6l0.2,0l-0.3,0.7l-0.3,1.5l-0.3,1.1l-0.6,0.9l-0.3,1l0.5,1.6l1,0.9l1.1-0.2l2.2-1.1l2.1-0.3l5.6,1.2
		l1.6-0.3l3.8-1.5l1.6,0.3l0.5,0.8l1,3.1l0.5,1.2l0.8,0.9l2.9,2.3l1.4,0.7l2,0.1l2-0.4l1.5-0.7l0.9-0.8l3.4-3l1.8-0.9l3.5-0.8h3.5
		l5.4,1.4l1.7-0.2l-1,2.5l1.5,1.9l2.5,1.7l1.9,1.9l-2.6,1.3l-1.2,3.3l0.5,3.5l2.4,1.9l1.5,0.3l0.9,0.3l0.8,0.7l4.4,4.9l4.8,3.6
		l1.1,0.4l0.8-0.3l0.8-0.4l1,0l0.9,0.5l0.5,0.6l0.6,0.4l1,0l0.7-0.6l2.8-3.3l0-1.2l-0.3-0.9l-0.3-0.7l-0.2-0.8l-0.1-0.9v-2.5
		l0.2-0.4l0.9-2.3l0.1-0.2l-0.2,0.1l-0.1-3.3l0.3,0.1l1.6-2.1l0.1-0.4l1.2-2.9l0.2-0.3l0.2-1.7l0.1-1.7l-0.3-1.8l-0.8-2.1l-1.9-3.3
		l-1.2-1.4l-1.2-0.9l-1.5-0.2l-2.5,1.1l-1.5,0.3l-5.4-1l-1.6-1.6l1.8-2.8l0,0l0.6-1l0.2-1l0-0.9l0.2-0.9l0.5-1.1l6.3-10.1l-0.5-0.5
		l-2.1-3.1l-3.3-7.7l-1.6-1.6l-0.8-0.4l-2-2l-2.3-1.4l-0.8-1.1l-0.5-1.5l0-0.2l-0.3-1.6l-1.5-3.2l-6.8-7.2l-0.9-1.4l-0.9-1.7
		l-0.5-1.9l0.2-2l0.6-1l0.6-0.2l0.6,0l0.6-0.3l1.4-2.2l0.4-0.5l3.9-2.7l1.3-1.5l1.8-2.8l0.9-1l1.5-0.8l5.4-1l-0.1-0.3l1.5-1.2
		l3.1-1.8l3.6-3.5l1.6-1.1l10.1-4l13.4-2.3l3.3-1.8l9.5-8.3l1.4-2.3l0.6-3.1l0.2-0.8l0.4-0.8l0.4-1l0.2-1.5l-0.2-4.1l0.2-1.4
		l0.5-1.3l1.3-2.8l0.3-1.4l-0.2-1.3l-0.9-1.4l-0.4-2.6l-0.3-0.7l-0.1-0.5l0.5-1l0.9-0.8l3.2-1.2l3.2-0.4l10.1,2.8l1.7,0.9l1.6,1.2
		l1.5,2.3l4,1.8l0.2,0.2l0.9-3.9l0.8-1.7l0.3,0.1l2-0.3l0.8-0.3l0.8-0.8l0.5-0.7l1.7-3.6l0.6-1.9l0.3-2.1l0.1-2.5l-0.5-4.7l0.3-1.8
		l1.3-1.2l-1.2-0.6l-0.5-0.4l-1-2l-0.5,0.2l0.2-1.4l2.9-6.1l3.9,1.1l1.8,1l1.8,1.4l2.1,1.8l6.5,3.6l0.9,0.9l1.6,2.5l0.6,1.2l0.5,0.5
		l0.7,0.3l0.6,0.4l0.3,0.9l-0.2,0.9l-0.4,0.1l-0.5-0.1l-0.3,0.2l-0.7,1.4l-0.6,0.2l-0.2,0.4l0.5,2l0.4,0.8l1.7,2.1l0.8,0.7l3.3,1.4
		l13.7,1.5l9.6,3.4l0.9-0.1l0.8-0.3l2-1.6l5-2.2l1.5-1.6l2.2-5.8l1.4-1l2.3,2.7l3.9,2l1.1,0.3l1.5-0.3l2.9-1.4l1.5-0.1l0.6,0.6
		l0.1,0.9l0,1l0.3,0.6l0.8,0.1l1.5-0.5l0.6,0.1l1,1.4l0.6,1.4l0.8,1l1.6,0.1l1.5-1.5l0.4-0.4l0.5-3.8l0-4.5l0.4-4l1.8-3l5.1-4.5
		l0.5-2.8l1-1.7l0.4-1.8l0.6-1.4l1.5-0.6l5.1,0.7l5,2.1l2-0.2l1.1-2.6l-0.2-0.3l-0.4-1l-0.4-1.2l-0.2-0.9l0.2-1l0.7-1.9l2.1-9.2
		l0-4.1l-0.4-4.5l0-4.2l1.3-3.1l-0.1-0.8v-0.7l0.2-0.5l0.3-0.2l2.1-0.3l5.4,1.9l7.6,0.6l0.7,2.1l0.4,2l0,2l-0.6,2.1l1.9,0l7.4-2
		l0.5-0.3l1.3-1.6l0.3-0.8l0.2-2l0.4-0.6l0.7,0l0.5,0.6l0.4,0.7l0.5,0.3l4.5,0.1l2.2,0.6l4.7,2.4l4.3,1.5l2.1,1.2l4.8,4.2l2.2,0.9
		l5.8,2.3l7.5,4.3l2.2,0.5h2.2l1.6-0.5l3.4-1.8l0.8-0.2l3,0l0.6,0.4l0.4,1.8l0.5,0.8l0.7,0.3l1.9,0.1l1.1,0.8l0.7,0.3l0.8-0.1
		l-1,1.3l1.2-0.3l1.1,0l0.7,0.7l0.1,1.6l1.6-0.4l0.5,0.6v1l0.1,0.7l9.8,7.1l5.1,2.2l9-0.5l13.6,2l0.1-0.1l2-0.3l1.3,1l0.5,0.2
		l1.5-0.4l1.1-1l4.9-8.5l1.7-1.1l2.8,0.4l1,0l1.8-0.7l0.9-0.1l0.9,0.3l1.7,1.1l5.8,1.7l1.8,0.2l1.9,0.8l0.8,1.8l0.4,2.1l0.7,1.7
		l1.3,0.9l1.5,0.3l3.7-0.2l1.5,0.5l3.5,2.3l1.8,0.7l1.9-0.2l3.7-1.3l1.6,0.1l2.3,3.2l1.3,9.7L750.3,170.1z"/>
</g>
</svg>
