<?xml version="1.0" encoding="utf-8"?>
<!-- Generator: Adobe Illustrator 24.0.0, SVG Export Plug-In . SVG Version: 6.00 Build 0)  -->
<svg version="1.1" id="svg_map" xmlns="http://www.w3.org/2000/svg" xmlns:xlink="http://www.w3.org/1999/xlink" x="0px" y="0px"
	 viewBox="0 0 800 600" style="enable-background:new 0 0 800 600;" xml:space="preserve">
<style type="text/css">
	.st0{fill:none;stroke:#ffffff;stroke-width:6;stroke-linecap:round;stroke-linejoin:round;}
</style>
<g id="Cyprus">
	<path class="st0" d="M609.6,259.8l-0.6,7.4l-8.6,3.3l-10.6,10.7l-3,6.3l-2.8,8l-2,8.9l-0.7,8.8l0.8,9.4l-1,4.1l-3.9,1.7l-2.5,1.9
		l-2.8,8.8l-1.8,2.8l-6.3,1.8l-13.4,0.1l-5.2,1.4l-3.5,3.7l-4.2,5.7l-4.8,5.2l-5.5,2.3l-12.9,3.2l-11.7,5.7l-9.5,2.1l-6.1-7.4
		l-0.4,13.8l-11.5,7.1l-30.1,6.3l-6.1,2.9l-3.7,2.5l-5,3.4l-5.9,1.1l-29.2-3.4l-29,3.4l-6.3,1.7l-5.7,4l-18.8,17.5l-4.2,8.3h-10.1
		l-8.6,1.2l-2.8,3.5l-2.8-1.9l-0.6-6.9l4.7-4.2l1.9,2.7h7.9l-0.9-13.4l-13.3-1.9l-5,5l-2.5,4.6l-2.6-2.3l-5.1-2.3l-1.4,3.4
		l-11.8-3.1l-7.6-6l-2.1-4.4l-0.3-6.4l-2.4,0.5h-3.1h-2.1l-2.1-0.2l-1.3-0.5l-1.9,2.2l-1.9,2.6l-1.3,1.8l-5.4,0.9l-3,7.3l-8.1-1.1
		l-4.8-1.5l-2.7,3.5l0.2,7.8l-4.6,1.7l-16.9,2.2l-16.8-3.3l-16-7.1l-20.7-13l-7.4-3.2l-8.4-2.1l-17.2-1.8l-7.1-2.9l-6.8-4.3
		l-16.1-12.9l-2.3-2.7l-2.5-14.3l-1.6-2.3l-0.3-4.6l-9.4-26l-4.5-3.9l-8.6-5.7l-3.7-3.9l-3.3-4.9l-2.4-5.9l-0.3-6.4l3.5-6.4
		l-7.8-12.9l-0.8-5.2v-10.8l-1.8-9.3L35,237.8l-3.3-7.6L30,217.8l1.4-9l4.6-3l8.2,5.7l12.1,13.3l6.8,5.4l7.7,3.2l16.8-0.8l14.6-7.8
		l12-11.9l9-13l6-15.4l4.4-8.3l6.4-4.7l0.8-2.3l1.1-2.4l2.3-1l2,0.6l3.1,2.1l0.7,0.5l2.6,0.6l4.1-0.9l3.2,5.6l6,3.5l6,1.1l4.8-1.1
		l5.1-3.5l2.8-6.6l2.6-6.3l12.9,1.7l2.6,13.1l2.5,6.6l3.5,5l6.3,3.5l10.8,3.5l8.2,4.6l8.2,3.9l4.4,3.9l1.5,7.4v4.6l2.3,3.9l4.1,1.9
		h3.5l10.7-3l5-3.6l1.3-2.3l2.5-5.4l3.2-1.9l3.8,1.9l2.5,3.5l6.3,4.2h5.4l5.3-3.4l7.6-7.7l7.3-6.9l7.3-3.5l9.4-5.8l4.4-4.2l3.8-0.8
		l10.1,1.2l10.8,2.3h10.1l5.7-2.7l2.6-2l2.5-4.2l9.8-6.9h6.3l5.4,2.3l5.4,1.9l5,0.4l4.1,1.9l5.4,6.2l4.1,5.4l6.7,3.9l9.2,2.3
		l3.2-1.2l1.9-2.7l0.6-3.9l5-3.9l8.2-8.9l3.5-1.2l6.7,0.8l10.4-1.2l7-1.2l2.2,1.5v6.2l1.3,7.3l3.2,3.1l4.4,5l5.7,6.2l0.6,3.1
		l0.6,8.5l-0.6,8.1v9.7l-2.6,11.2l-2.5,8.9l1.3,6.5l3.8,5h4.4l6.7-1.9l2.8-7.7l1.6-14.2l2.4-2.4l3-3l3.8-3.5l3.2,3.5v12l2.5,6.6
		l5,2.3l7.3-3.1l3.1-6.5l3.5-2.7l4.4,0.8l4.6,3.1l3.5-0.8l3.2-1.6l4.4,1.6l3.8,1.9l8.8,4.6l5.1,0.8l4.4,0.7l6.3,4.3L609.6,259.8z
		 M688.6,223.5l5,1.9l4.4,2l3.8,1.1h5.7l6.9-3.1h7.3l3.8,2.7l5.1,2.3l4-0.8l2.3-1.5l1.8-2.5l5.6,4.9l6.1,7L755,251l4.5,8.7l5.5,8
		l4.9,3.3l-5.6,0.4l-10.4-1.1l-10.1-2.9l-4.5-5l-4.8-2.5l-22,2.8l-19.1,5.8l-4.2,2.5l-3.3,3.5l-11.1-2.4l-7.5,1.6l-3.1-2l5-4.6
		l3.5-0.8v-8.5l-7.6-0.8l-4.4-3.9l0.3-10.8l-3.2-3.5l-9.5-4.2l2.2-5.4l3.8-3.1l5.4-2.7l3.1,2.3l2.6,2.7l5.7-1.1l5.1-3.5l2.8-3.5
		l2.2-2.7L688.6,223.5z"/>
</g>
</svg>
