<?xml version="1.0" encoding="UTF-8" standalone="no"?>
<!-- Created with Inkscape (http://www.inkscape.org/) -->

<svg
   width="428.89685"
   height="441.44604"
   viewBox="0 0 113.47896 116.79926"
   version="1.1"
   id="svg1"
   xml:space="preserve"
   xmlns:inkscape="http://www.inkscape.org/namespaces/inkscape"
   xmlns:sodipodi="http://sodipodi.sourceforge.net/DTD/sodipodi-0.dtd"
   xmlns="http://www.w3.org/2000/svg"
   xmlns:svg="http://www.w3.org/2000/svg"><sodipodi:namedview
     id="namedview1"
     pagecolor="#ffffff"
     bordercolor="#000000"
     borderopacity="0.25"
     inkscape:showpageshadow="2"
     inkscape:pageopacity="0.0"
     inkscape:pagecheckerboard="0"
     inkscape:deskcolor="#d1d1d1"
     inkscape:document-units="mm"
     inkscape:zoom="0.55224724"
     inkscape:cx="254.41503"
     inkscape:cy="555.91043"
     inkscape:window-width="1680"
     inkscape:window-height="937"
     inkscape:window-x="0"
     inkscape:window-y="25"
     inkscape:window-maximized="1"
     inkscape:current-layer="svg1"><inkscape:page
       x="0"
       y="0"
       width="113.47896"
       height="116.79926"
       id="page2"
       margin="0"
       bleed="0" /></sodipodi:namedview><defs
     id="defs1" /><path
     d="m 108.24629,51.148938 0.186,0.2093 1.007,0.8299 -0.907,1.9067 -0.251,1.2333 0.603,0.5515 0.15,0.5661 -0.535,1.2444 -0.783,1.2453 -1.677,1.4798 0.181,2.1026 0.769,2.3082 0.68,1.5373 -0.194,0.9609 0.726,0.817 1.098,0.5648 0.92,0.2142 0.907,0.3968 0.502,0.9267 -0.01,1.079 -0.632,0.8362 v 0.3266 l 0.468,0.7338 -0.124,0.7527 -0.348,0.9576 -0.197,1.3651 0.324,0.7542 2.105,1.5785 -0.595,0.7423 -0.248,0.4469 -0.104,0.4706 -0.06,0.4818 -0.137,0.4966 -0.7,1.2705 -0.174,0.5096 -0.114,3.2004 -0.274,1.0244 -0.499,0.9428 -0.595,0.7991 -1.858,1.8929 -0.425,0.9063 0.097,1.1068 0.532,0.814 0.586,0.406 0.449,0.6013 0.127,1.3768 0.334,1.326 0.73,0.856 1.573,1.31 0.418,0.900002 0.318,1.321 0.054,1.369 -0.382,1.041 -0.629,0.998 -0.264,1.009 0.071,0.372 -1.405,-0.064 -1.392,-0.581 -0.81,-0.48 -0.708,-0.134 -0.678,0.03 -1.402,0.397 -4.275,2.147 -1.252001,0.29 -1.096,-0.735 -1.16,-0.43 -1.553,-0.204 -2.014,0.489 -1.302,0.721 -0.402,0.367 -1.267,1.663 -0.19,0.388 -0.015,0.397 -0.046,0.413 -0.497,1.174 -1.813,2.6 -0.569,0.966 -0.121,0.056 -0.196,0.055 -0.145,-0.087 -0.332,-0.059 -0.24,-0.077 -2.106,0.262 -3.462,0.43 -1.146,-0.114 -3.779,-0.266 -1.492,-0.491 -0.427,-0.075 -0.311,0.033 -0.377,0.098 -0.393,-0.166 -0.537,-0.805 -0.452,-0.355 -0.378,-0.206 -0.241,-0.304 -0.467,-0.403 -1.517,-0.746 -0.422,-0.016 -0.337,0.104 -0.306,0.335 -0.478,0.253 -2.989,1.023 -0.604,0.173 -0.422,-0.695 -0.217,-0.142 -0.424,-0.079 -0.157,0.328 -0.358,-0.055 -0.151,0.191 -0.166,0.155 -0.195,0.297 -0.116,-0.066 -0.09,-0.078 -0.116,-0.282 -0.055,-0.157 -0.045,-0.204 -0.025,-0.17 v -0.161 l 0.04,-0.123 0.071,-0.104 0.366,-0.343 0.075,-0.096 0.076,-0.15 0.16,-0.529 -0.023,-0.74 0.08,-0.568 -0.06,-0.447 -0.197,-0.166 -0.096,-0.327 0.055,-0.099 0.071,-0.097 0.1,-0.074 0.251,-0.144 0.117,-0.121 0.101,-0.226 -0.006,-0.292 -0.06,-0.381 -0.176,-0.738 -0.11,-0.327 -0.117,-0.222 -0.678,-0.411 -0.316,-0.455 0.005,-0.31 0.07,-0.177 0.06,-0.217 0.066,-0.382 -0.076,-0.228 -0.1,-0.141 -0.397,-0.256 -0.418,-0.371 -0.115,-0.064 -0.121,-0.003 -0.11,0.051 -0.096,0.08 -0.15,0.054 -0.251,-0.099 -0.4471,-0.306 -0.9052,-1.116 -0.3716,-0.142 0.6677,-1.213 0.2662,-0.266 1.941,-1.528002 0.904,-1.236 0.105,-0.623 -0.231,-0.594 -0.316,-0.527 -0.186,-0.575 -0.055,-0.39 -0.025,-1.3844 0.045,-0.3671 0.181,-0.3615 0.984,-1.5681 1.111,-1.2519 0.281,-0.6525 -0.613,-0.265 -1.081,-0.0784 -0.175,0.0353 -0.196,0.154 -0.256,0.5107 -0.141,0.2242 -0.241,-0.1217 -0.165,-0.1459 -0.288,-0.3726 -0.231,-0.0486 -2.1404,0.2564 -0.5972,-0.2349 -1.819,-1.2772 -0.2361,-0.2449 -0.1403,-0.2932 -0.1874,-0.2665 -0.3916,-0.3545 -0.3514,-0.1689 -0.6629,-0.1206 -1.4876,-0.0189 -0.2557,-0.0635 -0.1608,-0.1084 -0.2479,-0.8224 -0.1655,-0.3426 -0.487,-0.3437 -1.2415,-0.1436 -0.3563,-0.0947 -2.8935,-1.7904 -1.2516,-0.7375 -0.1856,-0.0164 -0.2011,0.0164 -0.0449,0.1262 -0.0101,0.1529 -0.0705,0.1722 -0.1455,0.1774 -0.393,0.1819 -0.4116,0.2653 -0.4521,0.4469 -1.4924,-0.3303 -0.5575,-0.3237 -1.5176,-1.1858 -0.6525,-0.8704 -0.1875,-0.1521 -0.1607,-0.0813 -0.1306,0.0219 -0.0954,0.0705 -0.0754,0.111 -0.1102,0.2576 -0.1306,0.1005 -0.1956,0.0624 -0.3868,0.0134 -0.2008,-0.0435 -0.1555,-0.0731 -0.3682,-0.3526 -0.9787,-0.6714 -0.2762,-0.2617 -0.1807,-0.2089 -0.0301,-0.2647 v -0.1696 l -0.01,-0.1329 -0.082,-0.3585 -2.015,-2.7324 -0.6024,-0.6563 -0.6473,-0.3221 -0.1359,-0.1333 -0.1154,-0.1848 -0.2156,-0.7004 -0.8552,-0.8477 -0.1006,-0.1358 -0.2909,-0.6247 -0.2762,-0.8291 0.0201,-0.1359 0.0601,-0.1744 0.2412,-0.3894 0.4217,-1.3269 0.7427,-0.7824 0.0504,-0.1061 0.0501,-0.1693 -0.0801,-0.079 -0.186,-0.2724 -0.1102,-0.2947 -0.1006,-0.1693 -0.1206,-0.1143 -0.3162,-0.0301 -0.1756,-0.1499 -0.1756,-0.2932 -0.0905,-0.8091 -0.0152,-0.389 0.0304,-0.2743 0.0449,-0.1366 0.216,-0.5285 0.0902,-0.2947 0.0353,-0.1477 0.0905,-0.2687 0.4064,-0.7038 0.0401,-0.2008 -0.0148,-0.164 -0.0501,-0.1748 -0.0553,-0.2324 -0.0653,-0.3964 0.0501,-0.2022 0.0705,-0.1967 0.0148,-0.1763 -0.0653,-0.2257 0.01,-0.1589 0.0453,-0.1228 0.3867,-0.7279 0.1303,-0.3036 0.2227,-0.7085 0.0401,-0.2765 -0.0052,-0.2138 -0.0549,-0.1202 -0.1459,-0.2068 -0.0601,-0.0987 -0.0702,-0.1808 0.0201,-0.1243 0.0534,-0.0932 0.353,-0.2219 0.1908,-0.3096 0.2961,-0.8054 0.3716,-0.6647 0.0404,-0.167 0.0349,-0.2179 -0.0401,-0.4142 0.0153,-0.3674 0.0801,-0.2205 0.1407,-0.3058 -0.0401,-0.088 -0.0906,-0.0163 -0.2308,0.1273 -0.1255,0.0412 -0.1306,0.0207 -0.1307,-0.0274 h -0.1302 l -0.1207,0.03 -0.1102,0.0617 -0.1559,-0.0453 -0.1874,-0.1589 -0.4818,-0.8136 -0.1759,-0.2371 -0.2409,-0.1978 -0.1807,-0.0769 -0.1656,-0.0055 -0.1106,0.0579 -0.0801,0.1054 -0.0453,0.1414 -0.0754,0.4788 -0.0501,0.1399 -0.0753,0.1139 -0.0802,0.1014 -0.092,0.0961 -0.0939,0.0713 -0.2476,0.1206 -0.4469,0.0853 -0.4116,-0.1154 -0.0954,-0.085 -0.1102,-0.1288 -0.0605,-0.1618 -0.0549,-0.2706 0.01,-0.1985 0.0401,-0.1567 0.1555,-0.2056 0.1106,-0.1072 0.1002,-0.1318 0.1206,-0.1919 -0.03,-0.1169 -0.0854,-0.0783 -0.1455,-0.0357 -0.3166,0.0153 -0.3162,0.0616 -0.1622,0.0029 -0.1956,-0.0742 -0.0204,-0.1058 0.0304,-0.1083 0.86,-1.3266 0.0701,-0.3433 0.0654,-0.5356 0.0601,-1.27 0.0753,-0.5293 0.0906,-0.3055 0.1403,-0.026 0.6276,0.0386 0.2828,-0.0772 0.3315,-0.2063 0.1655,-0.2435 0.196,-0.4057 0.321,-1.0236 0.0806,-0.4929 -0.0052,-0.4436 -0.0754,-0.161 -0.0954,-0.1199 -0.3062,-0.2505 -0.1002,-0.1296 -0.0853,-0.1885 -0.0654,-0.3652 -0.0601,-0.2368 -0.0705,-0.1697 -0.1707,-0.2464 -0.0969,-0.1574 -0.0939,-0.2423 -0.01,-0.1793 0.0304,-0.1559 0.1403,-0.2108 0.3114,-0.3144 0.1202,-0.1655 -0.01,-0.1544 -0.0601,-0.1904 -0.1255,-0.1407 -0.1054,-0.1681 -0.0905,-0.2123 -0.0769,-0.3934 0.0268,-0.1986 0.0653,-0.1589 1.0541,-0.883 0.1406,-0.5897 -0.0248,-0.3493 -0.6276,-2.0476 -0.176,-0.3816 -0.1655,-0.2238 -0.373,-0.1024 -0.3916,-0.199 -0.1507,-0.0497 -0.1406,0.0163 -1.1109,0.3404 -0.3367,0.0167 -0.4769,-0.0609 0.0353,-0.6087 -0.0654,-0.1659 -0.1002,-0.2156 -0.2108,-0.2409 -0.1206,-0.0772 -0.1307,-0.0305 -2.2755,0.2877 -0.8099,-0.0279 -0.4869,0.2008 -0.5542,-0.1161 -0.8833,-0.5245 -0.4369,-0.174 -0.579,-0.0665 -0.3277,-0.1191 -2.1004,-1.4201 0.052,-0.2353 0.3867,-0.5845 0.1737,-0.6206 -0.3949,-0.2327 -1.014,-0.0472 -0.4532,-0.3659 -0.9839,-1.4999 -0.5022,0.111 -0.8299,0.4769 -0.3262,0.1136 -0.5657,-0.1024 -0.164,-0.3218 -0.0501,-0.513 -0.2261,-0.6795 -0.373,-0.2751 -1.0726,-0.0441 -0.4435,-0.2305 0.2676,-0.2788 0.1859,-0.5122 -0.0033,-0.1195 -0.0119,-0.3704 -0.3281,-0.2182 -1.4356,0.4001 -1.5877995,-0.6332 -0.745,-0.1002 -0.6023,-0.2275 -0.9639,-1.0044 -0.7446,-0.2379 -0.6829,0.1585 -1.0556,0.7404 -0.6023,0.1682 -0.6963,-0.1251 -0.5356,-0.3277 -1.18810008,-1.4034 -0.5311,-0.998 -0.0137,-0.026 0.71930008,-0.0854 0.7553,0.1674 h 1.0581 l 0.7553,0.3348 0.6046,0.0839 0.0505,-0.7535 0.1006,-0.5864 0.5037,-0.2513 h 1.0578 l 0.9067,0.5026 0.8566,0.5025 0.8563,-0.0838 0.6547,-0.5022 0.2245,-0.8641 -0.1403,-0.3837 -0.0853,-0.9079 -0.1006,-0.376 -0.1756,-0.3006 -0.246,-0.2732 -0.0854,-0.4053 0.2008,-0.5311 1.4322995,-1.3239 0.6376,-0.4187 1.7638,-0.6666 1.1112,-0.0668 0.3816,0.1366 1.0255,0.847 0.403,0.923 0.6548,-0.4194 0.7051,-0.252 h 0.7052 l 1.0077,0.0839 -0.1009,-0.7553 -0.6521,-0.5207 0.2909,-0.1826 0.2814,-0.1088 0.8859,0.2242 0.7557,-0.9242 1.2582,-0.6176 0.5471,-0.1507 0.6124,0.2643 0.6547,-0.6726 0.5542,-0.4205 0.5036,-0.0839 0.3025,-0.841 0.0505,-0.7572 0.8563,-0.589 0.4702,-0.8711 0.1655,0.0112 0.2981,-0.1107 0.5623,-0.3102003 0.4717,-0.0687 0.2762,-0.1036 0.1406,-0.004 0.1808,0.0683 0.5085,0.5637003 0.1358,0.0435 0.2157,-0.0839 0.1406,-0.0839 0.6377,-0.5163003 0.2557,-0.1006 0.1626,-0.017 0.1855,0.0434 0.1908,0.1121 0.216,0.3103003 0.291,0.6072 0.2309,0.3563 0.236,0.1132 2.0347,0.5103 1.1766,0.703 0.2056,0.1132 0.9758,0.7642 0.1206,0.1592 0.1755,0.1815 0.0702,0.1062 0.196,0.1703 0.9234,0.5249 0.1006,0.1117 0.2828,0.4606 0.1002,0.1032 0.206,0.0727 0.3014,0.042 1.1561,-0.0839 0.497,-0.1871 0.497,-0.0713 3.4321,0.8864 0.1755,0.0026 0.4436,0.2149 0.8737,0.8926 1.3569,0.3767 0.8032,0.0416 0.2809,0.1841 0.0706,0.7542 -0.0152,0.3722 0.0252,0.1255 0.0453,0.1447 0.0701,0.0977 0.0869,0.0749 0.1607,0.0976 0.1607,0.0349 0.2308,0.0086 1.4257,-0.3137 0.4535,0.0334 0.226,0.0613 0.2261,0.1006 0.4617,0.3941 0.2208,0.0988 0.2561,0.0293 0.5137,-0.0516 0.2461,-0.0683 0.301,-0.1321 0.2208,-0.039 0.8704,-0.0085 0.2509,-0.0724 0.1707,-0.0921 0.1054,-0.0835 0.1307,0.0112 0.1202,0.092 0.0754,0.2494 -0.0453,0.1433 -0.0854,0.1143 -0.2108,0.1559 -0.0853,0.1002 -0.065,0.1006 0.0601,0.1837 0.1808,0.167 0.7731,0.3274 0.8299,-0.1436 0.8184,-0.827 0.1455,-0.2286 0.3429,-0.4124 0.186,-0.167 0.9487,-0.605 0.4268,-0.4153 0.2928,-0.2134 0.1054,-0.1088 0.0802,-0.1128 0.0601,-0.1128 0.0405,-0.1006 0.0301,-0.0906 0.0248,-0.1224 0.0706,-0.2903 0.0549,-0.1351 0.1157,-0.1269 0.15,-0.1284 0.282,-0.1411 0.185,-0.1325 0.086,-0.1674 0.105,-0.1102 0.141,-0.1032 0.263,-0.0906 0.225,0.0305 0.231,0.1147 0.417,0.5385 0.211,0.4254 0.085,0.1184 0.398,0.1826 0.909,-0.0011 0.121,-0.5538 0.04,-0.3682 0.035,-0.1551 0.1,-0.2732 0.316,-0.7008 0.173,-0.2832 0.371,-0.3503 0.522,-0.2639 0.849,-0.0824 0.679,0.1395 0.723,0.3311 0.584,0.3697 0.593,0.1522 0.572,-0.2023 1.703,-1.3766 0.342,-0.1173 0.371,-0.3396 0.424,-0.5798 0.441,-1.2482 0.608,-1.3076003 0.175,-1.0214 0.246,-0.6087 0.454,-0.4298 0.602,-0.3206 1.151,-0.049 0.732,-0.6837 0.605,-1.09641 1.964,-1.68839 1.159,-0.16887 1.108,0.08462 0.957,-0.42237 -0.151,-0.67551 -0.814,-1.52693 0.059,-1.00879998 0.554,0.08425 0.806,1.26823998 1.511,0.59162 0.05,1.18287 0.937,1.71103 0.172,0.73675 0.503,0.7594 2.267,-0.1689 1.927,0.1414 0.692,0.2802 0.806,0.1689 0.655,-0.9279 0.806,-0.16885 1.159,0.59055 1.36,-0.0843 0.755,0.1689 0.051,1.433 -0.152,1.0114 -0.503,1.1792003 -1.159,1.8517 -2.721,1.8402 -0.04,0.3993 0.01,0.6533 1.355,0.2037 1.227,0.3125 2.134,0.206 0.453,-0.3359 0.202,-0.7564 0.856,-0.4201 0.907,-1.1773 2.188001,-1.354 0.006,-0.0033 0.218,1.0162 0.05,0.4584 0.021,0.9802 0.1,0.5307 0.197,0.3433 0.496,0.4202 0.127,0.3014 0.421,0.3904 -0.843,1.6654 -0.237,0.3552 -0.342,0.1841 -0.321,0.4806 -0.231,0.6592 -0.09,0.7171 0.117,0.8759 0.194,0.7627 0.067,0.7791 -0.971,3.0461 -0.09,0.4502 -0.435001,0.9706 -0.994,1.0425 -1.908,1.5222 -1.971,1.0314 -1.566,1.1654 v 0.3341 l 0.194,0.5389 0.395,1.9007 0.073,0.6699 -0.133,1.0125 -0.335,0.6484 -0.86,0.7479 0.371,0.7516 0.563,0.4421 0.679,0.213 0.719,0.0523 0.65,0.2873 1.057,1.2508 0.884,0.4736 3.440001,2.5391 0.502,0.5886 1.108,2.1872 0.338,0.3263 0.616,0.288 0.93,1.2742 1.938,0.7687 z m -31.787001,5.8123 -0.095,-0.1919 0.055,-0.3949 0.758,-1.7801 -0.03,-0.406 -0.683,-0.0987 -0.482,-0.2183 -0.276,-0.2802 -0.393,-0.1522 -0.708,-0.5326 -2.13,-2.4864 -0.091,-0.154 -0.015,-0.0442 -0.025,-0.2939 v -0.2587 l 0.05,-0.2721 0.056,-0.4869 -0.005,-0.1236 -0.036,-0.1403 -0.05,-0.0935 -0.523,-0.4733 -0.134,-0.1926 -0.088,-0.2053 -0.095,-0.1031 -0.17,0.0126 -0.759,0.7249 -0.085,0.1295 -0.075,0.154 -0.055,0.1485 -0.141,0.0345 h -0.09 l -0.624,-0.4142 -0.753,0.6298 -0.176,0.3218 -0.04,0.1351 -0.076,0.1084 -0.18,0.0731 -0.323,0.0687 -1.22,-0.0854 -0.529,-0.2364 -0.105,-0.0798 -0.081,-0.1017 -0.045,-0.1184 0.02,-0.4921 -0.035,-0.1392 -0.095,-0.2212 0.02,-0.1021 0.05,-0.0839 0.03,-0.0742 -0.08,-0.0401 -0.362,-0.0097 -0.105,0.0565 -0.111,0.1117 -0.08,0.2958 -0.105,0.2394 -0.136,0.2527 -0.356,0.3248 -0.288,0.1692 -0.944,0.14 -0.09,0.0675 -0.307,0.8715 -0.04,0.1511 -0.025,0.157 v 0.1566 l 0.035,0.1317 0.051,0.1155 0.1,0.1703 0.035,0.0839 0.025,0.1058 v 0.1073 l -0.301,0.0356 -1.382,-0.6072 -0.241,-0.1128 -0.086,0.04 -0.08,0.0865 -0.11,0.2691 -0.067,0.1251 -0.044,0.1332 -0.02,0.1511 0.084,0.2227 0.032,0.2802 -0.02,0.4873 -0.146,0.7757 -0.077,1.4683 0.509,0.9201 -0.005,0.147 0.01,0.167 -0.88,1.0307 -0.101,0.085 -0.226,0.1221 -0.095,0.0917 -0.07,0.1151 -0.0505,0.1425 -0.0754,0.3233 -0.0453,0.3411 v 0.1685 l 0.0453,0.2932 0.0401,0.1329 0.1658,0.3106 -0.005,0.0549 -0.1408,0.1151 -0.0853,0.0928 -0.075,0.1069 -0.0553,0.1191 -0.0152,0.1259 0.0052,0.0835 -0.0401,0.0794 -0.0353,0.052 -0.3062,0.3778 -0.0501,0.1039 -0.0152,0.0794 0.0048,0.0546 0.0104,0.0275 0.0201,0.0233 0.0701,0.0669 0.5523,0.4242 0.1956,0.1039 0.121,0.0464 1.126,0.2272 0.09,-0.0138 0.131,-0.0545 0.105,-0.1808 0.095,-0.1121 0.101,-0.079 1.342,-0.6295 0.181,-0.003 0.231,0.0631 0.416,0.2572 0.276,0.3174 0.131,0.0163 0.195,-0.0394 0.891,-0.3448 0.175,-0.1109 0.041,-0.0383 0.06,-0.0137 0.055,0.0575 0.106,0.1971 0.18,0.4239 0.143,0.0631 0.113,0.0315 0.775,-0.2887 0.296,-0.0765 0.116,0.0791 0.171,0.2108 0.352,0.3418 0.195,0.3148 0.137,0.1558 0.592,0.2829 1.024,0.007 0.06,-0.3719 v -0.1369 l -0.02,-0.1585 -0.07,-0.2736 -0.02,-0.1451 -0.003,-0.1503 0.03,-0.1533 0.07,-0.1121 0.095,-0.0865 0.116,-0.0642 0.497,-0.19 0.296,-0.0453 0.161,0.0453 0.16,0.1162 0.171,0.327 0.08,0.2052 0.121,0.1681 0.157,0.0958 0.341,0.0382 0.267,-0.0107 0.095,-0.0342 0.101,-0.059 0.09,-0.0928 0.08,-0.1069 0.171,-0.0627 0.271,-0.003 1.221,0.4899 0.613,0.3582 0.815,0.271 0.165,0.0163 0.372,-0.0494 0.191,0.134 0.16,0.3118 0.126,0.8065 0.045,0.7011 v 0.1418 l 0.03,0.0672 0.03,0.079 0.308,-0.0163 0.422,-0.9153 0.135,-0.1299 0.071,-0.0397 0.738,-0.2487 0.06,-0.03 0.065,-0.0494 0.045,-0.0505 0.067,-0.1024 0.061,-0.1232 0.043,-0.1997 0.007,-0.2706 -0.077,-0.4662 v -0.3132 l 0.132,-0.3556 0.121,-0.1752 0.12,-0.1314 0.592,-0.4899 0.076,-0.1655 0.06,-0.2053 -0.015,-0.3437 0.015,-0.1681 0.04,-0.1685 0.106,-0.1069 0.21,-0.1778 0.046,-0.1069 v -0.1807 l -0.272,-0.3218 -0.205,-0.1822 -1.292,-0.5835 -0.608,-0.7813 -0.422,-0.2245 z"
     style="clip-rule:evenodd;fill:#3498db;fill-rule:nonzero;stroke:#ecf0f1;stroke-width:0.371156"
     id="path1" /></svg>
