<?xml version="1.0" encoding="UTF-8" standalone="no"?>
<!-- Created with Inkscape (http://www.inkscape.org/) -->

<svg
   width="369.67542"
   height="380.09329"
   viewBox="0 0 369.67542 380.09329"
   version="1.1"
   id="svg1"
   inkscape:export-filename="mv2.svg"
   inkscape:export-xdpi="120"
   inkscape:export-ydpi="120"
   xml:space="preserve"
   xmlns:inkscape="http://www.inkscape.org/namespaces/inkscape"
   xmlns:sodipodi="http://sodipodi.sourceforge.net/DTD/sodipodi-0.dtd"
   xmlns="http://www.w3.org/2000/svg"
   xmlns:svg="http://www.w3.org/2000/svg"><sodipodi:namedview
     id="namedview1"
     pagecolor="#ffffff"
     bordercolor="#000000"
     borderopacity="0.25"
     inkscape:showpageshadow="2"
     inkscape:pageopacity="0.0"
     inkscape:pagecheckerboard="0"
     inkscape:deskcolor="#d1d1d1"
     inkscape:document-units="px"
     inkscape:zoom="1.7019241"
     inkscape:cx="178.32758"
     inkscape:cy="203.29931"
     inkscape:window-width="1680"
     inkscape:window-height="937"
     inkscape:window-x="0"
     inkscape:window-y="25"
     inkscape:window-maximized="1"
     inkscape:current-layer="svg1"><inkscape:page
       x="0"
       y="0"
       width="369.67542"
       height="380.09329"
       id="page2"
       margin="0"
       bleed="0" /></sodipodi:namedview><defs
     id="defs1" /><path
     d="m 2.4999408,78.682742 13.1169992,1.946288 0.45795,-4.906608 2.486015,-0.261686 2.028065,1.046743 2.338817,-0.9159 0.883189,2.338817 3.320138,1.079454 3.009393,-0.817768 2.518726,-2.207974 -0.621504,-2.25704 1.733669,-2.518726 -1.651892,-7.687019 3.745378,-0.768702 4.121551,-4.530435 4.236038,-0.834124 6.329525,2.142553 0.310752,2.50237 4.677633,-1.668247 4.383237,0.441595 1.292073,-1.995354 -3.549113,-2.943965 6.640277,0.785057 3.352849,-4.906608 5.904285,1.12852 2.584147,-4.808476 2.158908,1.063098 2.96032,-1.553759 -0.588793,-5.85522 4.465013,-2.911254 -1.37385,-3.745377 3.549113,0.752346 0.245331,3.63089 3.074803,0.45795 4.13791,-2.927609 1.88087,3.778088 1.71731,-0.605148 0.19626,-1.766379 4.432307,-0.981322 2.91125,6.10055 5.41363,-0.735991 8.57021,4.857542 0.0654,2.780411 3.59818,1.684602 1.78273,4.432303 8.35759,-2.518725 8.35759,3.516402 5.85522,-1.717313 1.5374,0.834124 -1.07945,2.698634 1.88087,1.210297 7.49075,0.490661 -1.86451,4.105195 3.25472,2.158908 8.06319,-2.436949 3.20565,3.729023 2.66592,-2.46966 2.66593,-0.261686 -0.89955,1.308429 2.01171,0.245331 -0.26168,-1.357495 2.94396,-1.046743 1.65189,1.504693 -3.87622,2.993031 1.6846,-0.621504 1.70096,2.845833 3.09117,-0.801413 3.53275,-4.97203 3.99071,-0.850478 0.9159,-2.306106 2.01171,-0.294397 -0.11449,-3.516402 2.61686,0.03271 2.1262,-2.535081 3.50005,0.114488 2.07713,4.726699 2.86218,1.09581 1.52105,-6.951029 5.70802,-4.203328 4.00707,1.308429 2.32246,-0.785057 2.66592,6.116905 2.02807,-1.063099 v 0 l -0.17991,-0.294396 v 0 l 3.58182,-6.10055 -0.19626,-2.338816 1.84815,-0.06542 0.81777,1.668247 2.28975,-0.588793 1.86451,-5.789798 2.04442,1.046743 -0.65421,-5.789797 0.85048,-2.355172 1.92993,0.24533 1.48834,-2.224329 -0.63786,-3.647246 3.74538,-2.600502 4.12155,0.572438 0.73599,-5.495405 8.40666,-6.951028 2.66592,-0.752347 3.76173,2.093486 3.85987,-2.04442 1.04674,-2.093486 -5.0211,-3.009387 1.91358,-7.8342172 3.10752,7.147292 5.67531,2.3388172 -0.21262,5.348203 4.12155,3.565469 -1.48834,3.941645 1.6519,1.619181 8.78282,-2.224333 4.7267,0.850482 0.5888,2.878544 3.63089,0.45795 3.69631,-5.282785 6.1169,3.271076 2.94397,-0.261686 1.50469,-1.897225 1.76638,1.112167 0.50702,7.000095 -1.94629,5.086517 -9.99313,10.680051 -3.35285,6.264103 6.39495,-0.817768 5.47905,2.175263 5.18465,-0.899545 0.16355,-2.943965 4.02342,-1.635536 1.65189,-4.366881 3.17294,0.21262 6.65663,-3.59818 v 0 l 0.94861,9.126292 1.92994,0.441594 0.78505,2.25704 -4.49772,9.142647 -2.86219,1.880867 -0.93226,6.640276 2.02807,3.500047 -2.42059,10.827249 -2.02807,4.530431 -8.84825,8.35759 -11.98848,7.376266 1.70096,13.21513 -3.94164,7.98142 1.99535,2.37152 7.94871,1.3575 6.29681,7.18 7.58889,4.13791 11.74315,15.29226 13.85299,9.02816 4.26875,6.2641 -3.56547,6.59122 3.07481,7.3272 -5.59354,8.32488 -3.20565,1.45562 -1.55376,6.52579 2.82948,11.26885 2.28975,3.41827 -0.86683,3.10751 1.81544,2.79677 9.96042,2.97668 2.68228,3.40191 -0.78506,4.66128 -2.17526,2.09349 1.99535,4.33417 -2.58415,4.67763 0.21262,4.61221 8.03048,8.58657 -1.42291,1.91357 0.27804,3.77809 -3.48369,4.95568 0.75234,1.66824 -1.70095,2.81313 1.60282,5.67531 -2.68228,6.93467 -8.81554,7.78515 -2.02806,4.75941 1.6846,3.76173 4.08884,1.57012 2.37153,11.71044 7.18,6.31317 2.04442,4.71034 0.78506,8.84825 -3.61454,4.20333 v 0 l -3.46733,-2.63321 0.70328,3.23836 -2.51873,4.21968 -6.68934,0.49066 -1.979,-3.61453 -2.97667,-1.43928 -2.4206,1.27572 -0.67057,2.25704 -8.71741,0.2944 -0.71963,2.40424 -6.14962,0.17991 -4.80847,3.89257 -0.93226,2.53508 -0.89954,-1.35749 v 0 l -0.0654,-0.78506 v 0 l -5.62624,-2.69863 -2.51872,0.7687 -3.35285,-1.96265 -7.93235,-0.65421 -0.85048,1.86451 1.14487,1.47198 -3.63089,0.40889 -1.12852,3.84351 -2.10984,0.88319 1.42292,2.6005 -5.67531,0.17991 2.97667,5.11923 -2.6005,1.63553 0.86683,2.78041 -3.05845,2.2734 1.16123,1.42292 -2.42059,0.24533 -0.58879,3.59818 -2.91126,-0.55609 0.0818,-2.82947 -1.30843,-0.52338 -5.51176,2.78042 -7.44169,-0.78506 -1.58647,2.51872 -3.77808,-0.16355 -1.03039,1.30843 -0.70328,-1.30843 -2.68228,1.42292 -7.73609,-2.45331 -0.9159,1.19394 -6.47672,0.0981 -0.85048,-2.46966 -1.979,-0.22898 -2.63321,2.6005 -0.65422,-2.02806 -1.45562,-0.0818 -0.35982,-3.30378 -5.937,-1.6846 1.07946,-1.11217 -2.82948,-2.3061 -2.64957,1.75002 0.71964,-1.99535 -2.92761,-3.1893 -2.45331,2.86219 0.26169,1.81544 -5.70802,-1.91357 0.55608,1.79909 -4.41595,2.4533 -0.0654,2.1262 -2.6005,-0.2944 0.65421,2.58415 -5.46269,-1.88087 -2.22433,-6.68934 -0.49066,2.07713 -1.3902,-0.70328 2.8949,-3.77809 -2.15891,-4.03977 0.24533,-2.79677 1.75002,-0.13084 0.62151,-5.28278 -2.30611,-5.54447 -4.33417,-1.96265 1.8318,-4.15426 -4.07248,-4.48137 -3.66361,1.91358 -3.53275,-6.24775 v 0 l 9.96041,-6.44401 1.30843,-1.34114 -0.83412,-3.07481 3.43462,-0.94861 -3.43462,-4.79212 1.22665,-1.03039 -1.75003,-2.86218 1.57012,-6.32953 -4.26875,-8.42301 3.17294,-0.75235 -1.40656,-3.18929 -1.96264,-0.35982 -4.02342,2.32246 -4.15426,-0.52337 -1.37385,-1.5374 1.14487,0.0163 0.65421,-3.33649 -7.55617,0.0818 0.19626,-3.59817 -1.979,-0.34347 0.21262,-2.10984 -4.02342,-0.68692 -3.17294,2.01171 -0.29439,-1.14488 -3.54912,-0.16355 -0.7687,-5.52812 -6.77112,0.86684 -2.53508,-4.03978 -8.78283,-4.26874 -1.58647,-0.11449 -1.19394,3.09116 -3.14023,0.4416 -0.21262,1.63553 -7.55617,-0.58879 -0.40889,-2.86219 -4.7267,-1.88087 -1.16123,-3.32013 -1.88086,-0.17991 -1.16123,2.92761 -1.60283,0.13084 -4.79212,-4.51408 -3.14023,-0.7687 -4.77577,-7.52347 -3.92528,-2.04442 -1.42292,-4.74305 -4.51408,-6.21504 0.89955,-2.61686 2.04442,0.0327 0.0818,-4.62856 5.21736,-2.79677 -3.90893,-1.14488 1.27572,-0.86683 -2.78041,-2.06078 3.23836,-10.92538 3.20565,-5.10287 -2.58415,-3.28743 2.28975,-2.09348 -1.243,-1.39021 0.78505,-3.5164 -2.78041,-1.3575 2.37153,-1.5374 -0.81777,-1.16123 4.43231,-8.07955 -2.32247,-1.81545 2.25704,-1.45562 -6.21503,1.73367 -1.16123,-1.53741 1.07945,-0.86683 -2.86219,-3.61454 -2.53508,3.50005 -3.418267,0.85048 -1.91358,-3.07481 2.38789,-3.20565 -1.94629,-1.16123 -2.86219,1.55376 3.74538,-7.60524 -1.0631,-8.70106 3.401907,1.09581 2.82948,-1.78273 v 0 l 0.19627,-1.63554 v 0 l 0.63785,-7.29449 -1.79908,-1.37385 0.53972,-2.53508 -1.86451,-1.29207 0.34346,-1.48834 -1.242997,0.32711 2.420587,-4.48137 -1.3575,-2.48602 1.19395,-5.00474 3.05845,-0.29439 0.83412,-2.61686 -2.51872,-9.71509 -3.434627,-1.11216 -0.67057,-1.73367 -7.19636,4.36688 -0.19626,-6.98374 -1.24301,2.99303 -9.3062,-2.33881 -4.497725,2.50237 -9.338911,-3.27107 -2.322461,-2.53509 -3.663601,-0.0491 -1.259363,-2.02807 2.747701,-3.3692 -0.441595,-1.99535 -6.051483,-1.42292 -4.579501,-4.92296 -4.955675,2.0117 -1.79909,-5.315486 -5.282781,-0.60515 1.439272,-4.61221 -4.121551,0.39253 v 0 l -5.397269,-3.0421 -4.023426,0.83413 -5.789798,-5.217361 -11.923058,3.990701 -6.8528962,-7.408972 z M 231.09883,156.74688 v 0 l -0.91591,1.14487 2.10985,1.99536 -2.73135,0.14719 -2.20797,2.45331 -3.00939,-2.06078 -3.61453,4.18698 -5.23372,-0.88319 0.0327,-4.90661 -2.78041,-0.5888 -0.0327,3.23837 -2.25704,0.31075 0.27804,2.20797 -4.48137,-0.0981 -1.99535,3.63089 1.57011,3.25472 -5.4954,-1.88087 -3.6636,2.1262 2.58415,1.979 -0.81777,3.77808 -1.96264,0.45795 -1.03039,5.6426 2.71499,-0.4743 2.48601,1.76638 -5.11923,5.33184 -0.86683,4.93932 1.3575,1.92994 -2.7477,2.68228 v 0 l -0.65422,1.78273 v 0 l 0.75235,0.0164 v 0 l 0.50701,0.27804 v 0 l 3.58183,2.04442 -1.03039,1.34114 v 0 l 0.55608,-0.0327 v 0 l 3.99071,-0.80142 -1.32478,-0.22897 0.93225,-1.65189 6.05149,-2.55144 2.10984,0.21262 0.34346,2.66592 2.6005,0.0327 2.40424,-2.02806 0.7687,1.73367 v 0 l 1.61918,0.52337 v 0 l 2.40424,-1.24301 2.81312,3.74538 1.65189,0.0491 0.24533,1.76637 3.23837,0.32711 0.0327,-5.80615 4.84118,-1.6846 1.39021,4.08884 5.83886,-0.70328 0.0981,1.79909 5.69166,-0.67057 1.60283,3.12387 2.33881,-1.30843 1.52105,0.96497 -0.75235,5.31549 1.16124,1.2103 2.6005,-4.66128 2.78041,-1.48834 -1.39021,-1.92993 4.46502,-2.28975 v 0 l 1.03038,-1.70096 v 0 l -0.70328,-1.88087 v 0 l 0.5888,-1.04674 v 0 l 0.50701,-0.0654 v 0 l -0.0491,-0.39253 v 0 l -1.84816,-0.88319 v 0 l 1.52105,0.35982 v 0 l 2.02806,-1.86451 -6.05148,-4.20333 0.57244,2.20797 -6.0842,-4.08884 -2.56779,2.17527 -1.27572,-0.93226 4.79213,-9.94406 -2.97668,-0.19626 0.81777,-1.8318 -5.28278,-1.24301 -0.17991,-3.76173 -3.36921,-2.8949 -4.38323,-0.78506 -1.12852,-2.64957 2.64956,-6.34588 -3.72902,-2.28975 0.0981,-2.27339 -1.16123,0.55608 v 0 l 0.27805,-0.94861 v 0 l -0.62151,-0.16356 v 0 l -0.85048,1.16123 z"
     title="Brandenburg"
     id="DE-BB"
     style="fill:none;stroke:#000000;stroke-width:5;stroke-linecap:round;stroke-linejoin:round;stroke-dasharray:none;stroke-opacity:1" /></svg>
