<?xml version="1.0" encoding="UTF-8" standalone="no"?>
<!-- Created with Inkscape (http://www.inkscape.org/) -->

<svg
   width="372.45499"
   height="308.6925"
   viewBox="0 0 372.45499 308.6925"
   version="1.1"
   id="svg1"
   inkscape:export-filename="bb.svg"
   inkscape:export-xdpi="120"
   inkscape:export-ydpi="120"
   xml:space="preserve"
   xmlns:inkscape="http://www.inkscape.org/namespaces/inkscape"
   xmlns:sodipodi="http://sodipodi.sourceforge.net/DTD/sodipodi-0.dtd"
   xmlns="http://www.w3.org/2000/svg"
   xmlns:svg="http://www.w3.org/2000/svg"><sodipodi:namedview
     id="namedview1"
     pagecolor="#ffffff"
     bordercolor="#000000"
     borderopacity="0.25"
     inkscape:showpageshadow="2"
     inkscape:pageopacity="0.0"
     inkscape:pagecheckerboard="0"
     inkscape:deskcolor="#d1d1d1"
     inkscape:document-units="px"
     inkscape:zoom="1.7019241"
     inkscape:cx="178.32758"
     inkscape:cy="203.29931"
     inkscape:window-width="1680"
     inkscape:window-height="937"
     inkscape:window-x="0"
     inkscape:window-y="25"
     inkscape:window-maximized="1"
     inkscape:current-layer="svg1"><inkscape:page
       x="0"
       y="0"
       width="372.45499"
       height="308.6925"
       id="page2"
       margin="0"
       bleed="0" /></sodipodi:namedview><defs
     id="defs1" /><path
     d="m 214.95522,8.1158874 0.60479,0.345586 v 0 l 6.13434,-2.937561 -0.6048,12.0094726 19.69898,12.182266 -13.99664,33.522841 5.96153,13.99665 23.06856,4.14715 17.79821,15.29264 0.95039,19.871788 27.90689,6.56633 -4.31995,9.67669 15.72464,1.03678 -25.31494,52.44425 6.73913,5.01114 13.56465,-11.49108 32.14046,21.68618 -3.02397,-11.66388 31.96766,22.20456 -10.71348,9.84949 v 0 l -8.03512,-1.90077 v 0 l 9.7631,4.66554 v 0 l 0.25919,2.07358 v 0 l -2.67837,0.3456 v 0 l -3.11037,5.52954 v 0 l 3.80157,9.84949 v 0 l -5.44314,8.9855 v 0 l -23.58695,12.09587 7.34391,10.1951 -14.77424,7.77591 -13.73744,24.71013 -6.13434,-6.39353 3.97436,-28.0797 -8.12151,-5.09754 -12.35507,6.91193 -8.38072,-16.50222 -30.06687,3.54236 -0.60479,-9.5903 -30.84447,3.71516 -7.34392,-21.59977 -25.57412,8.89911 -0.17281,30.67167 -17.10701,-1.64158 -1.29599,-9.4175 -8.81271,-0.2592 -14.86064,-19.78539 -12.70066,6.56633 v 0 l -8.5535,-2.76476 v 0 l -4.06076,-9.24471 -12.70067,10.71349 -13.823846,-0.1728 -1.81438,-13.99666 -11.145484,-1.12318 -31.967658,13.56465 -4.924747,8.72632 6.998329,1.12318 -21.081377,4.23355 v 0 l -2.937568,0.1728 v 0 L 28.07402,252.27966 9.1526247,241.47977 v 0 l -2.678372,-1.46878 v 0 l -3.974357,-0.0864 v 0 l 3.455962,-9.4175 v 0 l 14.6014443,-14.16943 -7.171124,-10.1951 4.579151,-26.09251 27.042909,-28.07971 -13.219058,-9.3311 -14.255847,2.50558 5.443143,-29.80769 10.281488,-2.41916 4.319948,-19.958198 -13.651047,-10.54065 19.353389,-11.14548 29.030097,9.93589 -8.294304,-17.19341 10.54068,-19.180592 23.673347,0.518392 -1.46878,-11.663874 11.923056,-1.641585 0.17281,-17.107014 14.68783,3.110367 -0.17279,25.833326 27.6477,4.751941 19.09419,-22.118156 15.89744,10.886277 11.66387,-12.95986 14.42864,-0.777595 -11.14548,-10.54068 4.83835,-6.0479406 v 0 l 7.86232,-4.579148 v 0 l 3.28316,0.950388 v 0 z"
     title="Berlin"
     id="DE-BE"
     style="fill:none;fill-opacity:1;stroke:#000000;stroke-width:5;stroke-linecap:round;stroke-linejoin:round;stroke-dasharray:none;stroke-opacity:1" /></svg>
