<?xml version="1.0" encoding="UTF-8" standalone="no"?>
<!-- Created with Inkscape (http://www.inkscape.org/) -->

<svg
   width="342.86081"
   height="391.40854"
   viewBox="0 0 342.86081 391.40854"
   version="1.1"
   id="svg1"
   inkscape:export-filename="BY.svg"
   inkscape:export-xdpi="120"
   inkscape:export-ydpi="120"
   xml:space="preserve"
   xmlns:inkscape="http://www.inkscape.org/namespaces/inkscape"
   xmlns:sodipodi="http://sodipodi.sourceforge.net/DTD/sodipodi-0.dtd"
   xmlns="http://www.w3.org/2000/svg"
   xmlns:svg="http://www.w3.org/2000/svg"><sodipodi:namedview
     id="namedview1"
     pagecolor="#ffffff"
     bordercolor="#000000"
     borderopacity="0.25"
     inkscape:showpageshadow="2"
     inkscape:pageopacity="0.0"
     inkscape:pagecheckerboard="0"
     inkscape:deskcolor="#d1d1d1"
     inkscape:document-units="px"
     inkscape:zoom="1.7019241"
     inkscape:cx="178.32758"
     inkscape:cy="203.29931"
     inkscape:window-width="1680"
     inkscape:window-height="937"
     inkscape:window-x="0"
     inkscape:window-y="25"
     inkscape:window-maximized="1"
     inkscape:current-layer="svg1"><inkscape:page
       x="0"
       y="0"
       width="342.86081"
       height="391.40854"
       id="page2"
       margin="0"
       bleed="0" /></sodipodi:namedview><defs
     id="defs1" /><path
     d="m 137.51636,358.85951 1.03066,3.71394 -2.54111,-1.03066 -3.60731,1.27943 1.79477,-1.86585 -1.11951,-2.45226 z m 45.15358,-318.971529 10.32437,0.60418 5.04668,-1.20836 1.26166,-2.221251 v 0 l 1.03066,0.05331 v 0 l 2.82543,-3.64285 -1.58153,-3.30522 3.80278,-3.74947 4.47804,1.93693 2.68328,-2.345641 2.02578,2.41672 2.41672,-0.337629 1.54598,-2.36341 -2.22124,-2.381181 2.41672,-3.09198 -0.24879,-3.71393 -3.67838,-3.376301 -0.55087,4.709051 -2.71881,-0.07108 -1.5993,-2.54111 3.32299,-1.75923 -8.81392,-1.688151 3.07421,-0.95958 -0.85296,-4.2470294 4.08709,-0.1243908 2.29234,-1.7414603 2.27456,1.5993005 3.76724,-3.4651504 3.69616,3.5362303 2.47002,-3.07421 2.59442,-0.3198595 1.15506,4.1581793 3.74947,-0.3198594 1.86585,3.8916297 -0.58641,-5.3132295 1.22612,-1.4038307 1.75924,0.7463407 7.53448,-2.2745605 -0.44425,3.1808301 v 0 l -0.23101,2.8076602 v 0 l 0.3554,3.4118397 -2.20348,0.977351 1.72369,1.492679 -1.91917,3.358531 3.19861,3.00313 v 0 l 0.94181,-0.31986 v 0 l 1.63484,-0.76411 0.19547,-4.033791 3.67839,-1.90139 1.91916,6.876991 v 0 h 1.04843 v 0 l 1.88362,-3.85609 5.18884,-3.642851 -0.51533,1.705921 4.31811,3.23414 -0.3554,8.81392 2.80766,1.65261 1.93693,5.597551 -3.39407,2.8432 0.67526,3.003131 -4.17595,3.85609 5.40208,1.74146 0.62195,-3.83832 3.85609,-3.482921 1.88362,0.924041 -1.93693,3.46515 2.47003,-0.08885 0.0711,1.54599 v 0 h 0.46201 v 0 l -1.26167,10.484301 1.54599,1.54599 10.32438,-0.15993 1.26166,-3.1986 3.50069,-2.363411 -2.41672,-2.15017 2.91428,-2.967591 2.98536,2.079091 -0.7108,3.94494 4.2648,0.44425 -2.45225,3.1986 2.45225,4.780131 -1.91916,0.1777 -1.20836,2.594421 4.47805,1.741459 3.18082,7.267931 -6.18396,2.91428 1.83031,4.957831 -1.88362,-0.24878 -0.42647,1.741459 0.79964,2.221251 3.64285,1.0662 -1.13727,3.89163 2.82542,3.518461 -2.57665,3.038676 -1.13727,-2.256797 -1.61708,2.967596 2.66551,1.012892 -1.59931,0.888499 2.31011,6.255039 -1.52823,-0.0355 -0.21323,2.04355 3.51845,1.15505 1.45715,2.54111 1.27943,-0.78188 2.20349,4.78013 2.23902,-1.45714 3.28745,2.50557 0.83519,3.34076 -3.44738,1.84808 -1.74147,3.07421 2.11464,1.95471 2.5411,-0.33763 -1.79477,2.73657 3.10975,2.23902 -1.31498,3.89163 4.88676,-0.4087 3.16305,2.82542 3.02091,-0.28432 0.8885,4.06933 2.82542,0.63973 v 2.13239 l 1.58153,-0.30209 1.20836,1.9547 0.85296,-0.92404 -0.95957,2.98536 1.49267,-0.3554 1.40383,3.71394 2.39895,1.45713 -1.4749,0.83519 2.15016,2.89652 -3.85608,1.93692 3.48292,2.89652 -0.0178,5.1533 -2.91428,2.64773 2.41672,2.16794 0.0533,3.32299 -3.19859,2.13239 1.36829,3.90941 -2.31011,0.85296 1.74146,2.50556 -1.33274,1.63485 3.44738,3.16306 1.93693,-1.20836 -1.01289,1.17282 3.10975,3.51846 -1.29721,0.90626 2.6655,2.62997 -3.39408,2.8965 -6.11287,1.56377 1.75922,-1.97247 -0.42647,-2.96759 1.75923,-0.49756 -3.39408,-0.78188 -2.25679,5.33099 -3.10975,2.23902 -2.91428,-6.13064 -3.53622,0.65749 -3.98048,-2.98537 0.49756,2.89652 -1.90139,0.97735 -0.1777,2.57665 7.6411,9.63133 -2.77212,0.88851 -0.51533,2.38117 2.23902,4.28258 -1.33276,3.66062 1.04843,3.39407 -8.60068,1.9547 -0.87073,0.85296 1.63485,0.14216 -0.0533,2.36341 -6.52158,2.75435 -1.45715,3.00313 -4.33588,0.44425 -2.94982,-3.78501 -4.88674,3.9094 -2.93205,-0.76411 -1.04843,3.66062 1.56376,1.4216 -8.04982,8.654 0.51533,2.47002 2.68328,0.0888 -0.10663,2.71881 7.60556,11.12403 -0.10662,8.13866 5.01114,17.34351 3.1453,3.25192 0.95957,6.4505 v 0 2.59442 0 l -0.47979,0.92405 v 0 l 0.14216,1.1195 v 0 l -2.94982,12.06584 -3.10975,1.29721 v 3.10975 l 2.61219,2.57664 -0.14216,3.83833 -1.54599,4.35365 1.10174,0.83519 -3.1986,2.23902 0.55088,1.79477 2.52333,-1.29721 -1.58153,3.62508 1.74146,-1.81254 -0.47979,1.74146 3.99825,5.49093 -2.00801,-0.40871 -0.65749,1.97247 -2.61219,-0.63972 -3.12752,2.8432 6.16619,4.56689 -0.19547,6.85922 2.66551,2.98536 -1.0129,4.05156 -2.13239,1.93693 -2.36342,-1.20836 -1.63484,5.6864 -1.38606,-6.07733 -3.78501,0.14215 -0.44425,-1.93693 -3.12752,0.99512 -3.96271,4.85121 -12.70555,-4.42473 -2.38118,1.68815 v 0 l -0.0888,0.74635 v 0 l -1.70592,2.43449 -2.78989,0.37316 0.33763,2.06132 -4.67351,3.78502 -5.38431,1.74145 -5.36654,-1.65261 -2.18571,1.45715 -3.05644,3.6073 -1.33275,5.57978 v 0 l -15.2289,-2.78988 -31.57729,-15.53099 -10.92855,-3.78501 -7.97873,-1.03066 -14.0383,6.30835 -4.95783,-5.59755 0.0711,-2.39895 2.52334,0.33763 -0.1777,-1.63483 -6.02403,-1.65262 -1.11951,-4.10487 -4.35365,3.25191 -0.0711,1.93693 4.51358,2.18571 -1.9547,3.28745 -7.41009,-3.18082 1.04843,-3.78502 -2.6655,-2.00801 1.04843,-2.75435 2.15017,-0.62195 -2.02578,-2.77212 -3.30522,1.45714 -1.13728,-4.7979 -3.35853,-2.57665 -1.11951,2.00801 0.8885,2.50557 -2.62996,2.41672 -1.29721,-6.71706 -4.69128,-0.14216 -1.04843,-1.40383 -0.60418,2.39895 1.63484,2.06132 -2.73658,-0.51533 -3.60731,2.34564 -4.10488,0.14216 -3.92716,5.01114 0.55087,2.94982 -5.41986,4.01602 1.67039,2.50558 -1.72369,1.67037 4.46027,3.28745 2.54111,-0.44424 0.90627,3.00312 -0.26656,-1.777 2.32788,1.3683 3.69616,-0.51534 -0.0355,-2.61218 1.5993,0.49755 0.44425,-1.67038 3.98048,0.78188 2.86096,-1.70592 2.62997,4.17596 -1.40383,1.67037 -0.76411,-2.43449 -1.45714,1.54599 0.99511,4.95783 -3.30521,3.09198 -1.65261,-1.03066 0.90627,-2.64773 -5.6331,-2.71881 -1.33274,2.62996 -5.79302,2.6655 1.22613,2.91428 2.41672,-0.76411 -0.23101,1.88363 -6.27281,1.86585 -3.82056,-1.84809 -1.67037,1.86586 -6.734826,-1.22613 -3.94494,-6.09512 -3.60731,-0.94181 -3.44738,1.75923 -2.41672,-2.68327 -4.53135,4.38919 -6.27281,2.11463 -2.2568,4.06934 -2.452255,-1.13729 -5.45539,2.32788 -6.859221,-1.20836 -1.84808,2.32786 -3.429611,-1.0662 -2.34564,-6.20173 -7.889881,-0.10662 -2.94982,5.08223 -11.710431,4.19371 -2.89651,-0.65749 -3.71393,-4.17595 5.84633,-0.7641 -1.599299,-3.51847 2.327869,-2.29233 -2.11463,1.51046 -2.98536,-0.62196 -3.09198,2.98536 -3.35853,-2.04354 -2.7010413,-7.16132 -4.9756,-4.9756 -1.22613,-5.89964 4.12264,-6.09511 -2.061321,-7.65888 3.678391,-10.43098 -0.62195,-6.36166 2.8432003,-3.05644 0.15993,-5.63309 4.4425,-6.98361 -1.617069,-4.94006 -4.3536513,-5.57978 0.83519,-14.60694 10.1644413,-17.13028 3.020901,-13.61183 5.84633,-4.31811 -1.38606,-11.42611 3.57177,-10.07559 0.497561,-6.23727 4.264799,-4.17595 -0.67526,-11.83482 4.424731,-9.73796 5.66863,-3.60732 8.458521,-10.25328 0.8885,-6.02403 4.95783,-0.55087 1.581531,-4.37142 4.175949,-0.51533 2.594423,-2.31011 6.752603,-17.50344 5.47316,-9.06271 3.96271,-1.52821 v 0 l 5.86409,-5.02892 v 0 l 1.49269,-3.21637 v 0 l 1.67038,-6.87699 5.29545,-8.08535 1.03066,-11.78151 4.193726,-8.68953 -2.23902,0.12439 0.60418,-2.772124 11.07071,-10.430991 -4.31812,-5.153301 5.38432,-7.232391 0.23101,-3.78501 -2.98536,2.59442 -1.24391,-1.35052 3.69617,-3.46515 1.38606,-5.846331 -7.32125,-2.64773 2.34565,-3.57177 -5.41985,-14.411471 0.79965,-5.259921 v 0 l 2.86097,-1.01289 3.12752,1.0662 9.70242,12.030292 3.98048,-2.949821 1.29721,0.56864 0.94181,-2.25679 -2.34564,-11.994751 10.99963,-2.36341 -0.5331,2.61219 -0.7108,-2.41672 -1.29721,0.94181 3.10975,3.3763 -1.91916,3.76724 2.80766,4.691281 -0.3554,2.27456 3.50069,3.00313 v 0 l -0.0178,-0.462019 v 0 l 7.33901,1.617069 2.89651,-2.22125 -0.60417,3.25191 1.6526,2.452261 1.67038,-1.599301 5.89964,-0.319859 0.15993,3.14529 -2.64772,3.09198 -1.65262,0.12439 -1.08396,-3.003131 -3.03868,2.665501 1.36829,5.98849 -4.10487,4.069331 1.51045,2.36341 1.88362,-1.88362 2.06132,2.15017 4.97561,-4.53135 0.92403,-3.92717 1.22613,1.101739 4.19372,-3.10975 -2.1324,-2.50557 1.03066,-2.55888 1.54599,0.33763 -0.26655,-3.67839 3.83833,-1.10174 4.51358,2.221249 2.41672,-1.90139 v 0 l 0.46201,-0.85296 v 0 l 1.63484,-2.91428 3.92718,0.7108 0.78187,2.8432 2.20349,-1.26167 -6.05957,-8.369671 0.15993,-1.84808 1.08396,2.47003 1.91916,0.177701 z"
     title="Baden-Wurttemberg"
     id="DE-BW"
     style="fill:none;stroke:#000000;stroke-width:5;stroke-linecap:round;stroke-linejoin:round;stroke-dasharray:none;stroke-opacity:1" /></svg>
