<?xml version="1.0" encoding="UTF-8" standalone="no"?>
<!-- Created with Inkscape (http://www.inkscape.org/) -->

<svg
   width="379.39453"
   height="389.98734"
   viewBox="0 0 379.39453 389.98734"
   version="1.1"
   id="svg1"
   inkscape:export-filename="SL.svg"
   inkscape:export-xdpi="120"
   inkscape:export-ydpi="120"
   xml:space="preserve"
   xmlns:inkscape="http://www.inkscape.org/namespaces/inkscape"
   xmlns:sodipodi="http://sodipodi.sourceforge.net/DTD/sodipodi-0.dtd"
   xmlns="http://www.w3.org/2000/svg"
   xmlns:svg="http://www.w3.org/2000/svg"><sodipodi:namedview
     id="namedview1"
     pagecolor="#ffffff"
     bordercolor="#000000"
     borderopacity="0.25"
     inkscape:showpageshadow="2"
     inkscape:pageopacity="0.0"
     inkscape:pagecheckerboard="0"
     inkscape:deskcolor="#d1d1d1"
     inkscape:document-units="px"
     inkscape:zoom="1.7019241"
     inkscape:cx="178.32758"
     inkscape:cy="203.29931"
     inkscape:window-width="1680"
     inkscape:window-height="937"
     inkscape:window-x="0"
     inkscape:window-y="25"
     inkscape:window-maximized="1"
     inkscape:current-layer="svg1"><inkscape:page
       x="0"
       y="0"
       width="379.39453"
       height="389.98734"
       id="page2"
       margin="0"
       bleed="0" /></sodipodi:namedview><defs
     id="defs1" /><path
     d="m 84.512209,8.2250609 2.367371,-1.256156 -0.132862,-1.111215 2.898819,-3.3578023 2.645175,2.536469 0.62807,-1.14745 1.88425,1.14745 0.30195,-1.0870575 1.88424,-0.2898825 0.36235,1.6668225 1.78761,1.1353718 0.0362,2.403606 1.835918,-0.241568 3.56313,2.3432141 2.16205,-0.03623 0.53144,3.442351 2.37946,3.249096 1.05082,-0.144941 -0.82133,0.905881 2.42776,0.773019 -1.4011,2.029176 0.82134,1.799684 4.39654,-0.942117 1.61851,3.394038 v 0 h 0.56769 v 0 l 0.85756,-0.217412 -0.0241,2.415685 1.57019,-0.54353 0.21741,1.159529 1.35279,-1.872155 0.93004,0.205333 1.31655,3.14039 2.93506,0.507294 -0.59185,3.116233 0.93004,1.799685 -0.99043,2.560626 1.26823,-0.02416 -0.71263,1.002508 0.9542,1.690979 -1.03874,0.422745 0.78509,1.847999 1.69099,0.857568 2.27074,-0.833411 2.76596,2.162037 v 0 h 0.39858 v 0 l 1.29239,0.881726 1.00251,-0.809254 0.13287,-4.795135 2.9109,1.183686 2.45192,-1.231999 1.64266,1.6789 1.848,-0.797176 -0.0845,-3.708076 -2.62102,-0.471059 v 0 h -0.42274 v 0 l -0.20534,-1.473567 -2.48815,-0.193254 -2.22243,-2.693489 -2.00502,-0.628078 0.97835,-2.83843 -1.1716,-0.181176 0.21741,-2.22243 2.95921,0.760941 2.42777,-3.200783 1.47356,0.640157 2.06541,-1.570196 2.31906,0.54353 1.07498,-1.026666 1.15953,1.932548 1.30447,-0.785098 v 0 l 0.57976,-0.22949 v 0 l 1.53397,-0.422745 3.76846,5.362821 0.99044,-0.193255 -0.31405,-1.92047 3.33365,0.640157 0.5556,1.932548 3.16455,-0.942118 0.2778,-1.630587 2.02918,-0.157019 0.20533,2.113724 1.53397,-0.483137 1.53396,2.717645 -1.88424,3.68392 0.97836,1.703057 2.77803,0.591843 -0.49521,1.30447 1.11121,-0.38651 0.37443,-2.403606 4.33615,2.947135 0.39859,-2.439842 v 0 h 0.31404 v 0 l -0.70055,-0.579764 1.36486,-1.509802 -0.616,-3.708076 1.14745,0.09662 -1.13537,-1.847999 1.77553,-1.050823 -2.04125,-4.807212 0.68847,-3.671842 -1.43733,-2.234508 -0.0362,-3.587292 3.01961,-0.76094 0.30195,1.14745 0.85757,-1.666823 1.55812,-0.169097 -0.0604,-2.1378821 1.96878,-0.265725 -0.0845,-1.207842 6.5465,1.14745 0.76094,1.4373331 -0.42274,0.954195 -1.17161,-0.289882 0.0242,5.97882 2.33113,1.521881 -0.59184,1.437332 1.6789,-1.461489 1.4011,0.217412 -0.28988,3.563135 3.20078,0.579764 0.1087,2.536469 2.92298,-1.268235 0.86965,-1.76345 1.71513,-0.350274 2.39153,1.860077 6.41365,-1.799684 0.45898,0.773018 1.92046,-1.570194 1.88424,0.386509 -0.84549,-1.050822 1.54604,0.519371 0.53145,-1.111214 3.50274,2.041253 v 1.582273 l 7.58526,-4.082506 v 0 l 2.30697,1.872155 -0.31404,1.497724 1.15953,-0.53145 1.43734,1.37694 -0.44691,4.541488 1.53396,-0.434824 3.76847,3.442351 0.0845,-0.748862 3.4182,-0.193255 0.70055,1.860078 v 0 l 1.88423,1.389018 -0.48314,1.111215 1.61851,2.584782 -3.24909,1.594353 -0.48314,1.558116 2.72973,1.980862 1.7876,-0.338196 0.73679,2.98337 1.12329,-0.326117 0.65224,1.715136 1.08706,0.06039 -0.61601,0.531451 2.05334,3.104155 -1.65475,3.152468 0.41066,3.949645 2.45193,1.787607 1.28031,-0.362353 2.07749,2.512312 -1.07498,2.162037 4.34823,0.652236 0.80926,2.427762 0.77301,-0.83341 2.30698,2.657253 2.53647,0.181176 0.10871,1.292391 2.22243,0.301961 0.0845,2.125803 2.17411,-1.256156 2.27074,1.666822 0.71263,1.099137 -2.18619,2.778037 0.54353,1.509802 5.35074,1.823843 0.22949,2.379449 -4.05835,5.266197 0.0362,2.174117 -1.78761,0.289882 -0.7851,2.971293 0.60392,2.886753 -5.44736,3.05584 0.13285,2.174105 2.94714,4.62604 3.50274,1.94462 2.6331,0.0845 0.48314,8.09254 2.50023,-0.18118 2.25867,9.66273 2.43984,1.34071 1.14745,-0.68847 0.59184,1.05083 -0.80925,5.49568 1.7876,2.81427 0.0362,2.22243 3.93757,1.15953 3.76846,3.5269 1.76345,5.64062 5.22996,0.2778 2.62101,1.78761 -0.0362,-2.45192 4.78306,0.73679 4.83137,4.5294 1.70306,0.18118 0.37442,4.66228 1.5702,0.0966 0.56769,1.54604 1.54604,0.45898 0.51937,2.22243 2.00502,1.14745 -0.20533,1.86008 4.65019,3.49066 0.51937,4.16706 4.38446,2.72972 4.13083,-0.5556 8.02007,7.6094 0.76094,7.83889 7.07796,5.31452 0.99043,-0.14495 -0.0242,-3.08 1.848,-0.60391 3.75639,0.4469 2.17411,3.81678 1.5702,-1.35278 -0.49521,1.23199 3.74431,6.82432 3.43027,0.30195 1.6789,-0.99042 2.00502,5.9305 2.22243,0.65224 1.6789,3.70807 -0.73679,2.00502 2.66934,1.07497 -3.49066,6.55859 1.3407,1.60643 1.9567,0.35028 -1.92046,0.83341 0.82132,8.95011 -1.77553,2.11373 0.0362,2.48815 -2.43985,2.33114 -0.85757,-1.15953 -0.94211,1.25615 0.20533,2.464 -1.26824,2.05333 -5.06086,-2.27074 -0.8938,-1.63059 -3.67184,-2.1258 -2.52439,0.74886 -4.98839,-3.44235 -0.19325,1.66682 -2.33114,2.23451 -1.9567,-0.93003 -0.90588,0.68847 1.43733,5.37489 -2.41568,6.37741 0.97835,3.03168 -2.17413,6.48612 -5.88218,5.61646 -6.07545,3.82886 -5.64063,-0.26572 -12.38038,4.29992 -4.87968,5.53192 -6.72769,0.8938 -1.73928,3.9738 -3.70808,2.43984 -1.0629,2.68142 -2.1258,-0.37444 -0.66432,1.98087 0.99043,4.17913 6.86054,6.58274 1.77554,6.02713 3.03168,0.76095 0.64016,1.93254 1.23199,-0.43482 5.0367,10.73772 -5.82179,8.81725 1.14745,0.91796 -2.68142,4.63811 1.55812,1.44941 3.34573,0.35028 3.49066,-1.79969 4.89176,4.16705 -0.2778,1.94464 1.66682,3.98587 -2.77804,3.7564 0.67639,1.63058 -2.18619,1.28031 1.18369,1.61851 -2.0171,3.05584 1.20784,1.49772 -0.0966,3.43028 -3.35781,3.20078 -0.68847,-1.72721 -1.55812,-0.7247 -0.4469,1.23199 -4.54149,-2.58478 -2.04124,-2.81428 -2.23451,-0.96627 -0.4469,-1.848 -3.88926,-1.03875 -1.24408,-2.92297 1.32863,-2.72972 2.05333,-0.79718 -5.0367,-4.40862 1.82384,-2.53647 -1.87215,1.0629 -2.10165,-1.87216 -3.92548,-0.25365 -2.41569,1.42525 -3.39404,-0.2778 -2.23451,4.56565 -2.98337,-0.37443 -3.05584,1.25615 -4.5898,-5.72517 0.0725,-2.23451 -5.56815,1.24408 -2.42777,-1.44941 -6.22038,2.02917 -1.07499,-1.71513 1.77553,-4.43279 -0.95419,-1.12329 -2.89883,3.51483 -3.93756,1.35278 2.83843,7.06588 0.21741,3.61144 -2.16203,0.616 0.22949,-1.50979 -3.00753,0.97835 -5.87012,-1.53397 -3.16455,1.0146 -0.91796,-1.7393 -2.51231,1.32863 -4.79513,-0.0483 -4.44486,1.35277 -0.86965,2.28282 -4.77098,-1.06289 -9.19167,0.82132 -2.04126,-1.19576 -0.18118,1.59436 -2.33113,0.20533 -1.232,6.03921 -1.19577,1.18369 -5.10917,1.1233 -5.6527,-0.93005 -3.79262,4.6502 1.81176,0.51937 1.07498,2.6331 -6.48611,-0.51938 -3.5873,2.51231 -0.1087,2.22243 -1.63059,1.18369 -3.43027,0.22949 2.2345,-3.73223 -3.65976,-0.65224 -6.00297,2.45192 -0.93004,1.78761 -10.70149,-0.20533 -0.54352,-1.88424 1.07498,-1.73929 -4.2033,-4.62603 0.48314,-1.09914 -5.09709,-0.1691 0.2778,-2.22244 3.44235,-1.2803 -2.2949,-2.71765 -8.40659,2.59686 -1.4494,-2.28282 -4.90384,-1.17161 -0.3382,-1.65474 -7.06588,-1.08706 -2.0171,3.97379 -3.7443,-0.14493 -5.22996,-2.33113 1.95671,-3.36989 -3.28534,0.0966 -0.60392,0.82133 1.71513,2.60894 -1.64266,5.77349 0.93004,2.10165 1.95671,0.90588 0.53145,4.94007 -3.01961,2.50023 -0.0362,3.34573 -3.04377,0.60392 -5.09709,8.02008 -7.476548,3.92548 -2.47608,-0.70055 -1.93254,0.79718 0.25364,-2.95922 2.70557,-1.848 -1.15953,-1.73928 2.89883,-6.18416 -0.76095,-0.65223 -1.09914,0.94211 -2.30697,-1.49773 -1.42526,2.77804 -3.587291,-0.71263 -1.5098,2.21036 -2.162037,-6.40157 2.657254,-1.8963 -0.893805,-2.83844 -2.983371,-1.42525 -0.881724,-2.45192 -3.297409,0.51938 -1.050823,-1.67891 0.640156,-0.59184 -2.331136,-2.11373 0.410667,-2.80219 -0.579765,1.30447 -3.261174,0.57976 -3.055841,-2.10164 -0.579766,2.25866 -4.529409,-2.25866 0.91796,-3.51482 -2.005018,-1.848 -3.031684,1.31654 -1.968783,5.70102 -10.471993,-1.63059 v 0 l 0.905881,-3.79262 2.077489,-2.45192 1.485646,-0.99043 3.647684,1.13537 3.67184,-1.18369 3.176626,-2.5727 -0.22949,-1.4011 1.896312,-0.25364 1.14745,-1.65474 v 0 l 0.06039,-0.50731 v 0 l 1.618509,-1.15952 8.636074,3.00753 2.693488,-3.28534 2.125803,-0.67639 0.30196,1.32863 2.560626,-0.0966 0.954196,4.11874 1.111214,-3.85302 1.618511,0.82133 1.43733,-1.31654 0.700548,-2.75388 -1.823843,-2.04126 0.132867,-4.6502 -4.191215,-3.10415 2.125802,-1.93255 1.763456,0.43483 0.446902,-1.34071 1.37694,0.2778 -2.717646,-3.74431 0.326113,-1.1716 -1.183686,1.23199 1.074985,-2.46399 -1.715141,0.88172 -0.374431,-1.21992 2.174117,-1.52188 -0.760942,-0.56768 1.050821,-2.95922 0.09662,-2.60893 -1.775532,-1.75138 v -2.11372 l 2.113723,-0.88173 2.005021,-8.20125 v 0 l -0.09662,-0.76094 v 0 l 0.338194,-0.62808 v 0 -1.77553 0 l -0.652239,-4.37238 -2.137878,-2.21036 -3.39404,-11.78854 0.07247,-5.53191 -5.169565,-7.5611 0.07247,-1.848 -1.83592,-0.0604 -0.338196,-1.6789 5.471526,-5.88219 -1.062901,-0.97835 0.712626,-2.48816 1.980862,0.53145 3.321563,-2.66933 2.005021,2.5727 2.947141,-0.30196 1.0025,-2.04125 4.43279,-1.87216 0.0242,-1.60643 -1.11122,-0.0966 0.59184,-0.57977 5.845958,-1.32862 -0.70055,-2.30699 0.89381,-2.50023 -1.52189,-2.9109 0.35028,-1.60643 1.88423,-0.60392 -5.19372,-6.55859 0.10871,-1.75136 1.29238,-0.66432 -0.33819,-1.96878 2.71765,2.02917 2.4036,-0.4469 1.98086,4.16705 2.11373,-1.52187 1.53396,-3.63561 2.30698,0.54353 -1.18369,0.3382 0.2778,2.00501 -1.19576,1.34071 4.15498,-1.0629 2.30698,-1.95671 -1.81177,-1.79968 0.88173,-0.616 -2.11372,-2.37945 0.68847,-0.79717 -1.31655,0.8334 -2.34322,-2.16203 0.90589,-1.11122 -1.18369,-1.70306 1.5702,-0.57976 -0.93005,-2.65726 2.17412,-1.4494 -0.0241,-2.25867 -1.65474,-1.47356 1.99293,-1.79969 0.0121,-3.49066 -2.36737,-1.98087 2.6331,-1.31655 -1.47357,-1.98086 1.01459,-0.56768 -1.6306,-0.99043 -0.95419,-2.52439 -1.01458,0.24157 0.65223,-2.02918 -0.56769,0.62807 -0.8334,-1.3407 -1.06291,0.20534 v -1.44942 l -1.92047,-0.43482 -0.60392,-2.76596 -2.05333,0.19326 -2.14997,-1.92047 -3.32156,0.2778 0.89381,-2.64518 -2.113718,-1.52187 1.231988,-1.87217 -1.727218,0.24157 -1.43733,-1.32862 1.18369,-2.08956 2.343218,-1.25616 -0.55561,-2.25867 -2.246588,-1.70305 -1.5098,0.99042 -1.49773,-3.26117 -0.86965,0.53145 -0.99042,-1.72721 -2.40362,-0.7851 0.144945,-1.38902 1.050827,0.0242 -1.570197,-4.2516 1.087061,-0.60393 -1.811764,-0.68847 1.099128,-2.0171 0.773025,1.53397 1.739295,-2.06541 -1.920473,-2.39154 0.773023,-2.64517 -2.463998,-0.72471 -0.555614,-1.5098 0.301968,-1.18368 1.268229,0.16909 -1.244073,-3.36987 4.203288,-1.98087 -2.162034,-4.95215 -3.043766,-1.18369 0.821333,-1.75136 1.316551,-0.12079 -1.666826,-3.2491 1.666826,-2.17412 -2.898825,-0.31403 0.483137,-2.68142 -2.041254,-1.40109 -1.968783,2.00502 1.642666,1.46148 -2.379449,1.61851 -0.857569,2.17412 -7.005485,0.0966 -1.062902,-1.05082 0.857569,-7.1142 v 0 h -0.314039 v 0 l -0.06039,-1.05082 -1.6789,0.0604 1.316547,-2.35529 -1.268234,-0.62808 -2.621019,2.36737 -0.422744,2.59687 -3.671841,-1.18369 2.826351,-2.60894 -0.446902,-2.04126 2.306979,-1.93254 -1.316549,-3.80471 -1.90839,-1.12329 0.241569,-5.9909 -2.935058,-2.19827 0.350274,-1.15953 -3.526899,2.47608 -1.280313,2.62102 v 0 h -0.700549 v 0 l -1.316548,-4.67436 -2.500234,1.2924 -0.132862,2.7418 -1.099136,0.51937 v 0 l -0.640157,0.21741 v 0 l -2.174117,-2.04125 1.304471,-2.28282 -1.171608,-1.00251 1.497725,-0.66431 -0.241569,-2.319055 v 0 l 0.169099,-1.92047 v 0 l 0.30196,-2.162041 -5.121251,1.546041 -1.195765,-0.5073 -0.84549,0.95421 0.398589,3.611435 -1.256156,-2.657245 -2.548548,0.21741 -0.785097,-2.82636 -1.76345,0.21742 -1.678901,2.08957 -2.512312,-2.403613 -2.560625,2.355293 -1.546039,-1.08705 -1.570195,1.19576 -2.778037,0.0846 0.591843,2.886725 -2.089568,0.65224 5.990898,1.14745 -2.258666,1.19576 1.087059,1.72721 1.847999,0.0483 0.374431,-3.20078 2.488155,2.28282 0.169098,2.53647 -1.642665,2.10164 1.509803,1.60643 -1.038745,1.61851 -1.654744,0.21741 -1.37694,-1.64266 -1.823842,1.58227 -3.043763,-1.31655 -2.596861,2.54855 1.087058,2.25867 -1.920469,2.47607 v 0 l -0.700549,-0.0362 v 0 l -0.857568,1.5098 -3.430273,0.82133 -7.017564,-0.41066 v 0 l -1.497724,-2.74181 -1.2682349,-0.21741 -0.01208,-2.02917 2.7055669,-2.58478 -0.930039,-6.17208 2.947135,-0.8938 -0.446901,-1.55812 1.944626,-3.20077 -3.116233,-2.125795 2.089567,-2.77805 -0.53145,-1.642667 -2.874665,0.555614 -0.990431,-3.104159 0.652235,-3.466508 -1.6185089,1.763449 -0.905881,-0.893803 0.640156,-0.821333 -1.944626,0.253647 -0.241569,-2.68141 1.328627,-0.07247 -2.113724,-5.157492 -0.362353,-8.044231 0.579764,-1.690979 1.823842,-0.169097 -1.159529,-1.30447 -0.422744,-4.287841 -4.022115,-0.91796 1.690979,-2.512312 -0.06039,-2.705567 1.642665,-2.343214 7.7181139,-1.811764 2.693488,1.135372 -0.205333,3.031684 3.031684,-4.20329 -0.398588,-1.340706 2.717645,-1.328626 2.560626,1.268234 4.275762,0.628078 1.425254,-0.881725 0.966273,1.07498 2.222431,0.02416 2.463998,4.903841 2.439842,0.712627 6.027133,-1.219921 -0.350274,-6.075447 0.990431,-0.507294 v 0 l 0.591843,-1.956705 v 0 l -0.108683,-0.156992 v 0 l -2.210505,-1.111243 v 0 l 0.15702,-1.956705 1.171607,-0.736783 -1.570194,-3.273254 0.398587,-1.823841 3.212861,2.029174 2.633096,-0.942117 0.507294,1.30447 6.28078,-1.413176 0.08455,-0.905881 -2.14996,-1.14745 1.280313,-2.476077 3.647683,-1.183685 3.466508,-3.466508 0.02416,-3.804704 -1.050823,-1.727214 2.210352,-8.370347 1.473567,0.773018 1.630587,-0.773018 0.495216,1.437331 3.840939,1.968784 0.954195,-1.594352 0.85757,1.231999 1.521881,-0.471059 4.408624,-2.451919 3.06792,-4.553566 1.521882,-0.591843 z"
     title="Bavaria"
     id="DE-BY"
     style="fill:none;stroke:#000000;stroke-width:5;stroke-linecap:round;stroke-linejoin:round;stroke-dasharray:none;stroke-opacity:1" /></svg>
