<?xml version="1.0" encoding="UTF-8" standalone="no"?>
<!-- Created with Inkscape (http://www.inkscape.org/) -->

<svg
   width="192.91229"
   height="373.45065"
   viewBox="0 0 192.91229 373.45065"
   version="1.1"
   id="svg1"
   inkscape:export-filename="nw.svg"
   inkscape:export-xdpi="120"
   inkscape:export-ydpi="120"
   xml:space="preserve"
   xmlns:inkscape="http://www.inkscape.org/namespaces/inkscape"
   xmlns:sodipodi="http://sodipodi.sourceforge.net/DTD/sodipodi-0.dtd"
   xmlns="http://www.w3.org/2000/svg"
   xmlns:svg="http://www.w3.org/2000/svg"><sodipodi:namedview
     id="namedview1"
     pagecolor="#ffffff"
     bordercolor="#000000"
     borderopacity="0.25"
     inkscape:showpageshadow="2"
     inkscape:pageopacity="0.0"
     inkscape:pagecheckerboard="0"
     inkscape:deskcolor="#d1d1d1"
     inkscape:document-units="px"
     inkscape:zoom="0.77566597"
     inkscape:cx="159.21802"
     inkscape:cy="237.21551"
     inkscape:window-width="1680"
     inkscape:window-height="937"
     inkscape:window-x="0"
     inkscape:window-y="25"
     inkscape:window-maximized="1"
     inkscape:current-layer="layer1"><inkscape:page
       x="0"
       y="0"
       width="192.91229"
       height="373.45065"
       id="page2"
       margin="0"
       bleed="0" /></sodipodi:namedview><defs
     id="defs1" /><path
     d="m 5.6937366,239.82984 4.181,-0.58069 v 0 l 19.2209904,11.84617 9.05883,-5.11011 7.6071,3.07768 -7.14255,12.65913 11.49775,0.23228 4.70363,11.67197 20.03396,-1.97437 8.24586,-6.15537 2.14857,5.11012 8.47814,-2.03243 5.34239,10.10408 32.112413,-0.23227 3.77451,4.23907 v 0 l 1.10332,5.40046 v 0 l 7.02639,8.59427 v 0 l 0.63878,1.9163 v 0 l 18.58222,-0.63878 11.43969,-12.1365 14.28509,15.85296 -13.00757,6.32956 5.57467,10.16215 9.81374,1.50982 -10.10409,7.72324 0.98717,15.33033 5.92309,8.362 -16.20138,13.53019 -0.87102,6.32955 -15.04,-0.058 -10.45249,-16.08524 -0.34844,11.38161 -15.9691,0.87104 -16.49171,-11.73002 -2.03243,-8.59428 -6.0973,9.1169 -13.820523,-0.5807 -4.7617,-9.34918 1.91629,-13.12369 -16.49171,-9.05884 1.33559,-7.54902 -14.51736,-21.89219 -4.12294,-17.59504 -40.18406,-18.81449 v 0 l -1.56787,-1.97437 v 0 l -9.0007604,-14.69157 2.90347,-2.14858 v 0 z M 16.959207,5.0550562 l 26.71195,7.8974458 8.42006,-7.2006128 11.09127,1.742084 -0.98718,-4.993973 h 6.38764 l -15.73682,21.8341128 4.00678,11.033195 6.21344,1.16139 -2.38085,16.607863 4.35521,8.652352 -6.61991,11.788094 -9.5234,7.200618 -7.60709,-5.40046 -4.52942,4.006784 -9.8718,-21.137276 3.07767,-2.032432 v 0 l 4.99398,0.696834 0.46454,-14.110876 2.78734,2.729263 -6.91025,-7.316749 0.58069,-15.388405 -3.94873,-0.522624 -1.10331,8.013582 z"
     title="Bremen"
     id="DE-HB"
     style="fill:none;stroke:#000000;stroke-width:5;stroke-linecap:round;stroke-linejoin:round;stroke-dasharray:none;stroke-opacity:1" /></svg>
