<?xml version="1.0" encoding="UTF-8" standalone="no"?>
<!-- Created with Inkscape (http://www.inkscape.org/) -->

<svg
   width="263.22491"
   height="377.03201"
   viewBox="0 0 263.22491 377.03201"
   version="1.1"
   id="svg1"
   inkscape:export-filename="TH.svg"
   inkscape:export-xdpi="120"
   inkscape:export-ydpi="120"
   xml:space="preserve"
   xmlns:inkscape="http://www.inkscape.org/namespaces/inkscape"
   xmlns:sodipodi="http://sodipodi.sourceforge.net/DTD/sodipodi-0.dtd"
   xmlns="http://www.w3.org/2000/svg"
   xmlns:svg="http://www.w3.org/2000/svg"><sodipodi:namedview
     id="namedview1"
     pagecolor="#ffffff"
     bordercolor="#000000"
     borderopacity="0.25"
     inkscape:showpageshadow="2"
     inkscape:pageopacity="0.0"
     inkscape:pagecheckerboard="0"
     inkscape:deskcolor="#d1d1d1"
     inkscape:document-units="px"
     inkscape:zoom="1.7019241"
     inkscape:cx="178.32758"
     inkscape:cy="203.29931"
     inkscape:window-width="1680"
     inkscape:window-height="937"
     inkscape:window-x="0"
     inkscape:window-y="25"
     inkscape:window-maximized="1"
     inkscape:current-layer="svg1"><inkscape:page
       x="0"
       y="0"
       width="263.22491"
       height="377.03201"
       id="page2"
       margin="0"
       bleed="0" /></sodipodi:namedview><defs
     id="defs1" /><path
     d="m 178.35094,4.2269665 4.70427,-1.727093 -0.46055,3.536428 1.89157,1.562608 3.63512,-2.253445 2.66466,2.63176 5.88856,-1.97382 1.21719,4.5891325 5.46091,5.329316 -1.18429,1.579056 -5.11549,-2.779797 -0.37832,2.385033 2.13831,3.092318 -2.46727,0.509904 -1.84224,-2.121857 1.6284,4.687823 -3.70091,2.763349 5.98726,7.780142 -1.6284,4.013435 1.75998,4.73717 -1.61195,2.187651 -5.29642,0.65794 -1.99027,3.668016 1.85868,1.398124 -0.87177,1.496813 -3.88184,-0.838874 3.14166,3.717362 4.50689,3.371943 2.89494,-0.131588 -0.16449,2.335687 4.14502,-1.118498 6.711,3.84895 3.58577,-1.891577 0.46056,-5.049691 -3.50354,2.878488 -3.88184,-7.418275 4.24371,-1.151396 2.99363,-2.894937 2.89494,0.427662 -0.31252,-3.766707 2.40148,-0.625044 2.1383,1.562608 0.11514,3.158113 2.63176,2.023166 -1.51326,-7.204445 2.91138,1.529711 0.39477,-1.579056 2.03961,-0.460559 3.01008,4.128576 -0.26318,2.944282 v 0 l -0.32897,3.503531 2.45083,5.806322 -0.95401,2.088959 3.12521,1.134947 0.34542,2.64821 8.71771,0.98691 -0.87177,4.177919 3.20746,1.759991 -0.95402,2.7469 4.63848,1.858681 2.73045,-0.904668 1.00336,2.236996 1.79289,-0.756631 3.15812,3.273252 4.32595,1.118498 -3.66802,5.756977 1.00336,4.26016 -1.33233,2.1383 -3.45418,-6.69453 -4.85232,2.30279 5.77344,3.81605 -3.07588,5.27997 0.95401,2.598862 -1.38167,1.56261 6.76033,4.04633 1.00336,1.52971 -2.28633,1.23364 1.18429,1.79289 -6.05305,2.50017 -2.86205,-2.92784 -1.75998,1.06916 -6.6452,-1.51326 -2.07251,5.24707 2.23699,2.31924 0.23028,3.04297 2.12187,0.74018 -3.56934,1.20074 -0.5099,-0.98691 -1.28298,1.48037 -6.48071,-1.28298 0.37832,3.10877 1.11849,-1.52972 2.43438,0.16448 -1.69419,3.9312 4.22726,-2.28634 4.04633,3.55287 -0.32897,1.80934 1.23364,-0.13159 0.13159,1.28299 -3.96409,2.77979 -0.11514,2.87849 1.74354,-0.72373 -1.1514,3.02652 -2.2041,-0.42766 -0.93756,1.87513 -1.6613,-0.75663 v 0 l -0.67438,-0.24673 v 0 l -2.3357,1.77644 -0.95401,3.56932 1.01981,4.27662 -2.89493,-0.0658 -0.42766,2.50017 1.75998,0.55925 0.16449,2.7469 -3.3226,5.52669 1.51326,1.89159 -4.58913,3.93119 -0.27963,4.9181 8.75061,1.79289 0.82243,-1.95737 -1.97383,-2.53308 0.49346,-1.74353 4.9181,-1.49682 5.60895,0.87177 2.99362,7.99397 -3.48708,-0.14803 -1.26654,2.10541 2.53307,9.03023 -2.36859,4.3753 0.32898,2.15475 v 0 l -2.46728,8.12556 -2.07251,0.80598 -4.17792,6.20108 -6.00371,3.33905 -2.0725,0.6415 -1.16785,-1.67775 -1.29943,2.1712 -5.23062,-2.6811 -0.6744,-1.95738 -2.22055,1.0527 -2.00671,-1.0527 -3.01008,11.39881 1.43102,2.35214 -0.0329,5.18128 -4.72071,4.72072 -4.96745,1.61195 -1.74355,3.37195 2.92784,1.56261 -0.11514,1.23364 -8.55322,1.92447 -0.69084,-1.77644 -3.58578,1.28298 -4.3753,-2.76335 -0.54279,2.48373 2.1383,4.45754 -1.59551,1.00336 -0.21383,2.66465 v 0 l 3.01008,1.51327 v 0 l 0.14803,0.21383 v 0 l -0.80597,2.66465 v 0 l -1.34878,0.69085 0.47701,8.2736 -8.2078,1.66129 -3.3226,-0.97046 -3.3555,-6.67809 -3.02652,-0.0329 -1.31588,-1.46392 -1.94093,1.20074 -5.82277,-0.85532 -3.48707,-1.72709 -3.70092,1.80934 0.5428,1.82578 -4.12858,5.72407 0.27963,-4.12857 -3.66802,-1.54616 -10.51059,2.46728 -2.23699,3.19101 0.0822,3.68446 -2.30278,3.42129 5.47735,1.25009 0.5757,5.83922 1.57906,1.77644 -2.48373,0.23027 -0.78953,2.30279 0.49346,10.9547 2.87848,7.02352 -1.80933,0.0987 0.32897,3.65157 2.6482,-0.34542 -0.87176,1.1185 1.23364,1.21719 2.2041,-2.40148 -0.88823,4.72071 1.34878,4.22727 3.91475,-0.75663 0.72373,2.237 -2.84559,3.78315 4.24371,2.89494 -2.64821,4.35886 0.60859,2.12185 -4.01343,1.21719 1.26654,8.40518 -3.68447,3.51999 0.0164,2.76335 1.7271,0.29606 2.03961,3.73382 v 0 l -0.29607,2.76335 -1.77644,-0.14804 -1.00336,-2.30279 -0.14803,1.71065 5.60894,7.74724 -2.03962,1.18429 -0.72373,-2.63176 -3.63512,-0.65794 -1.51327,2.714 v 0 l -0.42766,0.78953 v 0 l -2.237,1.74354 -4.17792,-2.05606 -3.55287,1.01981 0.24673,3.38839 -1.41457,-0.29608 -0.95401,2.35214 1.95736,2.31924 -3.8654,2.87848 -1.13494,-1.00335 -0.87177,3.61867 -4.60558,4.19436 -1.90803,-1.99026 -1.75999,1.75999 -1.39813,-2.18765 3.79961,-3.76671 -1.26653,-5.54314 2.82914,-2.46728 1.00336,2.79624 1.52971,-0.11513 2.45083,-2.86204 -0.14804,-2.92783 -5.4609,0.29606 -1.54617,1.48037 -1.5297,-2.26989 0.55924,-3.01008 -2.66465,2.05607 -6.79324,-1.49682 v 0 0.44411 0 l -3.240353,-2.79625 0.345423,-2.1054 -2.598863,-4.34241 1.75998,-3.47063 -2.86204,-3.14167 1.20074,-0.87176 0.65795,2.25343 0.49346,-2.41793 -10.18164,2.18766 2.17121,11.10274 -0.87177,2.10541 -1.20074,-0.54281 -3.68447,2.73046 -8.98088,-11.13564 -2.89494,-0.98691 -2.6482,0.93757 v 0 l -4.02989,-6.89193 -2.59886,-10.60928 8.25715,-4.83586 4.32595,-6.49717 -0.78952,-1.11849 -5.03325,0.0823 -4.58913,-8.79995 0.5428,-5.34576 -4.17792,-3.50354 1.06916,-6.5136 -3.45419,-9.54014 -8.14201,-8.25714 -6.34913,-1.28299 -15.06682,5.11548 -7.451173,4.19437 -8.767052,0.98692 -1.908026,-1.38168 -1.480365,-5.29641 -8.3393929,-7.27024 3.092319,-4.22727 3.668017,-0.0493 -0.740183,-2.36858 2.1876509,-4.67138 3.339047,2.05607 1.875129,-1.1514 2.96073,3.05943 -0.921116,-5.13194 1.184292,-1.6284 -5.04969,-3.96409 -0.131588,-2.1712 2.829143,-1.97382 0.01645,-1.56261 3.783156,-1.03625 0.427661,-1.57906 3.733811,-1.36523 0.230278,-1.64485 2.53307,3.2568 2.154754,0.31253 2.105408,-3.47064 v 0 l -0.42766,-0.5757 v 0 l -2.796246,-2.74689 1.513262,-2.2041 3.881844,-0.23028 0.70729,1.77643 2.76335,0.18094 1.33232,-6.31622 -1.72709,-1.7271 -0.0823,-2.76335 -3.12521,-0.90467 0.477,-2.54952 -1.759986,-4.35885 -1.447469,-0.13158 -0.296072,-1.71065 -2.878489,0.16448 0.657941,-2.59886 -3.816053,0.14804 -2.302791,-1.89158 2.269893,-1.94092 0.296074,-1.90803 -1.365226,-0.59215 3.700913,-2.53306 -3.40484,-5.60894 1.776438,-6.1682 5.06614,-5.37866 2.878487,3.04298 3.37194,0.90467 3.3884,-2.86204 1.69419,-7.94464 -2.6811,-1.72709 1.44747,-3.71735 -3.17457,-4.5069 1.54616,-4.26016 v 0 l 4.49045,-8.02687 -3.9312,-7.45117 0.41122,-1.6942 v 0 l 0.65794,-0.21383 v 0 l 13.27394,-14.8859 2.58241,-0.18093 1.56261,3.43774 h 5.51025 l 7.6979,-9.39209 2.91139,-0.19739 -1.05271,-3.68447 0.87177,-4.11212 2.07252,-0.5428 -0.34543,-1.20074 6.54651,-7.1551 -1.90803,-4.04633 -1.46392,0.50991 2.28635,-3.79961 -2.56597,-2.746902 2.66466,-2.84559 3.15811,-0.98692 10.36256,1.39813 2.87849,-2.2041 3.783153,-0.32897 -2.023163,-2.237 v 0 h -0.39477 v 0 l -0.11513,-2.33568 6.513603,-6.62875 -1.13494,-3.61867 2.08895,-1.694196 -2.7469,-1.661299 -1.43102,-5.395109 0.92113,-1.875129 -1.51327,-1.891578 -3.141663,-0.394764 -10.09939,4.835859 -4.02988,-5.04969 6.59585,-9.819757 1.75999,-1.282983 1.82578,0.723734 0.47701,-2.598864 2.36858,-0.773079 -0.49345,-1.891579 1.82579,-0.970461 3.898293,0.707285 7.50052,-3.075869 3.58577,0.345418 1.87513,1.858681 3.81606,-2.549518 4.9181,0.592146 0.95401,-6.414917 -2.89493,-0.526351 -0.0329,-2.993628 -2.94429,-5.592491 13.35619,-6.085947 2.1712,2.582414 3.94764,-0.115139 1.51326,1.348778 -1.34877,4.983896 1.80933,3.503532 4.27661,-0.954014 2.40148,1.184293 2.53308,-3.766707 3.42129,1.102049 0.85531,-5.16483 4.12858,-1.463917 1.94092,-2.582415 2.64821,0.0658 0.83888,-6.513608 5.90501,-6.497159 -3.63512,-3.9476415 8.91509,-2.565966 z"
     title="Hesse"
     id="DE-HE"
     style="fill:none;stroke:#000000;stroke-width:5;stroke-linecap:round;stroke-linejoin:round;stroke-dasharray:none;stroke-opacity:1" /></svg>
