<?xml version="1.0" encoding="UTF-8" standalone="no"?>
<!-- Created with Inkscape (http://www.inkscape.org/) -->

<svg
   width="378.923"
   height="365.65463"
   viewBox="0 0 378.923 365.65463"
   version="1.1"
   id="svg1"
   inkscape:export-filename="sh.svg"
   inkscape:export-xdpi="120"
   inkscape:export-ydpi="120"
   xml:space="preserve"
   xmlns:inkscape="http://www.inkscape.org/namespaces/inkscape"
   xmlns:sodipodi="http://sodipodi.sourceforge.net/DTD/sodipodi-0.dtd"
   xmlns="http://www.w3.org/2000/svg"
   xmlns:svg="http://www.w3.org/2000/svg"><sodipodi:namedview
     id="namedview1"
     pagecolor="#ffffff"
     bordercolor="#000000"
     borderopacity="0.25"
     inkscape:showpageshadow="2"
     inkscape:pageopacity="0.0"
     inkscape:pagecheckerboard="0"
     inkscape:deskcolor="#d1d1d1"
     inkscape:document-units="px"
     inkscape:zoom="0.77566597"
     inkscape:cx="159.21802"
     inkscape:cy="237.21551"
     inkscape:window-width="1680"
     inkscape:window-height="937"
     inkscape:window-x="0"
     inkscape:window-y="25"
     inkscape:window-maximized="1"
     inkscape:current-layer="layer1"><inkscape:page
       x="0"
       y="0"
       width="378.923"
       height="365.65463"
       id="page2"
       margin="0"
       bleed="0" /></sodipodi:namedview><defs
     id="defs1" /><path
     d="m 2.6692274,194.13017 25.6526166,-78.92357 0.884573,15.52917 15.234313,4.9143 1.867432,19.26404 22.802325,7.96115 34.006923,-38.3315 10.02515,-30.960051 45.3098,6.38858 12.58059,-36.660635 41.67322,3.34172 7.96115,-27.814906 -6.38858,-6.68344 8.25602,-10.221733 25.35776,7.371442 29.78062,-26.6354765 15.92231,8.1577295 -0.88457,7.371441 -6.38858,15.332599 -15.72574,5.405723 1.57257,14.34974 -10.22173,13.268595 25.84918,15.037751 8.84573,16.41373 -4.91429,9.926881 18.96919,5.01258 -19.26405,22.60575 4.91429,28.01148 -30.07548,13.2686 6.97831,53.36924 16.0206,11.00801 14.84117,-9.14059 18.67431,40.3955 32.33607,31.84463 21.13145,3.34172 -11.10631,16.21717 v 0 l -28.01147,14.05488 -15.52917,25.0629 h -40.29721 l -76.76128,-70.56925 -2.752,17.2983 -17.29832,0.39314 6.48688,12.38403 -28.50292,19.55888 -27.02862,-12.28573 -16.51202,14.74289 -5.50402,-2.16229 8.84573,-20.54175 -10.81145,-21.62289 -26.537186,18.28116 0.294863,9.23888 -34.203493,-34.8915 -1.965718,-30.5669 -13.268595,1.76915 1.572575,-9.43545 -14.054882,-9.92688 9.533731,-11.7943 -8.059443,-21.72119 5.700582,-13.46515 z"
     title="Hamburg"
     id="DE-HH"
     style="fill:none;stroke:#000000;stroke-width:5.33863;stroke-linecap:round;stroke-linejoin:round;stroke-dasharray:none;stroke-opacity:1" /></svg>
