<?xml version="1.0" encoding="UTF-8" standalone="no"?>
<!-- Created with Inkscape (http://www.inkscape.org/) -->

<svg
   width="386.43634"
   height="271.01926"
   viewBox="0 0 386.43634 271.01926"
   version="1.1"
   id="svg1"
   inkscape:export-filename="hh.svg"
   inkscape:export-xdpi="120"
   inkscape:export-ydpi="120"
   xml:space="preserve"
   xmlns:inkscape="http://www.inkscape.org/namespaces/inkscape"
   xmlns:sodipodi="http://sodipodi.sourceforge.net/DTD/sodipodi-0.dtd"
   xmlns="http://www.w3.org/2000/svg"
   xmlns:svg="http://www.w3.org/2000/svg"><sodipodi:namedview
     id="namedview1"
     pagecolor="#ffffff"
     bordercolor="#000000"
     borderopacity="0.25"
     inkscape:showpageshadow="2"
     inkscape:pageopacity="0.0"
     inkscape:pagecheckerboard="0"
     inkscape:deskcolor="#d1d1d1"
     inkscape:document-units="px"
     inkscape:zoom="0.77566597"
     inkscape:cx="159.21802"
     inkscape:cy="237.21551"
     inkscape:window-width="1680"
     inkscape:window-height="937"
     inkscape:window-x="0"
     inkscape:window-y="25"
     inkscape:window-maximized="1"
     inkscape:current-layer="layer1"><inkscape:page
       x="0"
       y="0"
       width="386.43634"
       height="271.01926"
       id="page2"
       margin="0"
       bleed="0" /></sodipodi:namedview><defs
     id="defs1" /><path
     d="m 323.64857,90.932707 3.04183,7.22827 3.48086,4.202133 14.3468,8.13769 20.9479,21.01061 -4.18644,2.52441 2.91639,2.13242 -0.14111,5.66032 -17.51407,-1.17596 -4.65683,4.32756 -5.09586,0.79965 -1.70907,-1.28572 1.9913,0.42335 1.06621,-1.66204 -2.50873,-2.63416 -1.70907,5.26833 -3.27703,0.50175 -5.25265,-1.74043 1.03485,-3.62198 6.09935,-1.16029 3.99829,-5.12722 -1.55228,-6.91468 -2.57145,-2.63417 1.22301,-4.01397 5.5192,0.0157 -0.58014,9.23526 0.8467,-3.84149 1.66203,-0.78398 3.95125,-0.0941 -1.20733,1.91291 2.97912,1.48956 0.70558,-7.16556 -0.73694,-4.62547 -2.2265,-1.56796 -1.16028,1.74043 -1.11325,-5.50352 -2.47737,-3.55926 -6.05232,0.12543 -0.26655,3.49655 2.58713,2.44601 -0.6899,2.05402 -1.06621,-0.86238 0.62718,-2.32057 -2.24218,3.74741 -3.95125,2.10107 -0.6899,-2.3049 2.64985,-4.17076 -2.32058,-1.615 -5.72304,4.97042 -3.04183,-0.12543 -0.32927,-1.89723 1.72475,-1.3798 2.52441,-7.1342 0.31359,-4.67251 -2.19514,-0.72126 -3.38678,-4.233483 -0.75262,-3.63766 3.79445,-2.50873 z m -67.79843,-23.98973 -1.00349,0.98781 -0.79966,-1.74043 1.25436,-0.61151 z m 39.57521,-1.44252 -0.28223,1.05053 -0.56446,-1.09757 2.43033,-2.85368 0.39199,1.55227 z m -82.22362,-19.23883 2.52441,2.25786 -5.36241,-0.17248 1.4582,-2.38329 z m 24.28764,-2.39897 1.615,0.89373 -3.91989,0.59583 0.47038,-1.5366 z m 10.56803,-0.89374 -7.9809,2.17946 2.72824,-1.95994 3.26135,-0.14112 1.55228,-2.17946 z m -52.11887,-5.81711 -1.4582,1.42684 4.67251,3.40246 10.47395,1.92859 24.82075,-0.51743 0.97213,3.08888 -5.03314,2.24217 -5.17426,-1.17596 -2.13242,2.1481 -1.66203,-1.28573 -4.95474,0.0784 -1.55228,-2.7596 -3.15159,0.0784 -2.44601,3.88853 -2.90072,-1.27005 0.1568,-1.64635 -2.27354,3.16727 -3.85717,0.59582 2.13242,2.08538 -0.65854,1.5366 -0.56447,-1.28572 -3.24567,-0.0314 -2.74392,1.59931 -0.53311,1.12893 1.58364,1.615 1.88155,-2.3049 1.25436,1.09757 5.25265,-0.18815 4.70387,-2.82232 0.047,-3.21432 3.91989,-0.5331 0.70558,1.41116 -2.69688,0.67422 0.59582,2.36762 -1.64635,2.49305 1.05053,0.12543 1.34844,-4.89202 1.41116,-0.0157 0.51743,4.57843 1.58363,0.26655 0.9251,-2.13242 2.25785,1.97563 1.92859,-4.20212 2.52441,8.89031 6.93037,-4.09237 1.56795,-5.64464 2.69689,-2.10106 6.41294,-2.19514 2.19514,-2.10106 2.03834,0.42335 -0.39199,6.64813 2.21082,2.77528 3.07319,-0.14111 1.39548,2.32057 -1.70907,3.79446 1.22301,4.45299 2.69688,3.29271 -1.01917,3.18295 2.9164,2.33626 3.18295,-1.55228 1.36412,1.3014 -3.49654,2.80664 4.28052,-2.22649 2.86936,4.42163 7.32236,0.94078 3.65333,8.68647 4.453,0.36063 -3.05752,0.72126 -2.30489,2.97912 5.92687,-2.82232 3.13592,1.63067 -1.42684,-2.44601 2.35193,1.20733 -0.23519,2.36761 -0.62719,-0.78398 -2.82232,2.2265 0.17248,1.22301 2.82232,-1.95995 -0.31359,1.59932 2.2265,1.64635 3.87285,8.529683 3.26135,0.12544 -2.3833,-5.158573 1.39548,-1.37981 13.42171,-2.82232 6.94605,-5.29969 1.66203,0.48607 0.5331,1.1446 -2.05402,0.79966 0.25088,1.42684 3.43382,2.2265 1.64635,-0.64286 0.47039,3.3711 4.81363,3.684703 -1.34845,5.89552 -1.42684,0.79965 0.59583,2.06971 -3.65334,3.15159 1.28572,0.0627 0.37631,2.17946 3.30839,3.2927 3.96693,1.88155 2.24218,5.86416 2.50873,0.15679 3.32406,4.59412 -1.19164,2.10106 -3.73174,1.67771 -1.78747,3.70038 -2.24218,0.20383 0.0627,2.02266 -1.92858,0.87806 1.1446,2.80664 3.49655,0.14112 4.70386,6.58541 1.75612,-0.43902 5.25265,5.58192 13.32763,5.47217 6.31886,-0.36063 1.64635,1.12893 4.90771,-4.3746 3.55926,2.16378 -0.0941,3.04183 -5.09586,4.70387 5.72304,1.06621 0.78398,1.59932 -1.06621,3.40246 1.3798,0.90942 0.0941,4.51571 3.27703,2.86936 -0.95645,12.3555 1.9129,6.4443 2.72825,2.28921 3.85717,23.00192 1.95994,4.01397 v 0 l -6.38158,3.4495 -3.04183,-0.20383 -1.58364,4.18644 -3.85717,1.56796 -0.1568,2.82232 -4.97042,0.86237 -5.25265,-2.08538 -6.13071,0.78398 3.21431,-6.00527 9.58021,-10.23876 1.86587,-4.87634 -0.48607,-6.71085 -1.69339,-1.06621 -1.44252,1.81883 -2.82232,0.25087 -5.86416,-3.13591 -3.54358,5.06449 -3.48086,-0.43902 -0.56446,-2.75961 -4.5314,-0.81533 -8.41992,2.13242 -1.58364,-1.55228 1.42684,-3.77877 -3.95125,-3.41815 0.20384,-5.12722 -5.44081,-2.24217 -2.97912,-6.85197 -1.83451,7.51051 4.81363,2.88504 -1.00349,2.00698 -3.70038,1.95995 -3.6063,-2.00699 -2.55577,0.72126 -8.05929,6.66382 -0.70558,5.26833 -3.95125,-0.54878 -3.59062,2.49305 0.6115,3.49654 -1.42684,2.13242 -1.85019,-0.23519 -0.81534,2.25785 0.62719,5.55057 -1.95995,-1.00349 -1.78747,5.55056 -2.19514,0.56446 -0.78398,-1.59931 -1.77179,0.0627 0.18816,2.24217 -3.43383,5.84848 v 0 l 0.17248,0.28223 v 0 l -1.94427,1.01918 -2.55577,-5.86416 -2.22649,0.75262 -3.8415,-1.25437 -5.47216,4.02965 -1.4582,6.66381 -2.74393,-1.05053 -1.9913,-4.53139 -3.35543,-0.10976 -2.03834,2.43034 -2.50873,-0.0314 0.10976,3.3711 -1.92859,0.28223 -0.87805,2.21082 -3.82582,0.81534 -3.38678,4.76659 -2.96344,0.7683 -1.63067,-2.72825 -1.615,0.59582 3.71606,-2.86936 -1.58364,-1.44251 -2.82232,1.00349 0.25087,1.3014 -1.92858,-0.23519 0.86237,-1.25437 -2.55577,0.25088 -2.55576,2.36761 -3.0732,-3.57494 -7.73002,2.33625 -3.12024,-2.0697 1.78747,-3.93557 -7.18124,-0.47039 -1.80314,-1.16028 1.03485,-2.58713 -1.47388,-0.79966 -5.61329,1.64636 -8.01225,-3.37111 -8.01226,2.41465 -1.70907,-4.24916 -3.4495,-1.61499 -0.0627,-2.66553 -8.21609,-4.65683 -5.18994,0.70558 -2.79096,-5.84848 -4.24916,0.94078 -0.18816,1.69339 -1.64635,0.58014 -1.80315,-3.62197 -3.96693,2.80664 -2.94776,-0.43903 -0.23519,-3.48086 -3.40247,-0.72126 1.31709,3.59062 -4.28052,2.79096 0.56446,5.61328 -2.838,1.48956 -2.0697,-1.01917 -2.47737,4.60979 -5.66032,-1.08189 -3.21431,4.70387 -6.36591,-0.75262 3.40247,2.82232 -1.23869,1.91291 -4.20212,-0.42335 -4.48435,1.59931 -0.29792,-2.39897 -6.06799,-2.05402 -4.061,0.79966 -3.95125,4.34324 -3.590619,0.73694 1.58364,7.36939 -1.66204,2.41465 0.59583,2.16378 -2.41466,2.11674 -2.88504,0.78398 -3.182947,-1.03485 -0.846696,-2.24218 -2.242178,0.87806 -1.944265,-1.00349 -2.383294,0.25087 -0.439027,4.70387 -12.575009,-1.86587 v 0 l -4.170764,-3.6063 -4.155084,1.20733 -0.956453,-3.48087 2.242177,-3.79445 -10.709141,-5.56625 -6.162068,-10.92865 -1.77179,-0.21951 -2.242178,-8.81192 -3.731736,-0.15679 -3.182951,-2.33626 -8.263129,7.32236 -7.541869,-3.96693 0.313591,-1.81883 -2.320575,-0.67422 -4.013968,-4.56276 -10.4269098,1.06622 v 0 l 2.085382,-3.02616 1.709072,-11.96351 2.054023,-1.16028 3.9042118,0.89373 0.956453,-3.76309 5.440808,-0.79966 3.073194,-4.59411 3.778775,-0.51743 -1.050531,-1.19165 1.928586,-3.63765 -1.144608,-5.44081 1.630675,-0.28223 1.160287,1.97562 6.020952,-1.12893 1.865868,-9.75269 2.289216,-3.24566 -1.019171,-6.13071 -2.195139,-0.87806 0.297911,-1.58363 -7.259637,-0.45471 -3.841493,-3.12024 -0.658541,-2.93207 -4.67251,-2.36762 v 0 l 0.423348,-2.86936 v 0 l 1.066211,-4.02964 -2.446012,-9.92517 2.289216,-3.59062 2.932078,-0.6115 1.552277,-2.9948 2.790962,-0.58014 3.59062,-4.64115 3.182951,1.61499 -0.956453,1.39549 0.846696,1.50523 5.409449,-1.61499 -7.196919,-2.54009 1.034851,-5.70736 v 0 l 13.515783,-8.38857 14.095926,-1.52091 2.822321,4.57843 5.142897,0.73694 -1.693393,4.7509 1.473879,3.44951 3.104553,0.65854 4.703869,-4.68819 3.261349,4.23348 3.731735,-0.21951 -0.203834,2.41465 2.743924,1.47388 0.501746,2.25786 2.351934,0.42334 -1.473879,-2.46169 3.57494,-2.82232 0.282232,-6.66381 -1.144608,0.70558 -0.815337,-1.16029 -1.834509,1.85019 -0.09408,-6.72653 -1.724752,2.25785 0.423348,3.93557 -3.386785,-2.00698 -1.144608,1.16029 2.336255,0.20383 H 81.82264 l -1.270044,-2.55577 1.05053,-3.6063 6.130709,-3.5279 4.31188,0.0784 -2.273537,8.31017 2.242178,1.03485 0.987815,-2.97912 -0.925097,-1.39548 1.944267,-3.4495 2.38329,-1.09757 -1.44252,-2.00699 3.04184,1.0035 2.367609,-1.39548 0.75262,-4.9861 4.02965,-2.25786 0.36063,-2.36762 -2.11674,-2.1481 -7.322359,9.31366 -0.42335,-4.31188 3.10456,-3.70037 5.033129,-1.99131 7.10285,-7.698663 7.7457,-0.36063 8.95303,1.61499 16.38514,-5.5976 11.36769,-0.98781 6.06799,-9.17255 15.00534,-9.95652 7.2126,-13.97049 5.80143,-6.88333 3.35543,-9.43909 z m 61.5266,-20.665666 1.0035,5.00178 -1.03485,-4.092366 0.0313,3.935571 -1.09757,-2.477371 0.64287,-1.912907 -3.13592,2.838001 0.53311,7.808422 -4.24916,6.522698 -0.81534,7.118518 -0.42335,-3.16727 3.7631,-13.970488 0.12543,-5.550565 2.3833,-2.320576 z m 28.50545,-13.9861706 -0.36063,3.982609 -3.57494,1.536597 -1.67771,3.0261566 1.55227,5.989593 2.79096,3.55926 4.18645,1.379802 17.20048,-2.52441 4.40595,3.606299 0.0314,5.628963 -10.30147,9.360697 -0.0941,4.9861 3.87285,7.46347 5.89552,0.59583 5.64464,7.87114 3.73174,2.28921 -2.55577,0.90942 -2.05402,4.01397 0.4547,6.27182 -1.39548,1.17597 -2.57144,-2.60281 2.46169,0.65854 -0.73694,-2.77528 -4.15509,1.44252 -1.4582,-1.66203 5.39377,-3.26135 0.42335,-1.72475 -3.24567,-0.59583 -6.14639,2.32058 6.6795,-3.73174 0.81533,-2.24218 -4.02964,0.64287 -2.88504,3.04183 -3.10456,-3.95125 -3.15159,2.19514 -5.00178,-0.29791 -8.15337,6.74221 -3.5279,6.30318 0.48606,-2.27353 -3.79445,1.59931 0.53311,3.96693 0.72126,-2.96343 1.48955,1.77179 2.44602,-1.88155 1.3798,1.80315 0.6899,2.66552 -3.26135,2.9164 -10.129,-4.9861 3.10455,0.89374 1.22301,-5.66033 -2.49305,2.13243 1.05053,1.3798 -5.09586,0.72126 -4.89202,-4.23349 -1.92859,1.42684 -0.6115,-4.51571 -5.36241,2.50873 1.52092,-3.77877 2.94776,0.62718 -7.04013,-5.47217 1.30141,-6.60109 6.85196,-0.8467 2.41466,1.3798 4.01397,-2.82232 -2.3833,-0.65854 -0.64286,-2.3049 2.32057,-0.79966 -2.08538,0.36063 -2.11674,-4.40595 -6.13071,1.23868 2.82232,-5.69168 -5.39376,2.39898 -0.3136,-0.98782 4.81363,-7.63594 5.7544,1.3014 -0.45471,3.43382 -3.6063,-0.0314 -0.39199,1.52092 1.63068,1.47388 0.6899,-2.17946 4.60979,-0.62718 -2.08538,-0.75262 3.91989,-2.00698 -4.23348,-0.95646 0.28223,-4.311877 -3.19863,1.317084 -2.88504,-0.846697 -2.55577,-6.554057 9.98788,-1.505238 4.42164,2.242178 -0.10976,3.449503 1.64635,1.301404 0.75262,-1.818829 -1.4582,-4.829305 5.73872,-4.688189 1.44252,0.674221 -3.04183,4.782266 1.69339,0.580144 1.97563,-2.49305 3.84149,6.914687 -0.1568,4.421635 2.97912,1.14461 0.86238,2.71256 2.17946,-1.88154 3.04183,0.18815 1.08189,-8.106333 -2.2265,-5.189935 1.81883,0.141116 0.1568,-1.270045 -2.17946,0.564465 0.0941,1.881547 -4.50004,-0.06272 -2.05402,-2.947758 -3.19863,-0.862376 -2.3049,-7.024444 -4.15508,3.59062 0.5331,1.834509 -8.98439,4.076686 4.01397,-9.925163 0.0941,-4.9233826 -5.72304,3.5592606 1.06621,5.127217 -7.68299,6.256146 0.37631,-1.975625 5.26834,-4.625471 0.12543,-6.993085 2.71257,-3.4651836 4.35892,-2.900719 z"
     title="Mecklenburg-Vorpommern"
     id="DE-MV"
     style="fill:none;stroke:#000000;stroke-width:5;stroke-linecap:round;stroke-linejoin:round;stroke-dasharray:none;stroke-opacity:1" /></svg>
