<?xml version="1.0" encoding="UTF-8" standalone="no"?>
<!-- Created with Inkscape (http://www.inkscape.org/) -->

<svg
   width="385.56808"
   height="342.61829"
   viewBox="0 0 385.56808 342.61829"
   version="1.1"
   id="svg1"
   inkscape:export-filename="Rastergrafik.svg"
   inkscape:export-xdpi="120"
   inkscape:export-ydpi="120"
   xmlns:inkscape="http://www.inkscape.org/namespaces/inkscape"
   xmlns:sodipodi="http://sodipodi.sourceforge.net/DTD/sodipodi-0.dtd"
   xmlns="http://www.w3.org/2000/svg"
   xmlns:svg="http://www.w3.org/2000/svg">
  <sodipodi:namedview
     id="namedview1"
     pagecolor="#ffffff"
     bordercolor="#000000"
     borderopacity="0.25"
     inkscape:showpageshadow="2"
     inkscape:pageopacity="0.0"
     inkscape:pagecheckerboard="0"
     inkscape:deskcolor="#d1d1d1"
     inkscape:document-units="px"
     inkscape:zoom="0.77566597"
     inkscape:cx="159.21802"
     inkscape:cy="237.21551"
     inkscape:window-width="1680"
     inkscape:window-height="937"
     inkscape:window-x="0"
     inkscape:window-y="25"
     inkscape:window-maximized="1"
     inkscape:current-layer="layer1">
    <inkscape:page
       x="0"
       y="0"
       width="385.56808"
       height="342.61829"
       id="page2"
       margin="0"
       bleed="0" />
  </sodipodi:namedview>
  <defs
     id="defs1" />
  <path
     d="m 13.989351,49.362802 -4.4368355,0.424283 -2.885155,1.503189 3.188218,2.15781 -1.078903,1.527435 -1.078902,-1.709272 -1.757763,1.284979 -4.12165,-3.38218 0.351553,-2.133555 6.98256,-2.460866 z m 7.321991,-6.582522 -1.369843,0.703103 1.74564,0.1091 -1.600171,0.787968 0.630371,1.127396 -1.988091,-0.06059 -0.606124,-2.121437 z m -6.509784,0.1091 1.854744,0.933432 -1.733519,0.472784 -0.278816,-3.042751 z m 19.735431,-4.958096 1.30923,1.212242 -17.868565,1.345597 z m 19.78392,-5.042964 0.92131,1.139515 -3.733731,1.139515 -0.630369,-0.690983 0.375797,0.787963 -1.98809,0.460655 -4.776264,-0.254572 -1.030413,1.006164 -2.03658,-1.12739 -1.11527,1.357719 -1.188005,-1.345596 3.867077,-2.08507 z m 64.576561,-0.763718 1.73352,0.87282 -2.5336,0.278818 -0.50915,1.478945 -2.64271,-0.09698 1.47895,-2.194173 z m -59.485111,-0.497022 2.485116,0.460655 0.363675,1.854742 -6.049131,-1.078902 z m 13.686306,-3.066993 3.733731,0.569758 0.315184,1.21225 -9.091875,0.400043 -0.497022,2.424499 -0.278818,-0.848575 -0.133348,1.006168 -2.800297,-0.14547 1.103148,-3.964058 z m 33.506585,-0.315185 0.80008,2.145683 -1.30922,-0.848575 z m 0.29095,-1.309229 -0.71523,0.9698 -0.67886,-0.545513 0.82433,-1.636538 z m -22.608468,-1.35772 7.273503,1.333474 -4.642919,1.527435 -4.679286,-0.654615 -0.994045,1.721395 -1.115269,-0.33943 1.16376,-2.9094 z m 13.359003,-1.733519 5.782425,2.630584 -7.285615,-1.709273 -0.82433,1.903233 -1.47895,-1.685028 z m 36.997865,-4.315609 -2.38814,0.327307 1.81838,-2.048702 1.09103,0.169715 z m 24.29349,-8.413016 -0.1091,1.418333 1.86686,1.103147 -0.49702,1.284985 1.39409,1.200128 -0.63037,-2.109315 4.3156,4.3641 9.50405,1.660782 9.74649,-2.254784 -1.22437,-4.303488 v 0 l 15.83198,-0.67886 8.0857,3.430668 3.89133,5.285409 4.75202,9.698 6.17035,5.782429 3.44279,10.001065 9.51616,6.752232 4.40047,1.078905 v 0 l 3.43067,0.424284 -0.70311,1.66079 0.99405,2.679068 -1.17588,1.4547 1.72139,1.23649 -0.19396,1.15165 1.63654,-0.20608 0.24245,3.770086 4.21863,4.29137 -0.0364,-1.13952 3.27308,-2.25479 1.33347,2.66695 -1.09103,2.5336 0.66674,0.25458 2.0487,-1.80626 3.33369,1.51532 3.50341,-2.4245 -0.80009,-1.52744 2.14569,-0.0364 0.3273,-2.13356 9.46767,8.70396 h 4.97023 l 1.91536,-3.09125 3.4549,-1.73351 v 0 l 1.74565,1.11526 3.63674,0.12123 9.45556,6.47341 6.14611,1.80626 1.188,-0.55763 v 0 l 8.06146,-0.82433 3.10336,3.52764 1.79413,0.52127 -0.24245,1.40621 5.83093,3.06699 6.38855,-5.66121 2.46087,1.80626 2.88516,0.12122 1.73352,6.81284 1.36984,0.16972 4.76414,8.44939 8.27966,4.303477 -1.73351,2.93365 0.73947,2.6912 3.21246,-0.93343 3.22458,2.78816 v 0 l 0.43641,3.00639 5.07934,5.49149 8.83729,-2.95789 4.29137,3.86708 2.98214,-0.61825 4.00042,2.25478 v 0 l -3.0185,3.05487 -0.25457,1.66079 -3.61251,-0.84858 -1.28499,5.75819 0.75161,2.58209 -3.52766,0.84857 -4.01254,3.75799 -7.06742,3.39429 -1.39409,0.43641 -0.30306,-1.86687 -4.00043,1.21225 -1.39409,-2.24265 -5.01871,-0.92132 -4.42471,0.87283 0.0364,-1.87899 -7.26138,0.16971 -1.05466,0.4849 -0.32731,2.95789 -3.64887,4.0368 -3.30944,-0.37581 -1.21225,1.27287 -1.03041,-1.29711 -7.80689,1.74564 -0.84858,7.50383 2.83667,4.59443 0.41217,4.30348 2.33963,-0.31518 1.00617,2.81242 v 0 0.30306 0 l 6.01277,10.46172 4.37622,-1.76988 -0.36368,2.52147 -2.46086,1.8305 -0.1576,2.77605 5.47937,9.15249 v 0 l -0.73947,-0.0848 v 0 l -1.74564,-0.63037 -2.40026,0.93343 -0.8607,4.17015 6.29158,7.63717 -0.0364,1.4547 0.86069,-0.2182 v 0 l 0.69099,0.60612 v 0 l 3.06699,1.36984 -0.49703,2.40026 -2.49723,1.46682 -4.08528,0.33943 4.06104,4.76414 v 0 l 0.0122,0.33943 v 0 l -1.87898,1.60017 1.24862,2.20629 1.87899,0.49703 0.48489,3.18822 v 0 h 0.69099 v 0 l 1.36984,1.58804 -0.77584,1.1274 -3.56402,1.03041 -1.22437,1.66078 0.44853,2.5821 3.15185,0.61824 -1.16376,4.86113 v 0 h -0.66674 v 0 l -4.49745,3.60038 -2.67906,0.29094 -0.29094,1.06677 2.48511,1.09104 -0.46066,3.64887 -6.36431,-0.38792 -4.17013,1.64866 -9.96471,-0.40005 -3.9883,1.09103 0.56976,1.90323 -2.43662,2.1578 -1.91535,0.24246 -0.41217,-1.00617 -2.48511,1.29711 1.76988,3.74585 1.62442,-0.33943 1.188,2.42449 2.29115,0.0364 -2.93364,2.41237 0.097,2.15781 2.66695,1.53956 0.0727,2.23053 -1.28499,2.44875 -4.27924,2.8003 -0.2667,1.16376 1.00617,0.43641 -0.99404,3.09124 1.26073,5.28541 2.88516,1.41833 0.3758,2.78818 2.80029,3.11547 0.0485,5.21268 2.37602,3.2852 v 0 l -1.95173,0.50914 0.52126,1.13952 -3.38218,1.06678 0.76373,1.62442 -1.10315,-0.0606 0.35155,2.81242 2.06083,1.06678 -0.69099,2.13356 -3.91556,-2.60634 -3.47916,2.89728 -3.22459,0.26669 -1.86686,-2.35176 -4.78839,-2.37602 v 0 h -0.46065 v 0 l -4.40047,0.58189 0.78796,2.3154 v 0 0.72735 0 l -2.9094,5.46724 -2.71544,0.54552 -0.66674,2.5336 -4.08528,1.30923 -0.94555,1.5638 -1.29712,-0.0242 -1.11526,-1.89111 -1.81838,2.01234 0.61825,0.8122 -1.00617,2.14569 -2.47299,0.2667 0.95768,1.50319 -2.83666,0.1091 v 0 h -0.49702 v 0 l -2.36389,-0.52127 -0.90919,2.06083 -1.69715,-2.36389 -0.63037,2.0487 -2.20629,0.0485 -0.71523,1.92748 -5.61272,3.64887 v 0 l 0.19395,-2.16993 -2.21841,-3.04275 -1.50318,0.33943 -0.29095,1.16376 -2.14568,-1.12739 1.11526,5.30966 -1.95171,-1.49107 -0.0727,-2.32752 -1.57593,-1.16376 -1.782,0.47278 0.23032,2.76393 -2.13355,-0.30306 -2.2063,2.13355 -3.12761,0.83646 2.8488,5.47937 2.59421,-2.12144 -0.35156,3.70948 -2.6427,1.39409 -4.93386,-2.83667 -3.05487,0.82434 0.12123,-1.70928 -2.13357,0.0848 -3.32156,-2.48511 -2.3154,-2.73969 2.86092,0.61825 0.64249,-1.10314 -1.36984,-1.04254 1.46682,-2.70331 3.91557,-0.48491 1.188,-1.61228 -1.28499,-3.50341 1.18801,-2.95789 -4.40047,-5.73394 2.71544,-2.03659 -1.188,-3.4549 1.35772,1.56379 1.81837,-0.37579 -1.56379,-2.27904 0.27881,-1.75775 3.75798,2.0487 0.87281,-1.16376 -4.01255,-3.91557 -0.89705,-3.3943 -4.33986,1.46683 -1.97597,-1.95173 -2.67907,1.66079 -1.39409,-1.15164 0.3273,-2.59422 -3.46703,1.27286 v 0 l -5.89153,-0.42428 2.0487,-6.37644 -1.11527,-2.24266 0.56976,-1.62442 -1.49107,-1.3456 5.50362,-6.35218 -1.4547,-2.56998 1.10314,-1.97596 -0.63037,-1.32135 2.07295,-2.44875 -4.23076,0.69098 -3.37005,-1.16376 -2.8609,1.35772 1.47894,-3.38217 -0.23033,-3.32157 -5.21268,-3.00638 0.23033,-1.47894 -1.01829,-0.41217 1.64867,-1.50319 -0.80009,-1.7214 -4.41259,-0.1091 -0.69099,1.64867 -1.72139,-0.59401 -0.83646,-1.92748 1.56381,-1.95172 -1.15164,-0.89706 1.188,-1.15165 -1.58804,-2.82454 -0.15759,-2.92152 1.61229,-1.43045 -3.04275,-3.51553 -1.61229,0.35156 1.95173,-3.11549 -0.40005,-1.27286 -1.85475,-1.21225 -3.13972,0.56976 -1.63654,-0.67886 0.10911,-1.04253 -4.48534,1.68502 0.80009,-4.54594 -2.80029,-2.97001 1.55168,0.64249 0.60613,-0.71523 0.66673,1.57593 1.6729,-0.12123 -0.60612,-5.09144 1.32135,0.44853 1.84262,-1.38196 -3.09124,-2.32752 -4.92173,-1.68504 0.4849,-1.34559 -1.05466,-0.70311 1.5638,-0.76371 0.94556,-5.07933 1.57592,-0.58188 0.67886,-1.81838 2.43662,0.72736 3.05488,-4.06105 -0.21821,-2.0487 2.12144,-2.06082 0.0727,-2.25479 -1.06677,0.0122 0.0121,-1.70928 -1.22437,-1.04254 3.27307,-4.15801 -2.88515,-2.64271 -3.63675,-0.35155 -3.03062,5.443 -2.71544,0.87282 0.64249,2.27903 -3.41854,2.03659 -0.4243,1.81837 -3.38217,-0.47278 -0.49703,1.40621 -2.42449,0.63037 -5.05509,-1.17588 -3.24883,1.2971 -1.74564,-1.38196 -1.44257,0.4849 -0.20609,-3.03062 1.00617,-1.27287 -1.01829,-1.68502 -0.18183,-7.73416 -1.00617,-1.98809 -1.35773,0.33943 -1.53955,-1.78201 -7.29774,4.13377 -4.20651,-1.64865 -3.35794,2.49723 -0.26669,3.90345 -2.94577,2.13356 -1.35772,-0.7516 -2.77605,0.78797 -4.65504,-1.81838 0.0728,3.05487 1.36984,1.10314 -0.41217,2.78818 6.02489,2.40026 3.8307,2.82454 2.03659,5.89153 -0.83646,3.51553 0.69098,5.1157 -1.98809,4.02466 2.01234,2.60634 3.73373,1.18801 -3.66099,3.70949 -4.61868,2.31539 -0.26669,3.2367 -2.64271,0.0606 -2.46087,-1.782 -2.29115,0.71522 -2.03658,-0.89706 0.12123,-1.17589 -4.8975,3.51553 -2.33964,4.29136 -3.18821,-0.30306 -4.26712,2.23054 -4.90962,-1.44258 -3.96405,4.18227 -4.764145,-1.91535 -2.63058,-4.13378 6.752235,-4.03679 2.7518,0.097 -0.65461,-4.54593 0.26669,-1.03041 1.80625,-0.36368 -1.51531,-1.6729 -5.40664,-0.0122 -2.109305,-1.6123 -0.58188,-1.96384 1.975965,-2.75181 -0.097,-4.64292 2.43662,-0.46066 -1.95172,-2.376 0.0242,-1.98809 4.63079,-0.89707 -3.34581,-3.24883 -0.90919,-3.75797 -3.612505,-2.07295 -3.49128,1.43045 -2.909392,-0.30305 -7.273504,-3.5519 -1.903233,-6.54615 -6.230965,-2.77605 -3.321565,5.40663 2.95789,1.30923 -2.4245,5.01871 0.860698,0.72736 -4.667163,0.94555 -6.715865,4.48533 -0.751599,2.32752 -3.188217,0.58188 -1.818375,2.69119 -3.588261,0.99405 -1.442576,1.97596 -10.910251,-0.30306 -2.545724,0.65462 -1.672905,2.27903 -2.9094,0.18184 v 0 l -2.776053,-4.01255 -0.121226,-2.06083 3.600384,-7.84325 0.04849,-2.6912 -1.16376,-3.29732 -1.769886,-0.20608 -1.951722,-3.53977 -1.527436,-4.83688 -3.782219,4.10953 -6.837091,-1.79413 0.01213,-1.18801 -7.4310935,-0.46065 -4.618673,-3.067 0.545513,-4.36409 -1.927477,-4.01256 2.691195,0.54552 0.824329,-1.81838 3.2003415,-0.0364 -3.6609955,-3.23671 0.521267,-3.40642 -1.078902,-1.4547 3.066993,-2.72757 9.4070595,-0.69097 4.861123,2.03657 2.95789,-1.13951 5.152063,1.75776 1.078902,-1.27286 1.297108,-21.23862 1.612293,-3.661 -0.38792,-1.44258 7.382602,-11.84368 2.654828,-8.23118 -1.236495,-13.75903 -1.394088,-1.03042 -0.303063,-2.14568 1.842621,-4.60655 1.842619,-0.56976 -1.442577,-1.33347 0.72735,-1.27287 -0.654615,-5.673317 1.478945,-2.38813 1.309229,-7.47959 4.873246,-0.23033 -22.741811,-2.7518 -1.35772,-3.62463 1.030414,-1.7214 1.151637,-12.934696 1.79413,-2.82455 -1.16376,-3.69736 1.69715,3.12761 2.582093,0.0121 0.824329,1.32135 0.9698,-1.28498 -4.07316,-0.0727 -1.381965,-3.430672 2.000212,2.400252 0.739473,-1.854741 2.157806,2.715441 -0.315185,-1.624408 1.757762,-0.133356 1.60017,-2.169918 -2.060826,-0.787968 -2.121437,-4.024674 4.545938,-4.54593 0.521268,-1.927482 -0.109103,0.897068 7.018927,-6.243093 9.007018,-2.194164 1.200127,0.800076 8.061466,-0.290938 3.406423,1.588053 13.783282,-4.20651 0.02425,-2.109316 0.02425,2.557845 7.940238,-1.406207 2.182052,-3.079115 -1.91536,3.539769 7.87963,-1.491067 8.861545,1.345598 -0.46066,3.321569 1.78201,5.261161 2.21842,-0.703103 1.95172,1.927472 0.89707,-1.200124 0.56975,0.715231 -1.39409,0.606121 1.22437,1.9396 1.05466,-0.460657 -0.94555,0.642494 0.58188,2.048701 3.58826,7.321988 -0.89707,1.624417 1.03042,-0.606121 -1.35772,2.800298 -4.61867,1.74564 -2.63059,-0.594 0.21821,3.75797 2.72756,4.012546 2.80029,-1.05466 1.30924,0.63038 3.80646,5.70969 3.3943,0.83646 1.69715,-1.00617 3.55189,-6.6795 -0.23033,-8.255426 -6.40067,0.13335 1.16376,-7.976606 2.97001,-3.830708 1.95172,-0.848577 2.38814,0.703103 3.53977,4.909614 6.24309,2.788177 3.04274,0.303065 1.16376,-1.066787 -0.0364,1.27287 2.50936,1.406206 0.43641,1.878993 v 0 l -0.64249,0.42428 2.06082,4.4126 0.94555,-0.83646 1.58805,1.1274 1.98809,-1.5032 1.38197,-2.46086 -0.90919,-1.806256 0.49702,-3.467034 -1.2971,-0.242456 -0.83646,-2.303275 3.28519,-4.558057 h -1.33346 l 0.20608,1.042532 -2.3154,-0.363675 -1.75777,1.503199 -5.57634,-1.648663 v 0 l -2.90941,-6.449176 -0.097,-5.103569 4.84901,-12.158867 0.23033,-3.58826 4.94597,-8.606975 z m -5.41876,94.094841 0.8607,3.67312 3.03062,4.57018 -0.27882,1.57593 3.4428,1.89111 -0.40005,2.73968 0.99405,1.95172 2.88515,0.12123 1.27286,-1.90324 0.4243,1.79414 3.44278,2.44875 3.33369,-0.18185 0.0728,-2.376 2.18205,3.35792 3.13972,0.0122 0.18184,-1.32135 3.38218,-2.82454 -1.2365,-1.74565 -0.20608,-3.20034 2.10932,-1.61229 -2.0487,-0.31518 -1.16376,-2.12144 2.71544,-1.32135 -2.98215,-3.30944 -2.38813,2.5336 -3.8792,0.13334 v 0 l -0.13334,-0.40004 v 0 l -1.46683,-1.79413 v 0 l -0.23032,-1.1274 v 0 l -0.78796,-0.88494 -6.70374,0.0485 -1.11527,-2.10931 -1.76989,0.42429 -0.44853,-1.06678 -1.7214,1.28498 -4.18227,0.41216 -0.98192,-2.43662 -2.40025,-0.0485 1.49107,-2.642697 -1.58805,-0.64249 -1.89111,1.06677 -4.01254,-2.47298 v 0 l -0.94556,-0.0364 v 0 l -0.60612,0.44854 1.87898,3.066977 v 0 l 0.32731,0.41217 z m -8.9464,-98.737758 1.09102,1.527435 -2.32752,0.424288 0.33943,-2.08507 z m -3.8792,-4.364099 0.88494,0.363674 -2.82454,2.254785 -0.93343,-0.448532 1.5153,-2.460868 z"
     title="Lower Saxony"
     id="DE-NI"
     style="fill:none;stroke:#000000;stroke-width:3.63675;stroke-linecap:round;stroke-linejoin:round;stroke-dasharray:none;stroke-opacity:1" />
</svg>
