<?xml version="1.0" encoding="UTF-8" standalone="no"?>
<!-- Created with Inkscape (http://www.inkscape.org/) -->

<svg
   width="386.83118"
   height="380.44873"
   viewBox="0 0 386.83118 380.44873"
   version="1.1"
   id="svg1"
   inkscape:export-filename="ni.svg"
   inkscape:export-xdpi="120"
   inkscape:export-ydpi="120"
   xmlns:inkscape="http://www.inkscape.org/namespaces/inkscape"
   xmlns:sodipodi="http://sodipodi.sourceforge.net/DTD/sodipodi-0.dtd"
   xmlns="http://www.w3.org/2000/svg"
   xmlns:svg="http://www.w3.org/2000/svg">
  <sodipodi:namedview
     id="namedview1"
     pagecolor="#ffffff"
     bordercolor="#000000"
     borderopacity="0.25"
     inkscape:showpageshadow="2"
     inkscape:pageopacity="0.0"
     inkscape:pagecheckerboard="0"
     inkscape:deskcolor="#d1d1d1"
     inkscape:document-units="px"
     inkscape:zoom="0.77566597"
     inkscape:cx="159.21802"
     inkscape:cy="237.21551"
     inkscape:window-width="1680"
     inkscape:window-height="937"
     inkscape:window-x="0"
     inkscape:window-y="25"
     inkscape:window-maximized="1"
     inkscape:current-layer="layer1">
    <inkscape:page
       x="0"
       y="0"
       width="386.83118"
       height="380.44873"
       id="page2"
       margin="0"
       bleed="0" />
  </sodipodi:namedview>
  <defs
     id="defs1" />
  <path
     d="m 129.73806,52.728481 3.99964,-0.249977 2.2998,-3.13305 3.49967,-0.899917 14.99865,0.416628 1.98315,-2.716421 4.93289,-1.366543 2.51644,-3.71633 4.36627,-0.783263 1.04992,-3.216375 9.2325,-6.149443 6.41608,-1.316547 -1.19989,-0.999909 3.33303,-6.899376 -4.0663,-1.799837 4.56625,-7.43266 8.54923,3.816321 2.61644,8.999185 9.99909,4.882891 3.99963,0.416629 4.79957,-1.966488 4.96622,2.849742 1.24989,5.166198 4.59957,4.466262 -6.36608,1.233222 -0.0333,2.749751 2.68308,3.266371 -3.3497,0.633276 0.13333,6.399421 -2.73309,3.78299 0.8166,2.699756 2.89973,2.199801 7.43267,0.01667 2.08314,2.299792 -2.48311,0.499955 -0.36663,1.416538 0.89992,6.249434 -3.78299,-0.133321 -9.2825,5.549497 3.61634,5.699488 6.54941,2.633093 5.44951,-5.749481 6.76605,1.966492 5.86613,-3.066392 4.38294,0.416628 3.21638,-5.899465 6.73272,-4.832896 -0.18332,1.633185 2.79975,1.216557 3.14971,-0.983244 3.3997,2.449777 3.633,-0.08332 0.34997,-4.449598 6.34943,-3.183044 5.01621,-5.099539 -5.13287,-1.61652 -2.76642,-3.583009 2.73309,-5.532833 -0.94991,-7.032695 1.16656,-4.832897 -2.79976,-8.099267 -5.26618,-3.882981 -8.28258,-3.299702 0.56662,-3.849651 -1.88317,-1.499864 -0.1,-4.216284 6.39942,2.499773 3.83299,-1.06657 1.86649,1.016574 4.04963,-2.933067 0.34998,-5.366181 4.61625,-3.416358 5.79947,2.249797 10.03243,-5.666153 2.11647,2.449777 1.88316,-0.466624 1.38321,2.733086 0.24998,10.632371 1.41654,2.316456 -1.38321,1.749842 0.26664,4.16629 1.98315,-0.666607 2.39978,1.899828 4.46627,-1.783172 6.94937,1.61652 3.33303,-0.883253 0.6666,-1.916493 4.64958,0.633276 0.58329,-2.499774 4.69958,-2.799746 -0.88326,-3.116385 3.73299,-1.199891 4.1663,-7.482655 4.99954,0.483289 3.96631,3.633004 -4.4996,5.732815 1.69986,1.416538 -0.0167,2.349787 1.46653,-0.01666 -0.0999,3.083054 -2.9164,2.833077 0.31664,2.816411 -4.19962,5.582829 -3.36637,-0.999911 -0.93324,2.499774 -2.16647,0.799928 -1.29988,6.982701 -2.14981,1.049905 1.44987,0.966579 -0.6666,1.849833 6.76604,2.333122 4.24962,3.19971 -2.54976,1.899828 -1.81651,-0.633275 0.83326,7.01603 -2.29979,0.166653 -0.89992,-2.166471 -0.83327,0.999909 -2.13313,-0.883253 3.84965,4.066299 -1.0999,6.249434 6.18277,-2.299792 -0.14998,1.433204 2.24979,0.933248 4.31627,-0.783262 2.54978,1.666516 0.54995,1.749841 -2.66643,4.282945 2.19981,-0.483289 4.18295,4.81623 -2.21647,1.966492 0.21664,4.0163 2.18314,3.882984 -1.61651,1.5832 1.58318,1.23322 -2.16647,2.68309 1.1499,2.649751 2.36645,0.8166 0.96658,-2.283131 6.06612,0.16665 1.08323,2.366461 -2.26646,2.06648 1.39987,0.56661 -0.31663,2.03315 7.16601,4.13295 0.31664,4.56626 -2.04981,4.64958 3.94964,-1.86649 4.63292,1.59985 5.81614,-0.94992 -2.84975,3.36637 0.86659,1.8165 -1.51653,2.69976 2.01649,3.53301 -7.58265,8.73254 2.04982,1.84984 -0.76661,2.24979 1.53321,3.06639 -2.81642,8.76588 8.09927,0.58327 v 0 l -3.0664,2.88307 -9.03251,2.59978 3.683,3.99963 -5.98279,6.58273 -0.84992,6.59941 -2.68309,-0.0667 -1.9665,2.61643 -4.18294,1.48319 -0.8666,5.23287 -3.46635,-1.11657 -2.56643,3.81632 -2.43311,-1.19989 -4.33295,0.96658 -1.83316,-3.54968 1.36654,-5.04954 -1.53319,-1.36655 -3.99965,0.11666 -2.19979,-2.61643 -13.53211,6.16611 2.98306,5.66615 0.0334,3.03306 2.93306,0.53328 -0.96658,6.49941 -4.98288,-0.59995 -3.86632,2.5831 -1.89983,-1.88316 -3.633,-0.34997 -7.59931,3.11638 -3.94964,-0.7166 -1.84984,0.98324 0.49996,1.9165 -2.39978,0.78327 -0.4833,2.63309 -1.84982,-0.73327 -1.78318,1.29988 -6.68272,9.94911 4.08296,5.1162 10.23241,-4.89956 3.18304,0.39996 1.53319,1.9165 -0.93324,1.89982 1.44986,5.46618 2.78308,1.68317 -2.11647,1.71652 1.14989,3.66634 -6.5994,6.71605 0.11666,2.36645 v 0 h 0.39996 v 0 l 2.04982,2.26646 -3.83299,0.33331 -2.91641,2.23313 -10.49904,-1.41654 -3.19971,0.99991 -2.69975,2.88307 2.59976,2.78309 -2.31646,3.84965 1.4832,-0.51662 1.93316,4.09963 -6.63274,7.24934 0.34998,1.21655 -2.09981,0.54996 -0.88326,4.16628 1.06657,3.733 -2.94974,0.19998 -7.79929,9.5158 h -5.58283 l -1.58318,-3.48301 -2.61643,0.18332 -13.44879,15.08196 v 0 l -0.6666,0.21665 v 0 l -0.41663,1.71652 3.98297,7.54931 -4.54959,8.1326 v 0 l -4.94955,-3.53302 -1.94983,1.83317 -2.03314,-0.29998 -0.23332,-5.1162 -7.46599,-7.94928 0.98325,-8.26592 -0.94992,-3.53301 -1.21655,-1.24989 -4.38293,1.36654 -3.51635,-5.01621 -5.79948,-1.26655 2.34979,-7.6493 -6.09945,-2.43312 -2.84975,3.09972 -3.1997,0.98324 2.59976,2.88308 -1.08323,5.74947 1.34987,3.66634 -3.56634,-1.01657 -2.79974,3.99964 -4.46627,1.0499 2.04982,2.01649 -0.89992,4.58291 -1.73318,2.18314 -5.84946,0.46663 -0.83327,4.36626 -4.46626,-1.13323 -3.11639,1.54987 -0.0167,1.36654 -9.1825,3.16637 -6.31611,-1.41653 -1.83317,3.49968 1.56653,2.73308 -1.89983,3.21638 0.56662,1.93316 -2.56645,1.8665 -13.01548,2.66643 -1.23322,-4.19963 -1.31655,4.18296 -1.79984,1.83317 -1.94982,-0.28331 -0.7166,2.31646 -3.3497,-1.98316 -2.74975,4.38294 -3.59967,-3.36636 -6.16612,6.91604 -2.59976,1.36654 -4.58292,-0.66661 0.0667,4.41627 -5.16619,1.04991 1.49986,1.64984 -0.88325,1.76652 1.73317,0.6666 -0.43329,5.68282 -4.51626,2.64975 -4.76623,-3.21636 -1.29988,-3.28304 -5.916136,3.13304 2.23314,2.38312 -2.39979,3.0164 2.9664,0.93325 1.26655,2.33312 -1.38321,4.69958 3.433026,4.0163 -0.34997,1.3832 -2.166466,-0.56661 -8.182593,4.61625 -3.433026,-5.69948 -3.266371,4.36626 -1.833167,-1.69984 0.51662,-3.19972 -2.316457,-0.18331 -0.199982,-2.11648 -10.115751,4.61625 -2.466443,3.56635 -3.316367,0.31663 0.749932,-4.06629 -1.54986,-1.71651 -1.549859,1.46653 -1.866497,-4.3996 -2.783083,0.81659 0.916584,3.74966 1.216557,-0.23331 0.149987,3.98297 1.766506,1.01658 0.06666,1.63318 -2.199802,0.0833 v 0 l -0.566614,-3.66633 -6.116113,-5.89947 3.732995,-9.36581 -0.466624,-3.04973 -3.333032,-1.31654 1.083235,-4.41627 -8.53256,-2.74975 -4.682909,1.64984 -1.916489,-4.26627 -2.06648,-0.94992 0.799928,-1.7165 -1.883163,-0.86659 -0.233312,-2.54977 5.21619,-5.43285 1.933158,0.18332 2.699756,-6.24943 -7.532647,-1.08324 -2.199801,1.0999 0.733267,-0.98325 -1.58319,-1.78316 1.499864,-1.38321 -6.616068,-11.46563 -7.999275,-1.4332 -0.733267,1.53319 0.299973,-4.23295 -2.749751,-2.84974 1.049904,-2.03316 -5.582827,-3.81632 1.149895,-2.21646 2.149806,1.24988 2.149805,-2.16646 -0.633276,-5.16621 3.916313,-1.68317 1.933158,1.56652 1.599855,-4.46625 -1.483199,-3.29971 2.099809,-4.79956 -4.29961,-0.0999 -3.716331,-2.08315 -1.533194,-3.84965 2.116475,-4.46626 -6.149443,0.79993 -1.433203,-1.49987 -5.949462,2.21646 0.749932,-4.58292 -2.71642,-2.74975 -1.4831999,-4.96621 5.1162039,-3.09972 2.466444,5.26619 2.366451,-0.11665 2.183137,-6.16611 3.2997,-3.23304 3.516349,-1.4832 5.066208,-5.76615 8.832534,-3.83298 -3.683,-2.64977 4.499593,-2.21647 -1.766507,-1.3832 -6.966036,4.09963 -1.883163,-0.34997 -1.54986,-7.94928 1.916493,-0.69994 -1.499864,-3.21637 5.449507,-5.31619 4.849561,-9.81577 2.566434,-0.54996 3.516344,-4.6329 -1.266548,-4.18296 1.249882,-2.33313 -2.099805,0.1 1.866493,-12.24889 -1.066566,-6.88271 -5.632823,-8.61588 -7.382664,-7.34934 2.68309,-8.59922 -8.932525,-3.06639 -0.633276,-5.74948 1.866498,-1.58319 -5.366181,-3.633 -4.049633,-0.0999 0.04999,-2.09981 3.599674,-2.51644 0.133322,-2.94974 -1.749842,-0.54994 0.316639,-2.04982 -3.283037,-2.51644 1.316547,-0.81659 -1.416538,-1.08323 1.716512,-2.13314 5.482836,0.18331 5.432842,-5.01621 3.74966,2.66642 7.066027,1.41654 -0.199982,-3.39969 -2.716421,-4.23295 -3.516347,-1.18322 1.433203,-1.6332 5.33285,0.11666 4.566253,5.5495 7.232674,-0.88326 2.033149,0.98325 0.699937,3.13305 5.132869,0.23331 1.016574,2.14981 4.099629,1.54986 0.883253,-4.38293 -2.449777,-1.78318 0.483289,-1.94983 4.249615,2.6831 1.883163,-1.11656 2.099809,2.03314 7.899285,-5.26619 14.898651,-5.69948 5.066205,3.16638 5.949476,-5.19954 1.14989,-5.0662 3.04972,-0.94992 0.26665,-3.866311 -8.182596,-7.13269 -7.032702,-1.966488 0.716602,-5.349511 4.54959,-0.816593 2.56644,-7.482657 10.015756,-0.349968 5.48283,-9.599131 4.61625,-0.883253 3.61634,-7.665972 5.61617,-0.216647 z"
     title="North Rhine-Westphalia"
     id="DE-NW"
     style="fill:none;stroke:#000000;stroke-width:4.99955;stroke-linecap:round;stroke-linejoin:round;stroke-dasharray:none;stroke-opacity:1" />
</svg>
