<?xml version="1.0" encoding="UTF-8" standalone="no"?>
<!-- Created with Inkscape (http://www.inkscape.org/) -->

<svg
   width="302.49924"
   height="385.38174"
   viewBox="0 0 302.49924 385.38174"
   version="1.1"
   id="svg1"
   inkscape:export-filename="HE.svg"
   inkscape:export-xdpi="120"
   inkscape:export-ydpi="120"
   xml:space="preserve"
   xmlns:inkscape="http://www.inkscape.org/namespaces/inkscape"
   xmlns:sodipodi="http://sodipodi.sourceforge.net/DTD/sodipodi-0.dtd"
   xmlns="http://www.w3.org/2000/svg"
   xmlns:svg="http://www.w3.org/2000/svg"><sodipodi:namedview
     id="namedview1"
     pagecolor="#ffffff"
     bordercolor="#000000"
     borderopacity="0.25"
     inkscape:showpageshadow="2"
     inkscape:pageopacity="0.0"
     inkscape:pagecheckerboard="0"
     inkscape:deskcolor="#d1d1d1"
     inkscape:document-units="px"
     inkscape:zoom="1.7019241"
     inkscape:cx="178.32758"
     inkscape:cy="203.29931"
     inkscape:window-width="1680"
     inkscape:window-height="937"
     inkscape:window-x="0"
     inkscape:window-y="25"
     inkscape:window-maximized="1"
     inkscape:current-layer="svg1"><inkscape:page
       x="0"
       y="0"
       width="302.49924"
       height="385.38174"
       id="page2"
       margin="0"
       bleed="0" /></sodipodi:namedview><defs
     id="defs1" /><path
     d="m 38.983492,123.59964 2.571201,-0.0974 -0.07791,-1.90893 -2.064752,-1.1882 -0.175309,-4.65543 -1.421952,0.2727 -1.071334,-4.38273 3.252959,-0.95446 2.181625,5.1424 1.811527,-1.71413 1.811529,2.00631 -0.876549,4.75282 3.876278,-0.37009 2.882868,-4.16846 11.823619,-5.39563 0.23375,2.47381 2.70755,0.21426 -0.60384,3.73993 2.14267,1.98684 3.81784,-5.10344 4.01263,6.66174 9.56409,-5.39562 2.53225,0.66228 0.40905,-1.61675 -4.01264,-4.69438 1.61675,-5.49302 -1.4804,-2.72703 -3.46722,-1.09081 2.80495,-3.525674 -2.61016,-2.78547 6.91497,-3.662017 1.51934,3.837327 5.57095,3.75941 5.278748,-3.09713 0.50644,-6.642267 -2.025788,-0.779158 1.03237,-2.06475 -1.75308,-1.928401 6.038418,-1.227164 -0.0779,-5.16188 5.35668,0.779151 3.03868,-1.59726 7.20716,-8.0837 4.20742,3.934716 3.214,-5.122923 3.91524,2.317977 0.83759,-2.707553 2.27901,0.33114 2.10371,-2.142667 1.53883,-4.889178 1.44143,4.908656 15.21294,-3.116607 2.99973,-2.181624 -0.66227,-2.259541 2.22058,-3.759407 -1.83101,-3.194523 2.14267,-4.090546 7.38246,1.655697 10.73282,-3.70097 0.0195,-1.597262 3.64253,-1.811527 5.22032,1.324558 0.97394,-5.103444 6.83706,-0.545406 2.02578,-2.551723 1.05186,-5.356668 -2.39589,-2.356934 5.22032,-1.227164 3.27243,-4.674911 4.16846,1.188207 -1.57777,-4.285337 1.26612,-6.720184 -3.0387,-3.3698315 3.73994,-1.149249 3.33087,-3.6230545 7.12924,2.8439025 -2.74651,8.9407675 6.77861,1.480388 4.11003,5.863119 5.12292,-1.597261 1.42196,1.460909 1.11029,4.129505 -1.14925,9.661482 8.7265,9.291385 0.2727,5.979989 2.37642,0.350618 2.27902,-2.142667 5.78519,4.129504 v 0 l -1.83101,5.045009 3.75941,5.337189 -1.71413,4.402207 3.17504,2.045273 -2.00631,9.408258 -4.01263,3.389311 -3.99315,-1.071334 -3.40879,-3.603577 -5.99947,6.369565 -2.10371,7.304552 4.03211,6.642268 -4.38273,2.999744 1.61674,0.70123 -0.35062,2.25954 -2.68807,2.29851 2.72703,2.24006 4.51908,-0.17531 -0.77916,3.07764 3.4088,-0.19479 0.35061,2.0258 1.71414,0.15583 2.08423,5.16188 -0.56489,3.01921 3.70098,1.07134 0.0973,3.27243 2.04528,2.04528 -1.57778,7.47985 -3.27244,-0.21426 -0.83759,-2.10371 -4.59699,0.27271 -1.79205,2.61015 3.31139,3.25296 v 0 l 0.50646,0.68176 v 0 l -2.4933,4.11003 -2.55171,-0.37011 -2.99974,-3.85679 -0.2727,1.94788 -4.42169,1.61673 -0.50645,1.86997 -4.48012,1.22716 -0.0195,1.85049 -3.35036,2.33745 0.15584,2.57121 5.97999,4.69438 -1.40247,1.9284 1.09081,6.07739 -3.50618,-3.62306 -2.22058,1.36351 -3.9542,-2.43484 -2.59069,5.53197 0.87655,2.80495 -4.34377,0.0584 -3.66202,5.00605 9.87576,8.60962 1.75309,6.27217 2.25954,1.63623 10.3822,-1.16874 8.82389,-4.96708 17.84257,-6.05791 7.51882,1.51934 9.64201,9.77836 4.09053,11.2977 -1.26611,7.7136 4.94761,4.14899 -0.6428,6.3306 5.43459,10.42116 5.9605,-0.0973 0.93499,1.32455 -5.12293,7.69413 -9.77835,5.72676 3.07765,12.56382 4.7723,8.16162 v 0 l -0.87654,5.76573 5.94103,15.7973 -2.5712,3.91523 8.04475,2.90234 -1.51935,6.40852 -4.05159,3.79837 1.36352,1.48039 3.25296,-2.82442 -0.23376,4.14898 -5.90207,7.90839 4.73335,5.64885 -12.15477,11.43406 -0.66228,3.03868 2.45433,-0.13635 -4.597,9.52513 -1.12976,12.91444 -5.78521,8.86285 -1.831,7.53829 v 0 l -1.63622,3.52567 v 0 l -6.428,5.5125 v 0 l -0.85707,-1.96736 -3.19452,1.6557 -0.62333,-1.9284 -4.44116,0.48696 -8.22005,-2.76598 -5.14241,-4.57752 -9.31086,-2.53224 -5.31771,-5.72676 -1.73361,3.05816 -3.89576,-1.30508 -2.74651,2.86339 -8.96024,-6.07739 -3.42827,3.64254 -3.87628,0.5454 -0.3701,-2.43484 -1.46091,1.03237 -3.17504,-1.34404 0.21426,1.67518 -2.88286,0.89602 -5.00604,-1.88944 -0.21428,-3.44774 -3.89575,-1.92841 -4.49961,0.60385 -4.44116,-3.25297 -3.4867,-6.3306 -0.75968,-7.16819 -7.24611,0.8181 0.89603,-3.64253 -9.68096,2.35693 -0.23375,2.4738 v 0 l -8.20057,-8.97971 0.89603,-3.36983 -1.73362,-2.82443 2.35693,-3.72046 1.98684,1.86997 0.0779,-2.39589 2.33746,-1.69466 -0.95446,-1.77256 3.33088,0.11687 2.78546,-2.99973 1.90892,-14.39483 -4.24637,1.05185 -1.49988,-2.92182 -7.96682,-1.83101 -0.17531,-5.22032 -4.71387,-3.214 -0.52592,-2.37641 4.88917,-2.22058 2.31798,-3.31139 -3.21401,-1.90893 1.03238,-6.27217 2.62964,-1.09081 -0.68176,-2.02579 -3.4867,-0.58436 -0.9155,-8.97973 -6.62279,3.56461 -0.17531,-1.96736 -3.33088,-0.0389 -1.48038,-1.75309 -0.29218,-2.49329 -6.1553,0.58437 -2.6686,-2.04527 -1.48039,1.1882 -3.52566,-5.6878 -4.01263,-1.98684 -5.31771,3.58409 0.72071,-2.66859 -4.81126,1.75309 -1.44143,-1.69465 -1.38299,4.1295 -4.246378,-0.6428 -2.14267,2.82443 -1.75309,-1.20769 -3.50618,4.71387 -3.05817,-1.49987 -7.86944,6.44748 -4.65543,0.72072 -2.49328,3.42827 -0.70124,-2.2985 -2.80495,0.87654 -1.40247,-1.38299 -0.4675,2.27902 -1.94787,-0.50645 -3.09712,2.49328 0.15582,1.81153 -3.29191,-0.48697 -2.24007,-3.73992 -5.57093,2.59067 -5.648852,-3.214 -2.512765,1.09081 -2.82442,-1.96736 -1.616739,1.03238 -4.616474,-1.53882 v 0 l -2.76599,-3.9542 2.980256,-1.03237 -0.564885,-3.07765 5.49302,-4.94761 2.493286,-6.87602 -1.344037,-2.57121 9.486168,-8.68753 -1.246641,-2.41537 2.493283,0.70124 -2.006309,-5.00605 2.181619,-2.59069 -1.480382,-5.37614 2.746502,-3.64253 -1.98684,1.55829 -5.083964,-4.03211 -5.083958,2.27902 -4.071068,-2.06474 -4.441164,-5.6099 -4.889178,2.39589 -1.305079,-5.82416 -1.850485,0.46749 -7.849954,-6.38904 -0.311661,-3.68149 -1.636219,-0.91551 0.603843,-5.06448 -2.123189,-0.97394 -0.857067,1.34403 -0.993418,-3.89575 -1.714134,2.82442 -1.012896,-6.19426 -3.759407,-2.33745 1.714133,-1.90893 -1.733613,-1.09081 1.149249,-1.86997 -1.908922,-1.34403 -0.779151,-5.72676 -1.869964,0.0195 2.512764,-2.53225 -1.986837,-0.13635 0.81811,-3.44774 1.616739,-0.25323 -0.954461,-5.08396 3.40879,-4.49961 -2.59068,-2.25954 1.012897,-2.84391 0.934983,-1.81152 1.2856,1.12977 3.934714,-2.06475 -2.980253,-7.38246 1.188205,-2.78547 2.551722,-0.44801 2.25954,-3.77889 8.025263,-1.90892 1.499867,-2.0258 -0.818109,-3.17504 3.116607,-5.04501 2.921819,-0.38957 3.369832,3.52565 0.15583,-2.0063 z"
     title="Rhineland-Palatinate"
     id="DE-RP"
     style="fill:none;fill-opacity:1;stroke:#000000;stroke-width:5;stroke-linecap:round;stroke-linejoin:round;stroke-dasharray:none;stroke-opacity:1" /></svg>
