<?xml version="1.0" encoding="UTF-8" standalone="no"?>
<!-- Created with Inkscape (http://www.inkscape.org/) -->

<svg
   width="379.78375"
   height="362.95731"
   viewBox="0 0 379.78375 362.95731"
   version="1.1"
   id="svg1"
   inkscape:export-filename="hb.svg"
   inkscape:export-xdpi="120"
   inkscape:export-ydpi="120"
   xml:space="preserve"
   xmlns:inkscape="http://www.inkscape.org/namespaces/inkscape"
   xmlns:sodipodi="http://sodipodi.sourceforge.net/DTD/sodipodi-0.dtd"
   xmlns="http://www.w3.org/2000/svg"
   xmlns:svg="http://www.w3.org/2000/svg"><sodipodi:namedview
     id="namedview1"
     pagecolor="#ffffff"
     bordercolor="#000000"
     borderopacity="0.25"
     inkscape:showpageshadow="2"
     inkscape:pageopacity="0.0"
     inkscape:pagecheckerboard="0"
     inkscape:deskcolor="#d1d1d1"
     inkscape:document-units="px"
     inkscape:zoom="0.77566597"
     inkscape:cx="159.21802"
     inkscape:cy="237.21551"
     inkscape:window-width="1680"
     inkscape:window-height="937"
     inkscape:window-x="0"
     inkscape:window-y="25"
     inkscape:window-maximized="1"
     inkscape:current-layer="layer1"><inkscape:page
       x="0"
       y="0"
       width="379.78375"
       height="362.95731"
       id="page2"
       margin="0"
       bleed="0" /></sodipodi:namedview><defs
     id="defs1" /><path
     d="m 54.628159,212.60248 -2.636457,1.89979 2.403829,0.31018 -1.201914,3.08233 -2.229358,-3.21803 1.725329,-2.61707 z m -27.159385,-81.01292 2.520143,0.4071 -0.562186,1.64778 2.597686,2.69462 -3.760829,3.23742 -3.179256,-2.90787 -1.996729,-5.40861 2.4426,-2.96601 z m 321.163106,-16.49724 10.89478,2.0355 7.34718,3.64451 10.41013,21.59568 -8.18078,-2.09365 -6.2422,1.04683 -0.23262,-1.4927 h 4.28424 l -4.78827,-1.68656 -2.90786,1.86103 2.46199,1.04682 -1.14376,1.37639 -7.11456,-0.13569 -3.15987,-1.53148 0.87235,-4.82704 -1.84163,-3.23742 -2.79155,-0.93051 -5.17599,1.8998 3.06295,3.10171 -4.86581,-2.90786 0.19385,-8.70418 2.36506,-5.44739 3.87714,-5.07905 z m -320.096892,-0.56219 -1.7641,8.29708 -2.268128,-10.1775 z m 40.147814,-4.03223 2.442599,1.26007 -1.764099,0.87236 -4.032229,-1.86103 z m -13.744472,-1.12437 -0.756043,6.74623 -2.287513,1.12437 1.899799,0.5428 -0.8142,1.74472 1.6284,1.95795 -1.7641,-1.6284 -2.229356,3.1211 -6.455444,0.69788 -3.450656,-4.40055 -0.116314,-4.3424 z m -18.513356,-4.43933 2.461986,4.32302 -3.198643,0.25201 -4.923972,-4.2067 z m 22.42927,-13.027194 -1.066214,2.52013 -2.1712,-0.63973 0.639729,-1.82225 z m -9.053127,-3.89654 -1.977344,3.93531 -7.754285,1.16314 -4.497486,3.5282 -2.248742,-1.72533 1.453928,-2.22936 11.786515,-2.81093 3.29557,-3.12109 z m 7.075785,-5.75755 -1.512086,2.90786 -3.334342,-0.38772 3.566971,-4.32301 z m -41.737442,9.77039 -0.213243,1.74473 2.5783,0.73665 -2.403828,1.02745 1.861028,1.74471 -4.691342,0.87236 -8.6266374,-12.01915 8.6654084,-9.983635 -2.6558434,5.292305 2.8497004,8.37461 z m 17.602228,-24.910635 7.579815,2.248742 -0.465258,3.528201 1.996728,2.268127 -3.954685,8.355245 -10.255043,-0.0969 -10.507057,-4.594415 -0.465256,-3.7996 3.974071,-5.951413 z M 21.943845,3.9152526 l 3.431272,1.163142 -8.587871,0.2714 0.562186,1.938564 3.314957,0.426486 1.570243,3.9934564 -7.172715,3.722058 -3.605742,6.377899 2.151814,14.694371 6.940086,4.497485 21.459985,-2.0355 4.24547,-2.442599 V 33.8274 l 5.505544,-0.155085 5.815713,3.760828 5.951415,0.329557 4.497486,-2.869086 5.912642,1.977343 4.788271,-1.647785 6.048342,0.484642 12.52317,6.513601 11.922207,-0.213243 11.18556,4.827042 1.72533,8.646028 2.88846,-0.4071 2.63646,2.287515 1.41516,-1.298843 4.69135,1.589628 4.80765,-8.006299 3.31495,-0.930515 3.39251,6.746229 -0.0387,4.671957 3.79959,-7.347185 3.9353,0.03877 2.11305,-3.218029 6.86254,-4.012843 2.13243,-4.167928 2.9854,-0.116314 -2.79154,5.951414 1.8998,3.877143 23.321,7.308414 7.44413,9.324528 2.8303,0.116314 2.26813,-4.051614 1.37639,1.744714 -0.0194,-7.211485 6.33913,3.7996 3.89653,13.027208 6.04835,6.901305 -0.38771,2.98541 -0.8336,-4.09039 -3.58636,0.93052 1.37639,5.35045 3.15987,-1.70595 -2.48137,1.93858 2.42321,0.69788 -0.89174,22.603744 -7.75428,10.15811 -11.68959,6.18405 -4.4781,-0.0194 4.01285,5.56369 5.91264,-0.93051 2.3069,-1.93857 -1.10499,-0.19386 25.00757,-4.73011 9.20822,6.22281 -3.70267,4.3424 2.52014,9.65408 -3.62513,1.06622 -0.79481,3.48943 -1.49271,-0.21325 1.78349,6.68807 -2.9854,5.50555 4.01285,-4.24547 2.32628,0.83359 -1.91918,-1.10499 1.06621,-6.00957 2.15182,-1.14376 -0.2908,-2.61707 4.20671,-7.40534 6.59114,-0.87236 2.01612,-2.81093 3.43127,-0.91113 9.07251,2.48138 10.23566,7.23086 14.71376,5.50555 12.79457,12.4844 10.64275,-1.64779 17.42776,-14.69437 10.83661,0.42649 -4.84643,0.89174 5.68002,1.60901 6.68807,-1.99673 1.06621,-2.90785 3.02417,-1.43455 -0.42648,2.01612 1.14376,-1.14376 1.64778,1.357 -0.73665,3.23742 -6.10651,5.75755 0.31018,-1.7641 -2.67523,0.0776 0.56218,1.82226 1.27946,-0.48465 2.59769,31.4824 -17.42776,12.09671 -10.08057,11.63143 -6.18405,-0.91113 -1.357,-3.58636 -2.26812,6.68807 -4.8852,5.48615 4.10977,10.48768 10.54583,1.37638 1.78349,2.67523 -0.31018,4.18731 2.63645,0.50403 v 0 l -1.27945,7.0564 8.89804,3.14048 -6.68807,1.99674 -1.04682,-1.86103 1.18252,-1.72533 -3.9353,-1.99673 -4.43932,5.73818 -3.45066,0.71726 -1.91919,3.70268 -3.62513,0.75604 -2.83031,4.43933 3.02417,12.27115 -1.31822,4.98213 v 0 l -0.52342,3.54758 v 0 l 5.77694,2.92725 0.8142,3.62513 4.7495,3.85776 8.97558,0.56219 -0.36832,1.95795 2.714,1.0856 1.26007,7.57981 -2.83032,4.01285 -2.30689,12.05791 -7.44412,1.39578 -1.43455,-2.44261 -2.01611,0.34894 1.41516,6.72684 -2.38444,4.49749 1.29884,1.47332 -4.67195,0.63972 -3.79961,5.68001 -6.72684,0.98868 -1.18253,4.65257 -4.82704,-1.10499 -2.53952,1.43455 -2.11306,14.7913 -2.57829,3.74144 v 0 l -1.89981,0.89174 -9.82855,-2.88847 -15.12086,-10.35197 -5.81571,-0.19385 -2.79154,-1.78349 v 0 l 2.19059,-3.19864 -4.16794,-0.65912 -6.35851,-6.28097 -3.68328,-7.98692 -2.94664,1.80287 -3.15987,-2.15181 -1.37638,-10.54582 5.95141,-2.61707 -0.96929,-5.52494 3.79961,-4.43932 -3.76083,-0.98868 0.96928,-1.95795 -1.74471,-3.21803 -5.09845,-2.9854 2.01612,-2.61708 -0.31016,-2.8303 3.10171,-1.06622 1.24068,-3.02417 0.17447,-1.45393 -3.14048,-1.60901 -5.87387,5.25352 -5.00152,-1.45393 -1.62839,2.01612 1.27945,1.31823 -1.58963,5.48616 -8.21954,-0.65912 -2.46199,7.23087 -8.9562,-1.26007 -1.97734,6.1065 -6.70746,7.56043 -4.4781,-1.57025 -0.38771,-3.79959 -2.9854,-0.94991 -0.17447,-3.08232 -5.05968,15.58611 v 0 l -7.03701,-1.72533 -15.21779,-10.79784 -5.50553,-15.99321 -9.86733,-9.24699 -7.5992,-15.50857 -6.22282,-8.45217 -12.93027,-5.48616 -25.317737,1.08561 v 0 l -1.91919,-3.60575 -4.051598,-1.43454 -6.184048,-7.56043 -2.8497,-9.44085 -2.5783,-2.81093 2.520143,-2.05488 -2.636457,1.57024 -3.373114,-5.83509 -3.489429,-0.19386 9.208214,-4.51688 5.117829,1.02745 -0.969286,2.13243 1.628401,-0.0194 0.05816,-1.58962 0.775429,1.51207 3.082328,-0.77542 3.295568,-4.6138 -0.11632,-1.27946 -3.12109,-0.21324 2.442594,-1.14376 -3.722049,-4.51687 1.492693,-0.48464 -1.686555,-0.0194 -2.326288,-7.85123 -3.935295,-0.5428 -4.419943,3.0048 0.465257,-2.19059 -0.756042,2.22936 -6.048343,-10.99173 3.974071,-12.71702 -0.213243,-10.79785 -1.589628,-1.82226 -5.272915,2.1712 -4.788271,-2.30689 -4.3424,0.63972 -3.935299,4.73012 -4.071001,-1.8998 -5.272913,-7.75429 1.066214,4.09039 -2.558915,-2.3069 2.248744,3.81899 -3.547587,-4.80767 3.314958,-9.80917 1.7641,-0.5234 -0.833586,2.24874 3.2568,1.41515 1.647786,-2.94663 4.342399,-0.87235 -1.822257,0.71726 1.919186,-3.83836 -1.957957,1.10499 -2.5783,-1.12438 -0.600958,1.43455 -5.311684,-0.96929 1.550857,-4.09039 25.104499,-5.40861 6.203428,1.4927 6.125885,-4.18732 4.846423,-6.39728 5.098445,-1.12437 0.71726,-2.88847 3.66391,1.55085 1.64778,-1.37639 -2.5783,0.79483 -3.29557,-1.55087 0.40709,-3.87714 -2.71399,-4.65257 -3.043545,1.84164 -3.547585,8.87866 -1.725332,-0.5428 1.027443,0.69789 -3.450657,1.97734 -6.494214,-0.1357 -4.7495,-2.13243 1.453928,-3.33434 -1.512085,-2.65584 8.471557,-7.32781 -0.504029,-6.59114 1.512086,-6.02895 1.298843,-0.11632 -2.791543,-1.00806 1.182528,-2.578304 -1.802871,2.481374 -6.3779,0.0969 -0.562185,-1.453924 5.738171,-2.98541 -1.861028,0.46526 -2.869086,-7.92876 -8.568486,-5.75755 -0.930514,-6.455445 -5.951414,-3.02417 -0.484643,-1.415159 2.248743,-1.51209 -1.570294,-6.552455 -10.933544,-15.140243 -0.833585,-9.208213 -10.759071,0.290785 -12.019143,7.502272 -4.555642,-2.539529 -1.609014,-3.605743 -2.9660144,-0.794814 -0.6785,3.29557 -4.245466,2.907858 -0.213244,23.495483 -2.190584,-2.151812 2.016113,-34.332099 12.1160664,-30.3774044 2.190586,-1.240687 z"
     title="Schleswig-Holstein"
     id="DE-SH"
     style="fill:none;stroke:#000000;stroke-width:5;stroke-linecap:round;stroke-linejoin:round;stroke-dasharray:none;stroke-opacity:1" /></svg>
