<?xml version="1.0" encoding="UTF-8" standalone="no"?>
<!-- Created with Inkscape (http://www.inkscape.org/) -->

<svg
   width="383.04724"
   height="297.00601"
   viewBox="0 0 383.04724 297.00601"
   version="1.1"
   id="svg1"
   inkscape:export-filename="RP.svg"
   inkscape:export-xdpi="120"
   inkscape:export-ydpi="120"
   xml:space="preserve"
   xmlns:inkscape="http://www.inkscape.org/namespaces/inkscape"
   xmlns:sodipodi="http://sodipodi.sourceforge.net/DTD/sodipodi-0.dtd"
   xmlns="http://www.w3.org/2000/svg"
   xmlns:svg="http://www.w3.org/2000/svg"><sodipodi:namedview
     id="namedview1"
     pagecolor="#ffffff"
     bordercolor="#000000"
     borderopacity="0.25"
     inkscape:showpageshadow="2"
     inkscape:pageopacity="0.0"
     inkscape:pagecheckerboard="0"
     inkscape:deskcolor="#d1d1d1"
     inkscape:document-units="px"
     inkscape:zoom="1.7019241"
     inkscape:cx="178.32758"
     inkscape:cy="203.29931"
     inkscape:window-width="1680"
     inkscape:window-height="937"
     inkscape:window-x="0"
     inkscape:window-y="25"
     inkscape:window-maximized="1"
     inkscape:current-layer="svg1"><inkscape:page
       x="0"
       y="0"
       width="383.04724"
       height="297.00601"
       id="page2"
       margin="0"
       bleed="0" /></sodipodi:namedview><defs
     id="defs1" /><path
     d="m 10.956536,51.82036 13.451016,4.483675 4.710693,-3.008039 8.229524,5.732289 7.32144,-3.178299 16.459048,9.364629 16.232031,-7.54845 6.526866,10.89701 9.591643,1.41888 -0.45404,-5.27823 9.024093,-7.26468 5.67553,1.47563 1.36213,-6.640372 4.08639,4.029632 8.17278,-2.553996 2.04317,6.697126 7.26469,-9.988935 13.56452,-2.099948 22.92916,-18.786023 8.91059,4.370162 10.21597,-13.734793 5.10798,3.518831 6.24309,-8.229525 12.37266,1.872926 4.02963,-12.0321326 4.1999,4.9377156 14.01857,-5.1079806 -2.09995,7.7754816 15.49421,-10.4429836 11.6916,5.789045 10.27272,16.5725606 4.31339,-3.462076 7.77548,5.95931 17.9347,-1.702659 0.85134,7.264683 4.31339,5.10798 9.70516,0.113511 0.51081,5.732294 19.29681,-10.386232 2.6675,26.164208 10.15921,1.70267 1.98643,5.90256 -7.66197,3.17829 -3.00802,18.27522 9.36463,5.56203 -6.75389,9.648395 -14.2456,6.47012 1.5324,6.92414 13.73479,9.36463 0.5108,15.21043 23.21293,5.33501 4.37016,8.5133 12.37267,-3.06479 -5.56202,41.9422 -8.11602,8.74032 -9.70516,-0.34053 2.78101,5.16474 -6.81064,4.93771 -0.22702,6.98091 -5.78905,-5.44852 -6.86739,10.84028 5.05122,8.22952 -2.61074,9.81867 23.894,26.16422 v 0 l -0.17027,8.28627 -13.16724,-0.17027 -11.6916,15.778 -17.36714,-8.28629 -17.48063,8.11602 -4.93772,-8.34305 -9.70517,5.44853 -11.40783,-11.91862 -7.77548,1.53238 3.17831,-7.20793 -5.39176,-1.81616 -6.18634,3.97288 3.0648,9.42138 -12.20241,9.98895 -10.21595,-31.21546 2.49723,-11.6916 -7.88899,1.75943 -14.01857,-12.31592 -4.76745,3.85938 -12.37267,-11.35108 -11.8051,7.77548 -11.80511,-7.54846 -8.05926,5.56203 8.68356,17.6509 -9.59165,15.2672 -20.14814,-8.57006 -14.8699,2.44047 -9.76192,-12.71319 7.09441,-10.32947 -2.72425,-6.81064 -10.27271,1.30537 -2.27022,-18.61575 -10.38622,-5.05122 3.34856,-11.69161 -20.261663,-11.91862 -9.421379,-10.84026 1.191861,-7.83224 -8.797081,-6.47011 -1.078345,-4.99447 8.740318,3.57558 4.540438,-8.96734 -6.413364,-1.64591 0.96484,-9.30787 L 68.846983,134.51289 73.330655,121.9132 28.664203,93.478785 15.837495,100.1759 6.4161081,96.600325 2.4999901,63.398445 Z"
     title="Saarland"
     id="DE-SL"
     style="fill:none;stroke:#000000;stroke-width:5;stroke-linecap:round;stroke-linejoin:round;stroke-dasharray:none;stroke-opacity:1" /></svg>
