<?xml version="1.0" encoding="UTF-8" standalone="no"?>
<!-- Created with Inkscape (http://www.inkscape.org/) -->

<svg
   width="380.89398"
   height="288.64926"
   viewBox="0 0 380.89398 288.64926"
   version="1.1"
   id="svg1"
   inkscape:export-filename="ST.svg"
   inkscape:export-xdpi="120"
   inkscape:export-ydpi="120"
   xml:space="preserve"
   xmlns:inkscape="http://www.inkscape.org/namespaces/inkscape"
   xmlns:sodipodi="http://sodipodi.sourceforge.net/DTD/sodipodi-0.dtd"
   xmlns="http://www.w3.org/2000/svg"
   xmlns:svg="http://www.w3.org/2000/svg"><sodipodi:namedview
     id="namedview1"
     pagecolor="#ffffff"
     bordercolor="#000000"
     borderopacity="0.25"
     inkscape:showpageshadow="2"
     inkscape:pageopacity="0.0"
     inkscape:pagecheckerboard="0"
     inkscape:deskcolor="#d1d1d1"
     inkscape:document-units="px"
     inkscape:zoom="1.7019241"
     inkscape:cx="178.32758"
     inkscape:cy="203.29931"
     inkscape:window-width="1680"
     inkscape:window-height="937"
     inkscape:window-x="0"
     inkscape:window-y="25"
     inkscape:window-maximized="1"
     inkscape:current-layer="svg1"><inkscape:page
       x="0"
       y="0"
       width="380.89398"
       height="288.64926"
       id="page2"
       margin="0"
       bleed="0" /></sodipodi:namedview><defs
     id="defs1" /><path
     d="m 51.355052,115.30528 -0.929511,-1.85901 -5.261029,-0.81798 -1.561578,-3.402 2.323776,-0.22308 0.278853,-1.67313 -5.168078,-1.8962 1.989152,-7.71494 -4.536011,0.24168 -0.03718,-1.54299 1.598758,0.0372 1.970562,-4.74051 -0.501936,-4.33152 -1.189773,-3.82958 -2.900073,-1.52441 0.780789,-3.69944 -2.937254,-6.72966 5.837327,-1.59876 -0.185903,-7.9752 -2.621219,-2.37955 1.598758,-0.78078 -1.338496,-4.14562 1.859022,-2.19365 -1.022462,-2.19364 -2.918663,0.0372 -1.041052,-5.57707 2.993024,-0.96669 0.427576,-2.658387 3.439188,-1.821841 -1.840431,-6.246313 5.353981,-5.428341 -0.427575,-2.063514 6.915558,0.427575 6.097589,-3.58791 -0.650658,-1.115413 10.391928,0.743609 2.063513,-5.168079 2.063514,1.468627 2.509678,-0.83656 0.576296,2.100694 2.435318,-2.602629 3.829583,1.394265 4.852047,-4.554601 1.710301,1.338495 3.736628,-1.542987 -1.97056,2.974433 6.43221,-3.606501 3.32766,-6.6924751 9.481001,3.290467 8.68163,-7.138641 2.21223,1.933382 0.35321,3.420599 3.03021,-1.840431 0.83655,3.643681 3.58792,-0.464755 1.61734,2.1750541 0.74362,-2.1564641 2.50967,-0.204492 -0.65065,-2.621219 1.15259,0.241672 v 0 l 0.70643,0.204493 v 0 l -0.0372,-1.357086 3.86677,0.910921 1.37568,5.0751261 3.47636,-1.6545281 v 0 l 4.01549,7.1014601 4.1642,-2.175054 4.62897,5.112308 -2.06351,4.703322 4.9264,2.230825 2.62122,6.302082 -0.72502,6.004638 -1.98915,0.148724 -0.26026,3.197509 2.45391,4.59179 -3.30906,4.27574 1.58017,0.79938 0.5577,-2.36096 2.52827,7.58481 6.20913,2.15647 -0.72502,-2.93726 2.95584,0.33462 0.0744,-2.41672 5.01936,-2.78854 -0.63207,-2.04492 6.48798,2.17506 -0.29744,-2.06352 2.78853,-3.27187 3.32765,3.62508 -0.81797,2.26802 3.01161,-1.98916 3.19751,2.62122 -1.20836,1.26414 6.72966,1.91479 0.40898,3.75522 1.65453,0.0929 0.74361,2.30519 2.99302,-2.93726 2.24942,0.26026 0.9667,2.80713 7.38031,-0.13013 1.04105,-1.35709 8.79317,2.78853 3.0488,-1.61735 0.79937,1.50581 1.17118,-1.50581 4.31293,0.18591 1.80326,-2.8443 8.45854,0.89232 6.2649,-3.17892 1.48722,0.59489 -0.11154,3.2161 3.30905,0.63207 0.68784,-4.08984 2.75135,-0.29745 -1.3199,-1.59876 3.47637,-2.58404 -0.98529,-3.16033 2.95585,-1.85903 -3.38342,-5.81873 6.46939,-0.22308 -1.61735,-2.955849 2.39815,-1.003864 1.28272,-4.368703 4.12703,-0.446165 -1.28273,-1.673119 0.96669,-2.137874 9.01625,0.743608 3.811,2.230825 2.86289,-0.873739 6.41362,3.048794 v 0 l 0.0743,0.89233 v 0 l 1.00387,1.542988 1.05964,-2.881483 5.46553,-4.44306 6.98991,-0.204492 0.81797,-2.732762 9.90859,-0.334623 0.76219,-2.565449 2.75136,-1.450037 3.402,1.635939 2.24942,4.108437 7.58481,-0.557707 2.86289,-4.796274 -0.7808,-3.680862 3.94113,2.974434 v 0 l -2.23083,3.773812 2.93726,6.804018 6.91555,1.505807 6.80402,5.335394 7.91943,1.282721 3.84817,2.621215 2.56546,5.22385 -1.69171,6.04182 1.09682,5.74438 1.69171,1.05964 -0.50194,6.04182 7.64058,13.0875 -5.89309,21.13707 0.40897,7.45468 -1.84042,0.9295 -0.33463,7.56623 -5.70719,14.57472 -1.63594,0.89232 0.26026,3.84818 -1.65452,0.61348 -1.1526,6.00463 -9.18356,10.52206 0.87373,2.58405 -3.32764,9.01625 -3.51355,0.27884 -2.71417,-1.82184 -2.60263,1.28273 -1.7103,-3.58791 -2.15647,0.55771 -8.23545,-3.69945 2.04492,-7.38032 1.85901,-1.48722 -0.29743,-4.88922 -7.91944,3.38342 -2.0821,-0.9481 3.90394,-12.69712 -4.07125,-4.42446 -3.51355,1.17118 -0.40898,-2.4725 -3.88536,-1.02246 0.35321,-4.57319 -1.07823,4.35011 -4.48024,-2.39814 -5.29821,3.25329 -2.93726,-1.54299 -0.39038,-2.19365 -2.30519,-1.20836 -2.78853,1.20836 -4.25717,-3.08598 -1.74747,2.99304 h -1.67312 l 1.46862,2.23082 -0.59489,2.41672 -2.41672,1.13401 -0.0929,3.95971 2.86289,1.97056 4.88923,-1.48721 0.3904,2.13787 -2.99302,1.43145 1.63593,1.09682 -0.74361,0.98528 10.22461,3.47637 -1.20836,7.13864 -4.38728,-0.68784 -0.093,1.7103 -5.39115,1.63594 -4.38729,-2.0821 -3.94113,1.43144 -1.1154,5.09372 -16.04336,6.37644 -1.37568,2.62122 -5.59564,1.48722 -4.7591,-2.93725 -4.1828,2.24941 -2.02633,3.2347 -4.38729,-0.53912 -1.58017,4.5546 1.3385,4.53602 -4.29434,0.35321 -0.65066,2.82571 -9.35087,-1.5244 -4.35011,1.61736 -1.63595,-1.24555 -2.32377,3.06738 -5.05653,-2.67698 -7.34314,4.01547 -5.24244,-0.85515 -3.7924,1.71031 1.95197,5.27961 -3.49496,4.40589 1.33849,2.6584 -3.38342,1.65453 -3.49496,5.03794 -6.09758,-2.43532 -2.93726,-5.59565 -2.19364,-0.65066 0.55771,4.20139 -6.0976,3.75522 -0.29743,5.11231 -3.79241,0.91092 -1.46862,-3.25329 -3.69946,0.0372 -6.15336,16.47092 -6.76683,-0.61348 -0.7622,-2.19363 -5.46552,3.49496 -6.35785,-1.87762 -1.31991,11.3958 -4.79627,5.46552 -4.57319,1.26414 0.63206,1.71029 -15.16961,-10.50346 -1.07823,5.27962 -1.78466,-3.32766 -7.08287,3.12317 -3.4206,6.52515 -3.978311,-3.62509 -18.999192,3.69946 -3.011614,4.83346 0.316034,3.95971 -2.472498,-1.00388 -3.197517,2.47251 -1.226954,3.49496 -3.810992,0.14871 -0.01859,5.37258 -3.346237,1.48721 -2.156465,4.16421 0.85515,3.77382 -3.457779,0.0558 0.501935,4.21998 -1.394265,2.17506 1.821841,2.73275 -1.821841,2.00775 1.598758,1.59875 -5.558473,-0.7436 -1.78466,-3.66227 2.230825,-4.48024 -6.413622,-4.62896 0.687838,-2.34237 2.453907,1.48722 -1.319905,-3.75523 -6.413622,-0.33462 -0.130131,-6.20913 -1.803251,-2.99302 -9.889992,0.7622 v 0 l -1.078233,-2.8629 -5.261029,0.29745 -0.130131,1.15258 -5.800146,-5.29821 -2.360957,0.66926 0.687838,-6.98992 -2.212234,-2.11929 -1.784661,0.81798 0.483346,-2.30519 -3.5507312,-2.88148 v 0 l 0.539117,-1.65454 -3.383419,-0.65065 -0.501935,-2.34237 4.350109,-2.50968 2.0635132,1.54299 -1.245544,-3.19751 3.178926,-2.95585 -3.9597152,-4.08985 -0.05577,-2.69557 -5.149488,1.1154 -2.137875,-3.79239 1.74748,-2.71418 5.205259,-0.78078 -0.371804,-5.26103 7.2315922,-4.55461 -0.539116,-2.21223 2.268006,-2.39813 2.175054,1.76606 -2.007743,1.84044 4.052666,3.95971 -2.175055,4.81486 1.189774,3.19751 3.271877,-0.11154 2.379547,-0.91091 0.427575,-3.811 2.621219,-0.42757 2.63981,2.0821 4.573191,-1.74748 -0.260262,-1.37567 -2.955844,0.13013 1.617348,-8.57009 4.833455,3.0302 1.115412,-4.70331 7.547626,1.58016 0.185903,-2.67699 6.134769,-3.55073 0.371804,-3.88536 -6.915558,-1.8962 -0.948101,-4.12703 2.286595,-2.13787 -0.873739,-1.76606 -4.721913,-0.16732 1.505807,-5.22385 3.346237,0.91092 2.63981,-4.03408 -0.241673,-1.46862 -3.941124,0.29744 -0.390394,-5.8745 3.364827,1.95197 1.282725,-2.73277 1.264134,1.59877 -0.390395,-2.56546 1.078233,1.98916 4.833455,-0.72502 0.130131,-2.67699 3.067384,-3.0488 3.4206,0.96669 1.542987,-1.76606 0.446165,3.49496 2.491088,-0.66925 0.408985,-4.03408 4.628962,-5.61424 3.197516,0.35322 -0.408985,-1.76608 1.617349,-0.9481 2.026333,1.3385 9.889987,-1.76607 2.11929,1.26413 1.80325,-3.12315 -3.58791,-3.75523 -1.9148,-10.65218 -3.810986,1.95197 -5.762965,-2.4725 1.691708,-1.28272 -0.241673,-3.40201 -2.881481,-0.46476 -0.910921,1.80325 -0.464755,-8.60727 -2.026333,-0.59488 v 0 l -1.989153,0.0558 v 0 l -1.505807,-3.29047 -5.539882,1.63594 -1.933382,-1.82184 -3.773813,0.81797 -0.576297,-2.88148 -2.360956,-1.45004 z"
     title="Saxony"
     id="DE-SN"
     style="fill:none;fill-opacity:1;stroke:#000000;stroke-width:5;stroke-linecap:round;stroke-linejoin:round;stroke-dasharray:none;stroke-opacity:1" /></svg>
