<?xml version="1.0" encoding="UTF-8" standalone="no"?>
<!-- Created with Inkscape (http://www.inkscape.org/) -->

<svg
   width="294.04404"
   height="379.66174"
   viewBox="0 0 294.04404 379.66174"
   version="1.1"
   id="svg1"
   inkscape:export-filename="be.svg"
   inkscape:export-xdpi="120"
   inkscape:export-ydpi="120"
   xml:space="preserve"
   xmlns:inkscape="http://www.inkscape.org/namespaces/inkscape"
   xmlns:sodipodi="http://sodipodi.sourceforge.net/DTD/sodipodi-0.dtd"
   xmlns="http://www.w3.org/2000/svg"
   xmlns:svg="http://www.w3.org/2000/svg"><sodipodi:namedview
     id="namedview1"
     pagecolor="#ffffff"
     bordercolor="#000000"
     borderopacity="0.25"
     inkscape:showpageshadow="2"
     inkscape:pageopacity="0.0"
     inkscape:pagecheckerboard="0"
     inkscape:deskcolor="#d1d1d1"
     inkscape:document-units="px"
     inkscape:zoom="1.7019241"
     inkscape:cx="178.32758"
     inkscape:cy="203.29931"
     inkscape:window-width="1680"
     inkscape:window-height="937"
     inkscape:window-x="0"
     inkscape:window-y="25"
     inkscape:window-maximized="1"
     inkscape:current-layer="svg1"><inkscape:page
       x="0"
       y="0"
       width="294.04404"
       height="379.66174"
       id="page2"
       margin="0"
       bleed="0" /></sodipodi:namedview><defs
     id="defs1" /><path
     d="m 116.64877,2.9145284 4.35511,-0.414563 -1.52083,4.871123 5.58214,0.63912 1.90103,5.6311576 5.23649,-2.12464 4.83902,5.199322 6.39439,1.502793 0.46661,2.107367 -2.88611,3.558339 1.33072,2.141913 3.8712,0.05183 2.45407,2.67739 9.85083,3.471972 4.76987,-2.642843 9.81627,2.470109 1.31345,-3.16105 0.20739,7.358509 7.60415,-4.594749 0.70855,1.830989 3.62926,1.191871 2.66146,10.243165 -0.8814,2.763763 -3.23176,0.310919 -1.26159,5.285686 1.4517,2.625573 -2.55776,4.750213 1.33072,-0.345474 -0.36293,1.571896 1.97017,1.364596 -0.57031,2.677398 1.90104,1.450976 -0.674,7.686705 v 0 l -0.20739,1.727341 v 0 l -2.97253,1.882815 -3.59469,-1.157327 1.12334,9.189506 -3.9749,8.032167 3.02438,-1.64097 2.05658,1.22642 -2.5232,3.3856 2.03929,3.247414 3.61198,-0.89822 2.67874,-3.696534 3.02436,3.834724 -1.12332,0.91549 1.22702,1.62371 6.56722,-1.84826 -2.38494,1.53734 2.43679,1.91735 -4.68346,8.51584 0.8641,1.22641 -2.50591,1.62372 2.93796,1.43369 -0.82954,3.71381 1.31345,1.46824 -2.41951,2.22828 2.73058,3.45469 -3.38729,5.40661 -3.42187,11.5387 2.93796,2.17645 -1.36529,0.89823 4.13044,1.20914 -5.513,2.95376 -0.0864,4.90567 -2.16028,-0.0518 -0.95052,2.76375 4.76988,6.56393 1.50355,5.00931 4.165,2.17647 5.04639,7.9458 3.30089,0.79457 5.08096,4.76748 1.67636,-0.13816 1.22704,-3.09197 1.98744,0.20729 1.24432,3.48925 4.99453,1.98645 0.43206,3.00559 7.98436,0.62183 0.22466,-1.72734 3.31819,-0.46637 1.2616,-3.2647 1.67636,0.13816 9.28053,4.50837 2.67872,4.26657 7.17209,-0.91551 0.81227,5.83845 3.73294,0.19 0.32836,1.20915 3.35275,-2.12464 4.2514,0.72549 -0.22466,2.22827 2.09113,0.36275 -0.19009,3.7829 7.98435,-0.0863 -0.69129,3.52378 -1.20975,-0.0173 1.4517,1.6237 4.40696,0.55276 4.2514,-2.45284 2.07387,0.36274 1.48625,3.36833 -3.37001,0.79459 4.51064,8.91311 -1.64181,6.68483 1.8492,3.02288 -1.29616,1.08823 3.61197,5.04385 -3.61197,1.01913 0.88139,3.23014 -1.39986,1.41644 -10.52483,6.80576 v 0 l -3.23176,1.53734 -1.27888,-4.71567 -3.59469,-0.8464 0.0345,1.26097 v 0 l -0.65674,-0.19002 v 0 l -1.07148,-0.22455 0.60487,2.43556 -2.33309,0.19001 -0.69129,2.00372 -1.50354,-2.02099 -3.33546,0.43184 -0.7777,-3.3856 -2.81699,1.71007 -0.32835,-3.17833 -2.05658,-1.79644 -8.07078,6.63303 -8.8139,-3.05741 -3.09351,6.21846 -5.97962,3.35104 1.83191,-2.76375 -3.47371,1.4337 -1.58996,-1.2437 -4.51064,4.23201 -3.56012,-1.29551 -2.26397,2.41828 -0.53575,-1.95189 -2.33309,0.7773 -1.91832,-1.3646 -1.91831,4.80202 -9.66073,-0.69093 0.60488,1.03641 -5.66855,3.33377 -6.42897,-0.39728 0.3975,1.91735 -4.97727,5.04387 1.71094,5.80389 -3.19721,1.6928 -0.39748,2.47011 -2.78244,0.89822 0.96781,5.18205 2.71329,-0.0345 0.95052,2.03826 -1.72822,2.03827 1.24433,3.852 -1.48627,0.72549 2.43679,2.211 0.17282,7.41033 -5.4266,1.48551 2.73058,6.25302 -0.72585,3.43742 2.69601,1.41642 1.10606,3.55835 0.46662,4.02471 -1.83191,4.40475 -1.48626,-0.0345 0.0345,1.43371 4.21685,-0.22455 -1.8492,7.16848 4.80445,1.76191 -0.25924,1.55461 -2.16025,0.20729 1.4517,3.16104 4.89084,0.76003 0.8641,1.72736 v 0 l -3.66381,9.08585 4.06131,-0.27638 0.46661,3.36834 -4.99453,6.32209 -1.64181,3.7138 1.08877,1.31279 -2.74786,2.81557 -0.0864,-3.85198 -2.5059,0.20727 -0.82956,-2.74647 -2.00472,2.74647 -8.20903,-3.05739 -8.1399,1.79643 -1.14062,-4.14563 -4.0613,-0.41457 0.0345,-4.99203 -2.90341,-1.84826 -3.26631,0.84639 -2.59233,-4.75021 -10.17919,1.27824 -2.55776,-1.00186 -1.78006,1.96918 -2.9034,-4.45657 -3.49099,-0.57003 -0.25924,-3.85198 -3.26633,-3.1956 -3.45644,-0.15546 -2.19483,2.48739 -1.15789,-2.45283 -3.83664,-1.19188 -3.16264,2.74649 -6.41168,0.0691 -2.64417,-2.07283 0.5876,-2.5392 -1.67638,-3.17833 2.07386,-0.46638 1.69365,-2.85012 -1.58995,-0.76003 -0.0864,-3.92109 -1.95288,0.0518 -0.950532,-3.04014 -5.73767,0.95004 -0.0691,-2.31464 -2.69603,-0.57003 1.53811,-4.3011 1.86647,1.48553 2.14299,-1.20915 4.648912,-8.3431 1.86647,-0.88095 -6.653632,-6.39119 1.34801,-1.65826 -3.09351,-0.5182 -0.34565,-6.42573 -5.75494,-0.77731 -2.76516,-4.38747 -7.91522,2.41829 -0.10377,-1.64098 -2.92069,-1.33007 -3.35274,1.77918 -5.32289,0.0173 -8.86576,-4.69839 -1.31344,1.64098 -6.34255,0.48366 2.05658,-1.31278 -4.90814,-1.26097 -0.3802,-5.35478 v 0 l -0.0863,-0.55276 v 0 l 1.17518,-2.90193 -5.21921,-6.70213 2.26397,-3.02285 -3.83664,-3.43743 -1.64181,0.50094 v 0 l 0.0518,-1.0537 v 0 l -0.58759,-3.19558 v 0 h -0.58759 v 0 l 0.89867,-4.16292 3.88849,1.86553 0.74313,-2.00372 -2.47135,-1.38188 0.81227,-1.33006 -3.94033,1.07097 -3.19721,-3.73108 -4.164996,1.7619 -0.812269,-2.8674 -5.115516,-1.74463 -1.175183,1.34733 -5.87593,-0.0518 v 0 l -3.370027,-4.66383 -0.06908,-7.42761 -3.992174,-4.43928 -0.5357514,-3.9729 -4.113155,-2.02101 -1.797345,-7.53124 1.417146,-4.40474 -1.434431,-0.62184 0.380214,-1.64099 6.1006084,-3.99017 1.8319,-3.48925 -0.103774,-3.17831 -3.8020664,-2.19374 -0.138314,-3.09195 4.1822824,-3.43743 -3.2663164,-0.0518 -1.676379,-3.45469 -2.31581,0.48365 -2.523188,-5.33752 3.542834,-1.84826 0.587607,1.41644 2.73058,-0.3282 3.4737084,-3.07468 -0.812254,-2.71194 5.685823,-1.55461 14.205936,0.57002 5.96234,-2.34919 9.07314,0.55274 0.65671,-5.19932 -3.54283,-1.55461 0.41477,-1.52007 3.81935,-0.41455 6.41168,-5.13023 v 0 h 0.95052 v 0 l 1.65908,-6.92668 -4.49335,-0.88094 -0.63944,-3.67925 1.76278,-2.36648 5.06367,-1.46825 1.10606,-1.60644 -1.95288,-2.26281 v 0 h -1.00238 v 0 l -0.674,-4.54293 -2.69601,-0.69095 -1.76279,-3.14377 2.67874,-2.2801 v 0 l -0.0345,-0.48365 v 0 l -5.77223,-6.80576 5.82409,-0.48366 3.56012,-2.07282 0.69128,-3.42015 -4.37238,-1.95191 v 0 l -0.98508,-0.86366 v 0 l -1.22704,0.31092 0.0518,-2.07282 -8.96944,-10.88231 1.22704,-5.94208 3.42187,-1.33005 2.48863,0.89822 v 0 l 1.05422,0.12088 v 0 l -7.81154,-13.04148 0.22466,-3.95563 3.50828,-2.608303 0.51846,-3.592886 -6.23886,2.521923 -8.571934,-14.907015 v 0 -0.431839 0 l -1.434431,-4.007455 -3.335457,0.449124 -0.587592,-6.132094 -4.044014,-6.546663 1.209738,-10.692277 11.129713,-2.487379 1.451697,1.848256 1.72822,-1.813708 4.73532,0.535476 5.20193,-5.752071 0.48389,-4.214733 1.50354,-0.690939 10.35202,-0.224556 -0.0518,2.677392 6.30798,-1.243691 7.15481,1.312785 1.98745,3.195597 5.70311,-1.72735 0.44934,2.660118 1.98745,-0.621846 10.0755,-4.836577 5.720392,-5.354783 5.02911,-1.209144 -1.07149,-3.679254 1.8319,-8.2049076 5.16737,1.19187 0.36293,-2.366469 z"
     title="Saxony-Anhalt"
     id="DE-ST"
     style="fill:none;stroke:#000000;stroke-width:5;stroke-linecap:round;stroke-linejoin:round;stroke-dasharray:none;stroke-opacity:1" /></svg>
