<?xml version="1.0" encoding="UTF-8" standalone="no"?>
<!-- Created with Inkscape (http://www.inkscape.org/) -->

<svg
   width="397.05136"
   height="327.60516"
   viewBox="0 0 397.05136 327.60516"
   version="1.1"
   id="svg1"
   inkscape:export-filename="SN.svg"
   inkscape:export-xdpi="120"
   inkscape:export-ydpi="120"
   xml:space="preserve"
   xmlns:inkscape="http://www.inkscape.org/namespaces/inkscape"
   xmlns:sodipodi="http://sodipodi.sourceforge.net/DTD/sodipodi-0.dtd"
   xmlns="http://www.w3.org/2000/svg"
   xmlns:svg="http://www.w3.org/2000/svg"><sodipodi:namedview
     id="namedview1"
     pagecolor="#ffffff"
     bordercolor="#000000"
     borderopacity="0.25"
     inkscape:showpageshadow="2"
     inkscape:pageopacity="0.0"
     inkscape:pagecheckerboard="0"
     inkscape:deskcolor="#d1d1d1"
     inkscape:document-units="px"
     inkscape:zoom="1.7019241"
     inkscape:cx="178.32758"
     inkscape:cy="203.29931"
     inkscape:window-width="1680"
     inkscape:window-height="937"
     inkscape:window-x="0"
     inkscape:window-y="25"
     inkscape:window-maximized="1"
     inkscape:current-layer="svg1"><inkscape:page
       x="0"
       y="0"
       width="397.05136"
       height="327.60516"
       id="page2"
       margin="0"
       bleed="0" /></sodipodi:namedview><defs
     id="defs1" /><path
     d="m 118.82657,4.1608142 7.52923,0.06644 1.50584,-1.727294 6.55486,2.236624 1.04081,3.676036 5.33689,-2.258769 4.09679,4.7832758 5.04901,-1.3729778 -1.0408,1.7051498 3.1667,1.771583 -0.95223,2.568796 -4.98257,-2.391637 -1.15153,5.336894 v 0 h 0.75292 v 0 l 0.75293,4.096787 v 0 l -0.0665,1.350832 v 0 l 2.10375,-0.642199 4.91615,4.406814 -2.90097,3.875338 6.68773,8.592179 -1.50585,3.720325 v 0 l 0.11073,0.708634 v 0 l 0.48718,6.864886 6.28912,1.616569 -2.63523,1.683005 8.12714,-0.620055 1.683,-2.103755 11.36028,6.023384 6.82059,-0.02215 4.2961,-2.280914 3.74247,1.705149 0.13287,2.103755 10.14232,-3.100271 3.54316,5.624777 7.37422,0.996516 0.44289,8.237856 3.96392,0.66435 -1.72729,2.1259 8.52574,8.19357 -2.39164,1.12938 -5.95694,10.69594 -2.74596,1.55014 -2.39164,-1.90445 -1.97088,5.51405 3.45458,0.730773 0.0886,2.96741 7.35207,-1.21797 1.21796,3.89748 2.50237,-0.0664 0.11072,5.02686 2.03732,0.97438 -2.17019,3.65388 -2.65737,0.59792 2.14804,4.07464 -0.75292,3.25528 3.38815,2.65738 8.21572,-0.0886 4.0525,-3.52103 4.91614,1.528 1.4837,3.14455 2.81239,-3.18885 4.42896,0.19931 4.18536,4.09679 0.33218,4.93829 4.47324,0.73078 3.72033,5.71335 2.28091,-2.5245 3.27744,1.28439 13.04328,-1.63871 3.32172,6.08981 4.18536,-1.08509 3.72032,2.36949 -0.0442,6.39984 5.20403,0.53148 1.46155,5.31475 10.4302,-2.30306 10.51878,3.91963 2.5688,-3.52102 1.06295,3.52102 3.21099,-0.26573 0.11072,4.93828 3.52102,-3.6096 -1.39512,-1.683 2.10376,-4.76113 6.39985,-8.10499 -0.59792,-4.31824 -5.20402,0.35431 4.69469,-11.64816 v 0 l 7.61781,-2.94525 2.81239,1.72729 0.68649,3.43245 4.4954,-0.97438 2.30306,2.17019 6.59914,-1.94874 1.79373,3.91963 v 0 l 2.3695,-0.0665 v 0 l 2.41377,0.70864 0.55363,10.25304 1.08509,-2.14805 3.43244,0.55362 0.28789,4.0525 -2.01518,1.52798 6.86488,2.94527 4.53968,-2.32521 2.28092,12.68897 4.27394,4.47324 -2.14803,3.72033 -2.52451,-1.50585 -11.78103,2.10376 -2.41379,-1.59443 -1.9266,1.12939 0.48719,2.10376 -3.8089,-0.42076 -5.51406,6.68773 -0.48718,4.80542 -2.9674,0.79721 -0.53148,-4.16322 -1.83802,2.10376 -4.07464,-1.15153 -3.65389,3.63174 -0.15501,3.18885 -5.75765,0.86365 -1.2844,-2.3695 0.46504,3.05599 -1.50584,-1.90445 -1.528,3.25528 -4.0082,-2.3252 0.46505,6.99775 4.69469,-0.35431 0.28788,1.74943 -3.14456,4.80543 -3.98606,-1.0851 -1.79373,6.22269 5.62477,0.1993 1.04081,2.10376 -2.7238,2.54664 1.12937,4.91615 8.23786,2.25877 -0.44289,4.62826 -7.30778,4.22965 -0.22144,3.18885 -8.99079,-1.8823 -1.32869,5.60263 -5.75764,-3.6096 -1.9266,10.20875 3.52102,-0.15501 0.31003,1.6387 -5.44762,2.08162 -3.14456,-2.48021 -3.12242,0.50933 -0.50933,4.53967 -2.83454,1.0851 -3.89748,0.13287 -1.41727,-3.8089 2.59095,-5.73551 -4.82757,-4.71684 2.39164,-2.19234 -2.59094,-2.10375 -2.70166,2.85668 0.64219,2.63523 -8.61432,5.42547 0.44289,6.26698 -6.20054,0.93009 -2.08161,3.23313 2.54666,4.51754 6.1341,-1.32869 0.0665,3.211 4.71684,4.87185 -3.78676,3.52102 1.4837,3.80891 -2.45807,-1.83802 -5.18189,2.98954 0.59792,2.79025 4.03035,0.77507 -0.6422,1.97089 v 0 l -13.90692,7.48493 v -2.90096 l -6.422,-3.74247 -0.97437,2.03732 -2.83453,-0.95223 1.55013,1.9266 -3.45459,-0.70864 -3.52102,2.87883 -0.8415,-1.41727 -11.75888,3.29957 -4.38467,-3.4103 -3.14457,0.64221 -1.59442,3.23313 -5.35904,2.32521 -0.1993,-4.6504 -5.86837,-1.06295 0.53147,-6.53272 -2.56879,-0.39861 -3.07813,2.67953 1.0851,-2.63523 -4.27395,-2.79026 -0.0443,-10.96166 2.14803,0.53148 0.77508,-1.74944 -1.39512,-2.63524 -12.00248,-2.10376 0.15501,2.21449 -3.60961,0.48718 0.11073,3.91963 -2.85668,0.31003 -1.57228,3.05598 -0.55362,-2.10375 -5.5362,1.39512 0.0665,6.577 2.63523,4.09678 -1.26225,6.73202 3.74247,8.81363 -3.25528,1.92659 2.08161,3.38816 -2.10376,-0.17716 1.12938,6.79846 -2.50236,2.76809 1.2844,1.06295 v 0 h -0.57577 v 0 l -0.73077,4.47324 -7.94998,-5.40332 -0.68649,4.40681 -2.03732,0.70864 0.90794,-2.39164 -5.09331,-1.08509 -1.79373,-3.12243 3.45459,-6.75415 -2.81239,-4.98258 -2.81239,0.88579 -0.37646,-3.87534 -3.72032,0.28788 -0.50934,2.98955 -5.80193,1.7273 -1.01866,-3.54317 -6.11196,-1.17368 0.57576,3.52102 -1.81587,0.35432 -6.90917,-9.83229 -2.81239,0.77508 v 0 l -1.06295,0.42074 v 0 l -2.39164,1.43941 -2.1259,-3.54316 -1.97088,1.88231 -4.2518,-0.99652 -3.78677,2.87882 -2.70166,-1.17367 -4.4511,5.86837 -5.42547,-1.39512 -0.39861,4.07464 2.14804,0.33217 -1.79372,5.20403 3.67603,1.15152 4.07464,4.93829 4.56183,0.35432 0.37646,2.70167 v 0 h 0.77506 v 0 l 4.80542,0.86364 0.15502,6.79845 -3.38815,1.46156 -3.01169,-3.07812 -4.4954,2.25877 -5.3369,-2.1702 -0.24358,8.79148 -1.83802,1.48371 -2.36949,-1.61657 v 0 h -0.73078 v 0 l -5.07117,-3.96393 -4.16321,1.528 -3.10027,-1.57228 -1.43941,-3.38815 1.90445,-0.77507 -1.74944,-3.10027 1.30655,-1.83802 -2.32521,0.0442 1.81587,-4.69469 -1.70515,-3.29959 1.0851,-5.71335 -5.38119,-0.93008 -2.413782,-5.75764 -1.70515,-0.37646 -2.480214,3.43243 -0.398609,-2.1259 -2.878822,0.99652 0.04429,-4.42896 -1.57228,0.39861 v 0 h -1.040942 v 0 l -2.967402,-6.22269 -8.060704,1.7273 -1.505846,-3.29958 2.568796,-3.72032 -4.451103,-1.41727 1.505846,-1.66086 -1.926597,0.26574 -4.362525,-5.95695 -0.97437,-6.31127 -3.963918,0.0665 -6.532713,-4.29609 -3.366009,0.4429 -0.06644,-4.40682 -3.277429,-2.0816 -0.664343,-3.05599 -3.454588,0.53148 -0.55362,1.99303 -3.454587,-2.10375 -1.151529,2.10375 -4.84971,-4.65041 -5.31475,6.15625 0.243592,2.03733 -4.340379,2.30306 v 0 l -0.442896,-2.90097 3.188851,-5.89052 -3.410298,-12.15749 1.705148,-2.83454 4.694696,0.19931 -4.030351,-10.76237 -7.551374,-1.17367 -6.621294,2.01517 -0.664343,2.34735 2.657375,3.4103 -1.10724,2.63523 -11.7810289,-2.41378 0.3764608,-6.6213 6.1783967,-5.2926 -2.03732,-2.54665 4.4732474,-7.44065 -0.221447,-3.69818 -2.3694934,-0.75293 0.575764,-3.366 3.8974834,0.0886 -1.372977,-5.75765 1.284398,-4.80542 3.144561,-2.39164 v 0 l 0.907937,0.33217 v 0 l 2.236624,1.01866 1.262252,-2.5245 2.967403,0.57576 1.550135,-4.07464 -2.347348,0.97437 0.155014,-3.87534 5.336895,-3.74247 -0.177159,-1.72729 -1.660859,0.17716 0.442896,-2.43593 -5.447619,-4.78327 -5.691211,3.07812 2.280913,-5.29261 -3.277429,-0.22144 -1.505846,2.05946 -0.509331,-4.18536 8.725049,1.72729 1.727294,-1.99303 0.686488,1.32869 4.80542,-1.61657 -2.856679,-0.99652 -0.310026,-4.09678 -3.011692,-3.12242 2.790243,-7.06419 8.946496,2.03732 2.369493,-1.43941 3.853195,3.94178 8.149283,-3.36601 -1.594425,-2.41379 3.078125,-1.66085 -1.350832,-2.05947 -9.101509,-5.44762 1.860163,-2.10376 -1.284399,-3.49887 4.141077,-7.10849 -7.772823,-5.13758 6.532714,-3.10028 4.650406,9.01294 1.793729,-2.87883 -1.350833,-5.7355 4.938289,-7.75067 -5.824081,-1.50585 -4.2518,-4.40682 -2.413782,1.01867 -1.350832,-3.011693 -3.676036,1.217963 -6.244831,-2.502363 1.284398,-3.69818 -4.318234,-2.3695 1.173674,-5.62478 -11.73674,-1.32868 -0.465041,-3.56531 -4.20751,-1.52799 1.284398,-2.81239 -3.2995744,-7.81711 0.442896,-4.716843 v 0 l 10.2530394,-6.643437 1.284397,-3.521023 4.030353,-0.08857 1.151528,-3.74247 3.100271,4.29609 1.683005,-3.764614 4.318234,0.952226 v 0 h 0.885792 v 0 l 5.181881,-0.199304 -1.749439,-2.768099 4.517538,-0.487186 1.838018,-3.919627 -1.129385,-1.483701 3.343864,-3.676036 2.037321,3.454587 2.369493,0.04429 1.749439,-2.856678 7.462794,-2.391638 1.217964,-4.628261 4.960433,-0.996516 5.31475,-9.987301 v 0 -1.350832 0 l -1.439411,-4.229655 8.038559,-1.06295 v 0 h 0.841502 v 0 l 8.725049,4.340379 3.410303,4.318234 5.912658,-0.50933 6.35556,-5.292605 7.15277,4.76113 1.26226,-3.897484 -3.78677,-1.948742 -0.62005,-5.137591 2.01517,0.110724 -1.39512,-2.9895478 6.15625,-1.948742 -0.95222,-2.08161 z"
     title="Thuringia"
     id="DE-TH"
     style="fill:none;stroke:#000000;stroke-width:5;stroke-linecap:round;stroke-linejoin:round;stroke-dasharray:none;stroke-opacity:1" /></svg>
